<svg width="55" height="55" viewBox="0 0 55 55" fill="none" xmlns="http://www.w3.org/2000/svg">
<path d="M27.4998 0C35.0935 0 41.9685 3.07808 46.9452 8.0544C51.9219 13.0307 55 19.9062 55 27.4996C55 35.0938 51.9219 41.9688 46.9452 46.9452C41.9685 51.9215 35.0935 55 27.4998 55C19.906 55 13.0311 51.9219 8.05479 46.9456C3.07851 41.9693 0 35.0938 0 27.4996C0 19.9062 3.07806 13.0307 8.05479 8.0544C13.0315 3.07808 19.906 0 27.4998 0ZM15.4668 30.0687C14.8792 29.537 14.8335 28.6293 15.3657 28.0416C15.8974 27.4539 16.8051 27.4082 17.3928 27.94L23.4088 33.3952L37.5271 18.6086C38.0745 18.033 38.9853 18.0106 39.5605 18.5576C40.1356 19.105 40.1584 20.0154 39.611 20.5905L24.5247 36.3914L24.5229 36.3896C23.988 36.9522 23.0986 36.9885 22.5199 36.4648L15.4668 30.0687ZM44.9065 10.0932C40.4516 5.63875 34.2973 2.88293 27.4998 2.88293C20.7018 2.88293 14.5475 5.63831 10.0931 10.0927C5.63826 14.5476 2.88336 20.7015 2.88336 27.4996C2.88336 34.2976 5.63871 40.4519 10.0931 44.9068C14.5475 49.3612 20.7018 52.1166 27.4998 52.1166C34.2973 52.1166 40.4516 49.3612 44.9065 44.9068C49.3613 40.4519 52.1157 34.298 52.1157 27.4996C52.1162 20.702 49.3613 14.5476 44.9065 10.0932Z" fill="black"/>
</svg>
