<svg width="61" height="54" viewBox="0 0 61 54" fill="none" xmlns="http://www.w3.org/2000/svg">
<path d="M57.9536 16.1947H48.3657C47.5633 16.1973 46.794 16.5152 46.224 17.0799C45.6539 17.6447 45.3288 18.4109 45.3188 19.2133C45.2774 21.7942 45.2501 27.065 45.2133 29.6122H42.3325V25.1982C42.3271 20.5695 40.6478 15.8554 37.2237 13.0094C38.0933 12.1004 38.7266 10.992 39.0683 9.78139C39.4099 8.57073 39.4495 7.29476 39.1834 6.06528C38.9174 4.8358 38.3539 3.69032 37.5422 2.72923C36.7306 1.76814 35.6957 1.02077 34.5281 0.55259C33.3605 0.0844147 32.096 -0.0902699 30.8452 0.0438423C29.5944 0.177954 28.3956 0.616771 27.3539 1.32184C26.3121 2.02691 25.4591 2.97671 24.8697 4.08803C24.2803 5.19934 23.9725 6.43824 23.9731 7.69618C23.9735 7.83198 24.0015 7.96628 24.0552 8.09096C24.109 8.21565 24.1875 8.32813 24.286 8.42161C24.3845 8.51508 24.501 8.58761 24.6283 8.63481C24.7556 8.682 24.8912 8.70288 25.0268 8.69618H25.6914C25.9336 12.3163 27.5122 14.6072 30.1544 15.2198C30.0692 16.0894 29.9802 17.2571 29.9454 18.5591L28.2847 20.1605L22.394 20.3036L17.3052 18.3524C17.0336 18.2533 16.7422 18.2205 16.4553 18.2569C16.1685 18.2932 15.8945 18.3977 15.6562 18.5615C15.418 18.7253 15.2223 18.9437 15.0857 19.1985C14.949 19.4534 14.8753 19.7372 14.8706 20.0263V23.6796C14.8709 23.9167 14.9182 24.1515 15.0097 24.3702C15.1012 24.589 15.2351 24.7875 15.4038 24.9542C15.5724 25.1209 -0.217613 28.3709 0.00219727 28.4599C0.222007 28.5489 16.4473 25.475 16.6845 25.4726L13.3156 38.033C11.3271 37.9907 6.69184 38.5568 5.03711 44.5146C5.0016 44.646 4.99313 44.7833 5.0122 44.9181C5.03126 45.0529 5.07748 45.1825 5.14805 45.2989C5.21861 45.4153 5.31207 45.5163 5.42275 45.5955C5.53344 45.6748 5.65906 45.7308 5.79201 45.7602L6.4328 45.8969C6.4148 46.0933 6.39551 46.2897 6.39551 46.4858C6.50378 54.0276 16.9017 55.7343 19.4089 48.6651C20.1196 48.8611 20.8882 48.9711 21.1909 48.1171L21.4656 47.2372H23.8991C23.909 47.2403 23.9195 47.2403 23.9293 47.2372H37.7115C39.5675 55.1087 50.82 55.1116 52.681 47.2371L53.3579 47.2372C53.6239 47.2278 53.8762 47.1169 54.0629 46.9272C54.2282 46.732 54.331 46.4916 54.3579 46.2372V39.0166C54.3578 38.8843 54.3316 38.7534 54.2807 38.6313L52.9465 35.4365C53.2683 35.1148 53.6625 34.7672 53.6625 34.2763V31.6122H60.0005C60.1318 31.6122 60.2618 31.5864 60.3832 31.5361C60.5045 31.4859 60.6148 31.4122 60.7076 31.3194C60.8005 31.2265 60.8742 31.1162 60.9244 30.9949C60.9747 30.8736 61.0005 30.7435 61.0005 30.6122V19.2416C60.9995 18.4338 60.6782 17.6594 60.107 17.0882C59.5358 16.517 58.7614 16.1957 57.9536 16.1947ZM47.2843 22.6264H59.0005V24.1059H47.2693L47.2843 22.6264ZM48.3657 18.1947H57.9536C58.2311 18.1951 58.4972 18.3055 58.6935 18.5018C58.8897 18.698 59.0001 18.9641 59.0005 19.2416V20.6264H47.3047L47.3188 19.2324C47.3222 18.9566 47.4338 18.6932 47.6297 18.4991C47.8256 18.305 48.0899 18.1956 48.3657 18.1947ZM22.2817 41.4638C20.2408 35.5483 22.0438 28.1056 22.8132 25.4726C22.8132 25.4726 30.4664 25.4539 30.5691 25.4192C30.6936 25.8823 30.8482 26.3368 31.032 26.7798C29.0118 27.4503 27.107 30.3198 27.1284 32.5527C27.1491 32.746 27.1757 33.7731 27.1301 38.3617C26.435 38.4426 25.7871 38.7539 25.2896 39.246C24.694 39.847 24.31 40.6254 24.1956 41.4638L22.2817 41.4638ZM22.9867 22.2762L24.7149 22.2384V23.4726H22.7187L22.9867 22.2762ZM26.7149 40.6488C27.0339 40.2761 27.6642 40.3135 28.1202 40.3217H31.7872V41.4638H26.2419C26.3283 41.1566 26.4911 40.8763 26.7149 40.6488ZM31.7872 34.7211C31.7889 34.9884 31.7859 37.9677 31.7872 38.3217H29.131C29.1736 34.3065 29.1792 32.8844 29.1114 32.3027C29.212 31.6626 30.0689 28.789 32.4322 28.4599H40.3325V30.6122C40.3322 30.8165 40.251 31.0123 40.1065 31.1567C39.9621 31.3012 39.7662 31.3824 39.562 31.3827H35.1255C34.2404 31.3837 33.3918 31.7357 32.7659 32.3616C32.1401 32.9875 31.7881 33.836 31.7872 34.7211ZM38.3033 17.3661C39.84 20.1392 40.5445 23.2966 40.3325 26.4599H33.0805C32.7278 25.731 32.4736 24.9585 32.3245 24.1627L35.3276 21.9042C35.94 21.4362 36.3547 20.7555 36.4895 19.9966C36.6244 19.2377 36.4698 18.4559 36.0562 17.8055C35.6426 17.1551 35.0001 16.6835 34.2556 16.4838C33.5111 16.2842 32.7188 16.371 32.0353 16.7272C32.153 15.7644 31.8446 15.2437 32.963 15.2746C33.8921 15.1191 34.7837 14.7905 35.5915 14.3059C36.7065 15.1174 37.6318 16.1616 38.3033 17.3661ZM31.6695 1.99992C32.9701 2.00906 34.2286 2.46256 35.236 3.28519C36.2435 4.10783 36.9395 5.25017 37.2086 6.52273C37.4776 7.79528 37.3035 9.12157 36.7152 10.2816C36.1269 11.4416 35.1597 12.3657 33.974 12.9004L33.9741 7.69621C33.9741 7.431 33.8688 7.17664 33.6812 6.98911C33.4937 6.80157 33.2394 6.69621 32.9741 6.69621H26.0777C26.3115 5.38215 26.9995 4.19198 28.0216 3.33359C29.0436 2.47521 30.3348 2.00317 31.6695 1.99992ZM27.7013 8.69618H31.9741V13.3765C29.4067 13.5452 27.9291 11.9315 27.7013 8.69618ZM28.7202 22.1508C28.9715 22.145 29.2115 22.045 29.3925 21.8705C30.1236 21.1671 32.0172 19.3382 32.7226 18.6591C32.8295 18.5591 32.9557 18.4817 33.0933 18.4318C33.231 18.3819 33.3773 18.3604 33.5235 18.3687C33.6697 18.3769 33.8127 18.4147 33.9439 18.4798C34.075 18.5449 34.1916 18.6359 34.2866 18.7473C34.3816 18.8587 34.453 18.9883 34.4966 19.1281C34.5401 19.2679 34.5548 19.4151 34.5398 19.5607C34.5248 19.7064 34.4805 19.8475 34.4094 19.9755C34.3384 20.1035 34.2421 20.2158 34.1264 20.3056L29.9145 23.4726H26.7148V22.1947L28.7202 22.1508ZM16.8706 20.3276L21.0168 21.9175L20.6686 23.4726H16.8706L16.8706 20.3276ZM20.731 25.4726C19.4995 29.4347 17.9024 39.4877 21.8814 45.2372H21.0901L15.1762 38.8161L18.7552 25.4726L20.731 25.4726ZM13.5791 40.0336L19.584 46.5536L19.5532 46.6512L18.8742 46.5063C18.8473 46.5006 7.83119 44.1499 7.805 44.1443L7.30412 44.0375C7.74743 42.7617 8.60787 41.6726 9.74645 40.9461C10.885 40.2196 12.2353 39.8981 13.5791 40.0336ZM13.0859 51.1864C12.4555 51.1855 11.8318 51.0576 11.252 50.8102C10.6722 50.5629 10.1482 50.2011 9.71137 49.7467C9.27452 49.2922 8.93379 48.7543 8.70953 48.1652C8.48527 47.5761 8.38209 46.9478 8.40615 46.3179L17.4352 48.2441C17.0876 49.1133 16.4874 49.8583 15.7121 50.3828C14.9368 50.9073 14.022 51.1872 13.0859 51.1864ZM38.2955 45.2372C38.7685 43.2856 40.0867 40.0747 43.6899 39.3114C44.6404 39.1247 45.6188 39.1309 46.5669 39.3297C47.515 39.5284 48.4135 39.9157 49.2091 40.4684C50.0046 41.0211 50.681 41.728 51.1981 42.5472C51.7152 43.3664 52.0624 44.2811 52.2191 45.237L38.2955 45.2372ZM45.1909 51.1864C43.987 51.1875 42.814 50.8053 41.8419 50.0953C40.8697 49.3853 40.1487 48.3843 39.7834 47.2372H50.6089C50.2419 48.3853 49.5191 49.3868 48.545 50.0968C47.571 50.8068 46.3962 51.1884 45.1909 51.1864ZM51.6625 33.8812L51.3375 34.2284H43.2299C42.9672 34.2321 42.7164 34.3391 42.5319 34.5262C42.3474 34.7134 42.244 34.9656 42.244 35.2284C42.244 35.4912 42.3474 35.7434 42.5319 35.9306C42.7164 36.1177 42.9672 36.2247 43.2299 36.2284H51.1098L52.3578 39.2167V40.7268C51.3031 39.3803 49.8959 38.3523 48.2924 37.7571C46.6889 37.1618 44.9517 37.0225 43.2739 37.3547C38.2785 38.4133 36.7205 42.9332 36.2471 45.2372H24.3741C23.9073 44.6897 23.4984 44.0954 23.1538 43.4638H32.7871C33.0523 43.4637 33.3066 43.3584 33.4942 43.1708C33.6817 42.9833 33.787 42.729 33.7871 42.4638V36.2284H40.145C40.4077 36.2247 40.6585 36.1177 40.843 35.9306C41.0275 35.7435 41.1309 35.4912 41.1309 35.2284C41.1309 34.9656 41.0275 34.7134 40.843 34.5263C40.6585 34.3391 40.4077 34.2322 40.145 34.2284H33.8868C33.9848 33.9797 34.1553 33.766 34.3762 33.6153C34.597 33.4645 34.8581 33.3835 35.1255 33.3827H39.562C40.1198 33.3814 40.6642 33.2117 41.124 32.8958C41.5837 32.5798 41.9373 32.1324 42.1385 31.6122H51.6625L51.6625 33.8812ZM47.2133 29.6122L47.249 26.1059H59.0005V29.6122L47.2133 29.6122Z" fill="black"/>
</svg>
