<svg width="59" height="59" viewBox="0 0 59 59" fill="none" xmlns="http://www.w3.org/2000/svg">
<path d="M29.5 0C37.6468 0 45.0212 3.30096 50.3589 8.64111C55.6966 13.9788 59 21.3556 59 29.5C59 37.6444 55.699 45.0212 50.3589 50.3589C45.0212 55.6966 37.6444 59 29.5 59C21.3532 59 13.9788 55.699 8.64111 50.3589C3.30096 45.0212 0 37.6444 0 29.5C0 21.3556 3.30096 13.9788 8.64111 8.64111C13.9788 3.30096 21.3532 0 29.5 0ZM27.0882 14.9524C27.0882 14.0607 27.811 13.338 28.7027 13.338C29.5944 13.338 30.3172 14.0607 30.3172 14.9524V29.8552L41.529 36.5018C42.294 36.9539 42.5498 37.9424 42.0978 38.7099C41.6457 39.4749 40.6572 39.7307 39.8897 39.2787L27.97 32.2123C27.4459 31.9441 27.0882 31.4001 27.0882 30.7742V14.9524ZM48.0763 10.9237C43.3223 6.16974 36.7552 3.22893 29.5 3.22893C22.2448 3.22893 15.6777 6.16974 10.9237 10.9237C6.16974 15.6777 3.22893 22.2448 3.22893 29.5C3.22893 36.7552 6.16974 43.3223 10.9237 48.0763C15.6777 52.8303 22.2448 55.7711 29.5 55.7711C36.7552 55.7711 43.3223 52.8303 48.0763 48.0763C52.8303 43.3223 55.7711 36.7552 55.7711 29.5C55.7711 22.2448 52.8303 15.6777 48.0763 10.9237Z" fill="black"/>
</svg>
