<svg width="53" height="48" viewBox="0 0 53 48" fill="none" xmlns="http://www.w3.org/2000/svg">
<path d="M11.0675 8.29397C10.895 8.46587 10.6664 8.55183 10.4421 8.55183C10.2135 8.55183 9.98926 8.46587 9.81673 8.29397C9.64421 8.12206 9.55794 7.89429 9.55794 7.67082C9.55794 7.44304 9.64421 7.21957 9.81673 7.04766C10.1316 6.73394 10.2222 6.45029 10.1877 6.17955C10.1532 5.88301 9.98494 5.56499 9.79948 5.22548C9.48031 4.62811 9.13525 3.99206 9.02743 3.21849C8.91528 2.43633 9.04468 1.53813 9.67871 0.446535L9.68302 0.429344C9.80379 0.227356 9.99788 0.089833 10.2092 0.0296665C10.4249 -0.0305 10.6664 -0.00471438 10.8778 0.115619C11.0891 0.235952 11.2314 0.433642 11.2918 0.648522C11.3522 0.863403 11.3263 1.10407 11.2056 1.31465C10.8174 1.98938 10.7441 2.54807 10.8174 3.03799C10.895 3.53222 11.1322 3.97487 11.3565 4.38744C11.6886 5.002 11.9949 5.57358 12.0337 6.20533C12.0768 6.85427 11.8396 7.5247 11.0675 8.29397ZM6.07723 18.3762H46.8408C47.0047 18.3762 47.1643 18.4105 47.311 18.4707C47.4533 18.5309 47.5784 18.6125 47.6905 18.7157C47.6991 18.72 47.7078 18.7286 47.7164 18.7372C47.9407 18.9606 48.0787 19.2658 48.0787 19.6053V22.3429H52.1158C52.3617 22.3429 52.5816 22.4417 52.7412 22.6007C52.9008 22.7597 53 22.9832 53 23.2239C53 23.4688 52.9008 23.688 52.7412 23.847L52.7283 23.8599C52.5687 24.0103 52.353 24.1049 52.1158 24.1049H48.0787V42.1978C48.0787 42.98 47.9191 43.7278 47.6344 44.4111C47.3368 45.1202 46.9055 45.7605 46.3707 46.2934C45.8359 46.8263 45.1932 47.2604 44.4815 47.5526C43.7957 47.8363 43.0453 47.9953 42.2603 47.9953H10.6664C9.88143 47.9953 9.13094 47.8363 8.44515 47.5526C7.73348 47.2561 7.09082 46.8263 6.55599 46.2891C6.02116 45.7562 5.58553 45.1159 5.28792 44.4068C5.00326 43.7235 4.84367 42.9757 4.84367 42.1935V24.1135H0.888509C0.64266 24.1135 0.422689 24.0146 0.263102 23.8556C0.0992025 23.6923 0 23.4731 0 23.2282C0 22.9832 0.0992025 22.764 0.258789 22.605C0.418376 22.446 0.64266 22.3472 0.884196 22.3472H4.84367V19.6096C4.84367 19.4463 4.87817 19.2873 4.93856 19.1411C5.00326 18.9907 5.09383 18.8532 5.20597 18.7415C5.43026 18.518 5.7408 18.3762 6.07723 18.3762ZM46.3017 20.1468H6.62069V42.2021C6.62069 42.7479 6.72852 43.2636 6.92692 43.7407C7.13395 44.2349 7.43587 44.6775 7.81112 45.0514C8.18636 45.4253 8.63062 45.7261 9.12663 45.9324C9.60107 46.1301 10.123 46.2376 10.6707 46.2376H42.2646C42.808 46.2376 43.3299 46.1301 43.8044 45.9324C44.2961 45.7261 44.7446 45.4253 45.1199 45.0557C45.4951 44.6818 45.797 44.2392 45.9998 43.7449C46.1982 43.2722 46.306 42.7522 46.306 42.2107V20.1468H46.3017ZM8.65218 23.1422C8.65218 22.8972 8.75138 22.6781 8.91097 22.5191C9.07056 22.36 9.29484 22.2612 9.53638 22.2612C9.78223 22.2612 10.0022 22.36 10.1618 22.5191C10.3214 22.6781 10.4206 22.9015 10.4206 23.1422V34.7844C10.4206 35.0294 10.3214 35.2486 10.1618 35.4076C10.0022 35.5666 9.77791 35.6654 9.53638 35.6654C9.29053 35.6654 9.07056 35.5666 8.91097 35.4076L8.89803 35.3947C8.74707 35.2357 8.65218 35.0208 8.65218 34.7844V23.1422ZM17.382 10.9327C15.8551 11.1519 14.4836 11.4312 13.2673 11.7621C12.0466 12.0974 10.9727 12.4884 10.0496 12.9354C9.40267 13.2491 8.82902 13.5886 8.33301 13.9539C7.98364 14.2075 7.6731 14.4782 7.39705 14.7576H45.5383C45.2838 14.4911 44.9905 14.2376 44.6627 13.9969C44.1839 13.6488 43.6275 13.3265 42.9978 13.0342C42.1007 12.6131 41.0569 12.2521 39.888 11.934C38.7105 11.616 37.408 11.3539 36.0019 11.1347C35.3635 11.0358 34.7166 10.9456 34.0653 10.8639H34.0566C33.414 10.7823 32.767 10.7135 32.1114 10.6491C31.4688 10.5889 30.8175 10.533 30.1532 10.49C29.4976 10.4471 28.8464 10.4127 28.1994 10.3869C27.9535 10.3783 27.7379 10.2709 27.5826 10.1076C27.4273 9.94425 27.3368 9.72078 27.3454 9.47581V9.47151C27.3497 9.32969 27.3885 9.19647 27.4532 9.08043C27.5179 8.9601 27.6128 8.86125 27.7249 8.7796C27.863 8.67646 27.9924 8.56042 28.1045 8.4272C28.2166 8.29827 28.3115 8.15215 28.3892 8.00173C28.4668 7.85132 28.5272 7.6923 28.566 7.5161C28.6048 7.3485 28.6264 7.17659 28.6264 6.99609C28.6264 6.69526 28.566 6.41162 28.4582 6.15376C28.346 5.88731 28.1821 5.64234 27.9794 5.44036C27.7767 5.23837 27.5308 5.07076 27.2634 4.96332C27.0046 4.85588 26.72 4.79571 26.4181 4.79571C26.1161 4.79571 25.8315 4.85588 25.5727 4.96332C25.3009 5.07506 25.0594 5.23837 24.8567 5.44465C24.654 5.64664 24.4858 5.89161 24.3779 6.15806C24.2701 6.41591 24.2097 6.69956 24.2097 7.00039C24.2097 7.17659 24.2313 7.3485 24.2658 7.5118C24.3046 7.67941 24.365 7.84272 24.4383 7.98884C24.516 8.13926 24.6108 8.28537 24.7187 8.4143C24.8308 8.54753 24.9559 8.66786 25.0939 8.76671C25.288 8.91283 25.4088 9.12341 25.439 9.34688C25.4692 9.57036 25.4174 9.80673 25.2708 10.0001C25.1845 10.1119 25.081 10.1978 24.9645 10.258C24.8524 10.3138 24.7273 10.3482 24.6022 10.3525H24.5763H24.5591C23.9682 10.3654 23.3643 10.3869 22.7562 10.417C22.1567 10.4471 21.5485 10.4858 20.9231 10.5373C20.3193 10.5846 19.7197 10.6405 19.1331 10.7092C18.5422 10.7737 17.96 10.8467 17.382 10.9327ZM9.27759 11.3453C10.2869 10.8596 11.4471 10.4342 12.7626 10.0732C14.0695 9.71218 15.5273 9.41565 17.1318 9.18357C17.7314 9.09762 18.3352 9.02027 18.9434 8.9515C19.5601 8.88274 20.1683 8.82258 20.7808 8.7753C21.156 8.74522 21.5485 8.71943 21.9496 8.69365C22.2257 8.67646 22.5103 8.66356 22.795 8.65067C22.6872 8.4143 22.6009 8.16504 22.5405 7.91148C22.4715 7.61924 22.4327 7.31411 22.4327 7.00039C22.4327 6.46319 22.5405 5.95177 22.7346 5.48333C22.9373 4.9977 23.2349 4.55935 23.6016 4.19405C23.9682 3.82875 24.4081 3.53222 24.8955 3.33453C25.3656 3.14114 25.8789 3.0337 26.4181 3.0337C26.9572 3.0337 27.4705 3.14114 27.9406 3.33453C28.428 3.53652 28.8679 3.83305 29.2345 4.19405C29.6012 4.55935 29.8988 4.9977 30.1015 5.48333C30.2956 5.95177 30.4034 6.46319 30.4034 7.00039C30.4034 7.31841 30.3646 7.62784 30.2913 7.92867C30.2266 8.19942 30.1317 8.46158 30.0109 8.71084C30.3387 8.73233 30.6579 8.75381 30.9684 8.7796C31.3868 8.80968 31.8224 8.84836 32.271 8.89134C32.9395 8.9558 33.6038 9.02886 34.2723 9.11481C34.9408 9.19647 35.6051 9.29102 36.265 9.39416C37.7616 9.62623 39.1375 9.90987 40.3797 10.2451C41.6305 10.5846 42.7563 10.98 43.7397 11.4398C44.7662 11.9169 45.6418 12.4669 46.3491 13.0944C47.0651 13.7261 47.6086 14.4353 47.9752 15.2303C48.0054 15.2905 48.0313 15.3549 48.0485 15.428C48.0658 15.4968 48.0744 15.5655 48.0744 15.6386C48.0744 15.8835 47.9752 16.1027 47.8156 16.2617L47.8027 16.2746C47.6431 16.425 47.4274 16.5196 47.1902 16.5196H5.64592C5.62866 16.5196 5.61572 16.5196 5.60278 16.5153C5.54671 16.511 5.48633 16.5024 5.43457 16.4895C5.37419 16.4723 5.3138 16.4508 5.25342 16.4207C5.24048 16.4165 5.22754 16.4079 5.2146 16.3993C5.01188 16.2832 4.86955 16.0984 4.80485 15.8878C4.74015 15.6773 4.75309 15.4452 4.86092 15.2389C4.86523 15.226 4.87386 15.2131 4.88249 15.2002C5.30518 14.4224 5.87883 13.709 6.61206 13.0643C7.34098 12.4283 8.22949 11.8524 9.27759 11.3453ZM35.1996 7.04336C35.3722 7.21527 35.4584 7.44304 35.4584 7.66652C35.4584 7.89429 35.3722 8.11777 35.1996 8.28967C35.0271 8.46158 34.7985 8.54753 34.5742 8.54753C34.3456 8.54753 34.1213 8.46158 33.9488 8.28967C33.1768 7.5204 32.9395 6.84997 32.9784 6.20533C33.0172 5.57358 33.3277 5.002 33.6555 4.38744C34.0868 3.57949 34.5828 2.6598 33.8065 1.31465L33.7979 1.29746C33.6814 1.09118 33.6598 0.854807 33.7202 0.644225C33.7806 0.425047 33.9229 0.231654 34.1343 0.111321C34.3456 -0.00901199 34.5872 -0.0347976 34.8028 0.0253689C35.0228 0.0855354 35.2169 0.227356 35.3376 0.437939C35.9717 1.52953 36.1011 2.42773 35.9889 3.2056C35.8768 3.97917 35.5361 4.61951 35.2169 5.21258C34.8718 5.86582 34.5742 6.42021 35.1996 7.04336ZM41.885 7.04336C42.0575 7.21527 42.1438 7.44304 42.1438 7.66652C42.1438 7.89429 42.0575 8.11777 41.885 8.28967C41.7125 8.46158 41.4839 8.54753 41.2596 8.54753C41.031 8.54753 40.8067 8.46158 40.6342 8.28967C39.8621 7.5204 39.6249 6.84997 39.6637 6.20533C39.7026 5.57358 40.0131 5.002 40.3409 4.38744C40.5609 3.97487 40.8024 3.53222 40.88 3.03799C40.9577 2.54807 40.8844 1.98938 40.4919 1.31465C40.3711 1.10407 40.3452 0.863403 40.4056 0.648522C40.466 0.429344 40.6083 0.235952 40.8197 0.115619C41.031 -0.00471438 41.2725 -0.0305 41.4882 0.0296665C41.7039 0.089833 41.9023 0.231654 42.023 0.442237C42.6571 1.53383 42.7865 2.43203 42.6743 3.2099C42.5622 3.98347 42.2214 4.62381 41.9023 5.21688C41.7211 5.55639 41.5486 5.87441 41.5141 6.17095C41.4796 6.45029 41.5702 6.72964 41.885 7.04336ZM17.7529 8.29397C17.5804 8.46587 17.3518 8.55183 17.1275 8.55183C16.8989 8.55183 16.6746 8.46587 16.5021 8.29397C16.3296 8.12206 16.2433 7.89429 16.2433 7.67082C16.2433 7.44304 16.3296 7.21957 16.5021 7.04766C17.1318 6.42021 16.8342 5.86582 16.4849 5.22118C16.1657 4.62381 15.8206 3.98776 15.7128 3.2099C15.6007 2.42773 15.7301 1.52953 16.3641 0.437939C16.4849 0.227356 16.6833 0.0855354 16.9032 0.0296665C17.1232 -0.0262024 17.3604 -0.00471438 17.5718 0.119916C17.7831 0.240249 17.9255 0.437939 17.9815 0.657117C18.0376 0.876295 18.016 1.11266 17.891 1.32325C17.1146 2.6641 17.6106 3.58809 18.0419 4.39174C18.374 5.0063 18.6803 5.57788 18.7191 6.20963C18.7622 6.85427 18.5207 7.5247 17.7529 8.29397Z" fill="black"/>
</svg>
