<svg width="66" height="58" viewBox="0 0 66 58" fill="none" xmlns="http://www.w3.org/2000/svg">
<path d="M65.3805 26.3851C65.7267 26.0405 65.9296 25.5653 65.9133 25.0646L65.6601 17.0134C65.6292 16.0421 64.8421 15.281 63.8685 15.281H41.4812C40.5067 15.281 39.7196 16.0421 39.6896 17.0134L39.4356 25.065C39.4192 25.5671 39.6223 26.0431 39.9688 26.3874L39.3498 46.0032C39.334 46.491 39.513 46.953 39.8537 47.3036C40.1944 47.6551 40.6516 47.8479 41.1414 47.8479H64.2083C64.6972 47.8479 65.1545 47.6551 65.4951 47.3045C65.8358 46.9538 66.0149 46.4918 65.999 46.0032L65.3805 26.3851ZM41.3946 17.0666C41.3954 17.0205 41.4345 16.9827 41.4812 16.9827H63.8685C63.9151 16.9827 63.9535 17.0196 63.9551 17.0666L64.2092 25.1182C64.21 25.1522 64.1917 25.183 64.1617 25.1979L63.1572 25.667L60.4978 24.3184C60.2429 24.1896 59.9639 24.1252 59.6857 24.1252C59.4059 24.1252 59.1268 24.1896 58.8728 24.3188L56.1368 25.667L53.484 24.3201C52.9751 24.0596 52.3662 24.06 51.8573 24.3192L49.1221 25.667L46.4677 24.3192C45.958 24.0617 45.3508 24.0612 44.8427 24.3197L42.1875 25.667H42.1092L41.1872 25.1988C41.1572 25.1838 41.1389 25.1527 41.1397 25.119L41.3946 17.0666ZM64.2083 46.1462H41.1414L41.0539 46.0564L41.6459 27.297C42.0807 27.4234 42.5515 27.3913 42.9604 27.1834L45.6948 25.8361L48.3492 27.1838C48.8589 27.4414 49.4653 27.4418 49.975 27.1834L52.7094 25.8361L55.363 27.1834C55.6179 27.3126 55.8969 27.3774 56.1767 27.3774C56.4558 27.3774 56.7348 27.3126 56.9888 27.1838L59.7249 25.8357L62.3843 27.1842C62.7961 27.3924 63.2678 27.4237 63.7034 27.2955L64.2949 46.0564L65.147 46.0298L64.2083 46.1462ZM52.6744 31.0783C48.9531 31.0783 45.9255 33.3451 45.9255 36.1311C45.9255 38.9172 48.9531 41.1839 52.6744 41.1839C56.3966 41.1839 59.4242 38.9172 59.4242 36.1311C59.4242 33.3451 56.3966 31.0783 52.6744 31.0783ZM52.6744 39.4822C49.9409 39.4822 47.6313 37.9475 47.6313 36.1311C47.6313 34.3147 49.9409 32.78 52.6744 32.78C55.4088 32.78 57.7184 34.3147 57.7184 36.1311C57.7184 37.9475 55.4088 39.4822 52.6744 39.4822ZM56.2217 52.3514H51.4825V51.5147C51.4825 50.5766 50.7171 49.813 49.7768 49.813H46.9624C46.6634 49.813 46.3686 49.8919 46.1087 50.0415L44.3749 51.0404C44.0901 50.4957 43.525 50.1188 42.8679 50.1188H34.4449L34.0126 44.6023C33.5612 38.8607 28.8795 34.2666 23.1217 33.9159C22.8379 33.9024 22.554 33.9693 22.2905 34.0988V32.5767C22.7616 32.3508 23.2204 32.0954 23.6639 31.8062H29.55C30.0122 31.8062 30.4612 31.6151 30.7818 31.2819C31.1017 30.9487 31.2741 30.4925 31.2541 30.0305L31.0828 26.0818C31.1056 26.0704 31.1299 26.0667 31.1525 26.0546C31.9804 25.6134 32.6184 24.7812 32.9032 23.7713C33.4338 21.8909 32.6217 20.0205 31.055 19.5124C30.97 19.485 30.8821 19.4757 30.7955 19.4575L30.7624 18.6955C30.7774 18.5286 30.803 18.3667 30.8143 18.1983C30.8264 18.0138 30.8002 17.836 30.7544 17.6649C31.2001 17.0811 31.5121 16.3757 31.6239 15.5859L31.6955 15.0554C31.7435 14.6985 31.6803 14.3524 31.5345 14.0526C31.8669 10.9783 30.9215 7.85802 28.8603 5.39888C26.7611 2.89418 23.7164 1.29815 20.3402 0.876149C19.6852 0.339533 18.6805 0 17.4968 0C16.313 0 15.3081 0.339585 14.6531 0.876357C11.276 1.29867 8.2312 2.89465 6.13236 5.39929C4.06741 7.86311 3.12192 10.9914 3.45878 14.0525C3.31287 14.3525 3.24962 14.6986 3.29761 15.0554L3.37007 15.5892C3.47778 16.3512 3.78236 17.0265 4.20427 17.5981C4.18261 17.7224 4.171 17.8498 4.1784 17.9806C4.1899 18.1836 4.21858 18.38 4.23571 18.5809L4.19766 19.4573C4.11119 19.4756 4.02337 19.4849 3.93852 19.5124C2.37144 20.0205 1.55978 21.8909 2.09033 23.7713C2.37518 24.7808 3.01318 25.613 3.84066 26.0546C3.86325 26.0667 3.88761 26.0704 3.91036 26.0818L3.73905 30.031C3.71906 30.4925 3.89147 30.9479 4.21171 31.2819C4.53196 31.6151 4.98089 31.8062 5.44356 31.8062H11.4107C11.8286 32.0797 12.2614 32.3192 12.7026 32.5366V34.1298C12.4229 33.9755 12.1166 33.8989 11.8027 33.9159C6.04449 34.2666 1.36239 38.8607 0.911791 44.6023L0.00518716 56.1645C-0.0318765 56.6365 0.130954 57.1059 0.452867 57.4533C0.77478 57.8006 1.23121 58 1.70554 58H42.8679C43.2339 58 43.5715 57.8819 43.8497 57.6852L56.2217 57.6859C57.162 57.6859 57.9275 56.9223 57.9275 55.9842V54.0532C57.9275 53.115 57.162 52.3514 56.2217 52.3514ZM25.7583 30.1045C26.8952 28.9781 27.8777 27.617 28.6734 26.0764C28.8044 26.1452 28.935 26.2151 29.0794 26.2619C29.1804 26.2946 29.2834 26.3156 29.3864 26.3353L29.55 30.1045H25.7583ZM30.527 21.131C31.1966 21.3479 31.5331 22.3458 31.2607 23.3101C31.1033 23.8681 30.7627 24.333 30.3487 24.554C30.173 24.6475 29.9023 24.7384 29.6066 24.6433C29.5279 24.6178 29.4547 24.5796 29.3856 24.5338C29.8194 23.459 30.1636 22.3142 30.4114 21.1127C30.4501 21.1193 30.4872 21.1181 30.527 21.131ZM17.4968 1.70172C18.7099 1.70172 19.4049 2.19777 19.4266 2.36977C19.4049 2.54177 18.7099 3.03783 17.4968 3.03783C16.282 3.03783 15.5869 2.54136 15.567 2.37019C15.5869 2.19819 16.282 1.70172 17.4968 1.70172ZM7.44125 6.4907C9.06321 4.55513 11.3472 3.24769 13.9126 2.72296C14.1612 3.89263 15.6109 4.73954 17.4968 4.73954C19.3826 4.73954 20.8325 3.89263 21.081 2.72291C23.6459 3.24758 25.9295 4.55498 27.5519 6.49028C29.2643 8.53392 30.0914 11.1052 29.8823 13.6237C25.7703 13.0782 21.6333 12.8052 17.4968 12.8052C13.3606 12.8052 9.22489 13.0778 5.11415 13.6233C4.90759 11.0873 5.73466 8.52686 7.44125 6.4907ZM29.933 15.3558C29.7304 16.7751 28.5132 17.7731 27.1438 17.6196C20.7451 16.9066 14.2552 16.9071 7.85104 17.6192C6.48842 17.7696 5.26032 16.7733 5.06001 15.357L5.05986 15.356C13.3155 14.2351 21.6769 14.2351 29.933 15.3558ZM4.64482 24.554C4.23087 24.333 3.88938 23.8681 3.73197 23.3101C3.46003 22.3458 3.7961 21.3479 4.46574 21.131C4.51056 21.1165 4.55226 21.1171 4.59562 21.1105C4.84684 22.3016 5.20546 23.4342 5.64491 24.5058C5.56516 24.5644 5.48 24.613 5.38651 24.6433C5.09083 24.7384 4.81972 24.647 4.64482 24.554ZM5.44314 30.1045L5.6066 26.3355C5.70977 26.3157 5.8129 26.2946 5.91373 26.2619C6.07521 26.2096 6.22325 26.1342 6.36802 26.0544C7.17556 27.5973 8.16686 28.9711 9.31516 30.1045H5.44314ZM5.98505 18.999C6.61705 19.2626 7.31236 19.3908 8.03927 19.3105C14.318 18.6125 20.683 18.6117 26.9539 19.3105L26.9547 19.3109C27.1113 19.3279 27.267 19.3367 27.4211 19.3367C27.9826 19.3367 28.5191 19.2164 29.0153 19.0093C28.1676 26.3534 23.2516 31.9832 17.5047 31.9832C11.7252 31.9832 6.82903 26.3637 5.98505 18.999ZM20.5847 33.223V35.1056C19.7032 35.4467 18.608 35.6417 17.4622 35.6417C16.3452 35.6417 15.2777 35.4554 14.4084 35.1305V33.2023C15.4061 33.5063 16.4397 33.6849 17.5047 33.6849C18.567 33.6849 19.5946 33.5143 20.5847 33.223ZM42.8679 56.2983H28.5838V45.5313C28.5838 45.061 28.2024 44.6804 27.7309 44.6804C27.2595 44.6804 26.8781 45.061 26.8781 45.5313V56.2983H8.11506V45.5313C8.11506 45.061 7.73318 44.6804 7.26218 44.6804C6.79118 44.6804 6.4093 45.061 6.4093 45.5313V56.2983H1.70595L2.61256 44.7353C2.99694 39.8345 6.99274 35.9134 11.9135 35.6401C13.1374 36.707 15.2117 37.3434 17.4622 37.3434C19.7127 37.3434 21.7866 36.707 23.0172 35.6143C27.9308 35.9134 31.9271 39.8345 32.3119 44.7353L32.8058 51.0361C32.8407 51.479 33.2105 51.8205 33.6561 51.8205H42.8679V56.2983ZM56.2217 55.9842L44.5737 55.9835V52.891L46.9624 51.5147H49.7768V52.3514C49.7768 53.2895 50.5422 54.0532 51.4825 54.0532H56.2217V55.9842ZM13.2388 20.8427C13.2388 21.5515 12.6631 22.1257 11.9529 22.1257C11.2426 22.1257 10.6669 21.5515 10.6669 20.8427C10.6669 20.1344 11.2426 19.5598 11.9529 19.5598C12.6631 19.5598 13.2388 20.1344 13.2388 20.8427ZM21.7545 20.8427C21.7545 20.1344 22.3302 19.5598 23.0404 19.5598C23.7507 19.5598 24.3264 20.1344 24.3264 20.8427C24.3264 21.5515 23.7507 22.1257 23.0404 22.1257C22.3302 22.1257 21.7545 21.5515 21.7545 20.8427ZM17.4968 28.9582C15.6502 28.9582 14.2039 27.9071 14.2039 26.5652C14.2039 26.0953 14.5858 25.7144 15.0568 25.7144C15.5278 25.7144 15.9097 26.0953 15.9097 26.5652C15.9097 26.8024 16.5277 27.2565 17.4968 27.2565C18.4658 27.2565 19.0838 26.8024 19.0838 26.5652C19.0838 26.0953 19.4657 25.7144 19.9367 25.7144C20.4077 25.7144 20.7896 26.0953 20.7896 26.5652C20.7896 27.9071 19.3433 28.9582 17.4968 28.9582Z" fill="black"/>
</svg>
