<svg width="181" height="258" viewBox="0 0 181 258" fill="none" xmlns="http://www.w3.org/2000/svg">
<path d="M179.83 127.312C179.216 126.978 178.515 126.834 177.819 126.899C176.392 127.098 174.966 127.483 173.539 127.812C171.323 128.236 169.17 128.946 167.135 129.923C164.28 131.384 161.236 132.44 158.09 133.062C154.568 133.899 151.099 134.952 147.705 136.214C145.48 136.985 143.426 138.268 141.172 138.982C139.786 139.353 138.519 140.076 137.492 141.079C135.911 142.515 134.196 143.794 132.37 144.902C128.699 147.422 125.028 149.923 121.358 152.405C120.345 153.09 119.275 153.675 118.233 154.288C118.233 153.76 118.647 153.532 118.832 153.232C120.761 150.509 123.27 148.249 126.179 146.614C128.096 145.435 129.949 144.153 131.728 142.776C133.824 141.047 136.141 139.608 138.618 138.496C139.432 138.145 140.184 137.662 140.844 137.07C143.542 134.174 146.518 131.55 149.731 129.239C150.253 128.875 150.73 128.454 151.157 127.983C154.824 124.374 157.363 119.909 160.359 115.787C162.512 112.805 164.638 109.781 166.892 106.899C169.664 103.699 171.622 99.8773 172.598 95.7584C172.859 95.0341 172.953 94.2602 172.874 93.4949C172.796 92.7295 172.545 91.991 172.141 91.3355C171.417 91.5782 170.734 91.9289 170.116 92.377C166.007 96.5141 161.97 100.708 157.891 104.873C155.622 107.213 153.34 109.538 151.015 111.835C150.102 112.762 149.06 113.561 148.162 114.46C145.523 116.928 142.912 119.424 140.259 121.892C139.838 122.239 139.395 122.558 138.932 122.848C139.607 120.66 140.441 118.523 141.429 116.457C141.985 115.215 142.541 113.961 143.155 112.747C144.381 110.38 145.694 108.041 146.892 105.615C148.475 102.42 149.859 99.1101 151.571 95.9867C153.159 92.9837 154.225 89.7322 154.723 86.3719C155.109 84.0176 155.708 81.7217 156.264 79.4104C156.592 78.0833 157.092 76.8001 157.448 75.4729C158.004 73.433 157.448 72.877 155.323 72.8196C153.525 75.6726 151.728 78.5256 149.931 81.3786C148.133 84.2317 146.207 87.2987 144.381 90.2807C143.327 92.4056 142.066 94.4226 140.616 96.3001C140.361 96.6307 140.145 96.9899 139.974 97.3702C138.647 99.6815 137.263 101.977 135.993 104.332C134.567 106.956 133.284 109.624 131.942 112.277C131.4 113.715 130.667 115.073 129.76 116.314C129.674 115.829 129.631 115.615 129.589 115.401C129.303 113.818 129.061 112.234 128.733 110.68C128.504 109.567 128.062 108.511 127.891 107.399C127.549 105.287 127.306 103.119 127.078 101.051C126.802 98.8626 126.855 96.646 127.235 94.4742C127.402 93.0525 127.402 91.6164 127.235 90.1947C127.235 89.3673 127.006 88.5542 126.936 87.7268C126.765 85.9152 126.693 84.075 126.436 82.2634C126.179 80.4519 125.794 78.7683 125.394 77.0418C125.238 76.5087 124.965 76.0166 124.596 75.6019C124.083 75.0019 123.583 75.1022 123.169 75.7873C122.755 76.4714 122.584 76.9425 122.214 77.4699C120.502 79.8815 119.66 82.8768 118.262 85.5875C118.182 85.7489 118.129 85.9219 118.105 86.1005C117.399 88.8723 117.369 91.7741 118.019 94.5602C118.738 97.1428 118.85 99.8573 118.348 102.491C117.934 104.702 117.82 106.956 117.563 109.182C117.563 109.538 117.463 109.894 117.391 110.237C116.855 113.225 116.73 116.273 117.021 119.295C117.164 121.82 117.763 124.317 118.077 126.827C118.54 129.408 118.54 132.051 118.077 134.63C117.378 138.255 116.332 141.805 114.952 145.229C114.588 146.201 114.109 147.125 113.526 147.983C111.557 150.507 109.475 152.947 107.564 155.501C105.281 158.525 103.141 161.649 100.901 164.702C100.273 165.572 99.4746 166.356 98.8182 167.17C99.2367 165.112 99.7651 163.078 100.402 161.079C102.428 154.545 104.497 148.026 106.493 141.478C107.92 136.814 109.246 132.12 110.631 127.441C111.129 125.772 111.615 124.117 112.128 122.477C112.222 122.299 112.281 122.104 112.3 121.904C112.318 121.703 112.297 121.501 112.238 121.309C112.178 121.116 112.081 120.938 111.952 120.784C111.823 120.629 111.664 120.501 111.486 120.408C111.218 120.597 110.974 120.817 110.759 121.065C109.204 123.389 107.634 125.686 106.179 128.068C104.297 131.093 102.428 134.132 100.701 137.241C99.275 139.951 97.9345 142.776 96.5223 145.529C95.1101 148.282 93.5259 150.822 92.3564 153.589C89.9888 159.181 87.8056 164.844 85.6377 170.507C84.7902 172.488 84.3392 174.615 84.3115 176.77C84.3 179.099 83.764 181.395 82.7416 183.489C82.2142 184.687 81.5865 185.828 81.0724 187.026C79.7893 190.022 78.4765 193.018 77.2926 196.056C76.5846 197.888 76.0028 199.766 75.5518 201.677C75.2881 203.075 74.6862 204.388 73.7976 205.5C71.7176 207.888 70.2184 210.724 69.4187 213.787C69.1684 214.679 68.5865 215.439 67.7925 215.913C67.7925 215.385 67.8919 215.1 67.9492 214.815C68.5483 212.464 69.0241 210.083 69.3757 207.682C69.6595 205.019 70.1898 202.388 70.9589 199.822C71.237 198.793 71.3946 197.735 71.4299 196.669C71.515 195.243 71.344 193.931 71.4299 192.575C71.8437 187.369 72.4427 182.176 72.7418 176.97C72.9701 173.075 72.8708 169.152 72.8851 165.243C72.8851 163.417 72.8851 161.577 72.7561 159.751C72.6386 159.186 72.4571 158.635 72.2144 158.111C71.6296 158.767 71.1299 159.109 70.9302 159.537C70.0178 161.791 69.1903 164.088 68.3056 166.371C67.4208 168.652 66.5657 170.935 65.6093 173.175C64.3538 176.128 62.8423 178.981 61.7578 181.991C59.5612 188.661 58.4385 195.639 58.4338 202.661C58.4758 206.149 58.7232 209.63 59.1761 213.089C59.4465 215.799 59.8746 218.495 60.3026 221.191C60.7097 222.975 60.7097 224.828 60.3026 226.612C59.5469 229.237 59.1045 231.933 57.4496 234.244C57.3216 234.415 57.3216 234.686 57.2212 234.9C56.6652 236.401 56.0317 237.873 55.3247 239.308C53.0851 243.502 50.6458 247.596 48.4912 251.833C47.3924 253.987 47.8348 256.113 50.3028 256.825C50.8732 256.997 51.4589 257.14 52.0293 257.296C52.3714 257.417 52.744 257.419 53.0879 257.302C53.4319 257.186 53.7271 256.958 53.9259 256.654C54.6941 255.677 55.3848 254.642 55.9944 253.559C57.4209 250.706 58.6478 247.853 60.1316 245C61.7578 241.961 63.598 239.037 65.3389 236.055C66.3192 234.133 67.9989 232.658 70.0321 231.933C71.9363 231.274 73.7488 230.372 75.4238 229.252C78.4478 227.239 81.3008 224.972 84.2398 222.875C86.618 221.086 88.8069 219.06 90.7733 216.826C92.4663 215 94.2205 213.231 96.0369 211.519C98.6329 209.08 101.329 206.755 103.94 204.387C105.011 203.371 106.011 202.285 106.936 201.134C108.276 199.479 109.432 197.668 110.845 196.056C112.857 193.786 114.617 191.304 116.094 188.653C116.469 187.983 116.77 187.275 116.992 186.542C117.319 185.299 117.892 184.136 118.678 183.121C119.466 182.106 120.45 181.261 121.572 180.636C122.642 180.146 123.61 179.459 124.425 178.61C125.372 177.834 126.443 177.222 127.591 176.799C129.618 175.686 131.629 174.53 133.669 173.446C135.223 172.604 136.849 171.863 138.404 171.007C140.858 169.652 143.183 168.068 145.709 166.884C149.29 165.045 152.64 162.79 155.694 160.165C156.036 159.908 156.178 159.409 156.521 158.853C155.793 158.453 155.223 157.882 154.595 157.826C153.177 157.603 151.734 157.603 150.316 157.826C145.665 158.81 141.057 159.965 136.45 161.093C134.315 161.83 132.126 162.403 129.902 162.804C126.604 163.267 123.423 164.35 120.53 166C118.618 166.927 116.736 167.94 114.824 168.853C112.414 170.008 109.946 171.035 107.549 172.234C104.215 174.067 101.115 176.299 98.3195 178.881C97.7921 179.323 97.2494 179.737 96.4793 180.307C96.5653 179.765 96.4793 179.566 96.6217 179.438C99.0466 176.171 101.23 172.604 104.396 169.751C107.236 167.335 110.522 165.498 114.068 164.345C116.094 163.66 118.148 163.047 120.159 162.333C123.598 161.002 127.131 159.929 130.73 159.124C133.214 158.767 135.602 157.913 137.749 156.614C141.229 154.331 144.653 151.977 148.119 149.68C150.462 148.044 153.002 146.712 155.68 145.715C157.316 145.168 158.878 144.421 160.33 143.489C165.651 139.994 170.9 136.357 176.136 132.79C177.445 131.873 178.698 130.877 179.887 129.809C180.108 129.68 180.29 129.496 180.414 129.273C180.539 129.05 180.601 128.799 180.595 128.544C180.589 128.289 180.515 128.041 180.381 127.824C180.246 127.608 180.056 127.431 179.83 127.312ZM141.828 140.579C142.242 139.966 143.34 139.838 144.124 139.48C142.98 141.8 141.423 143.894 139.531 145.657L139.204 145.458C139.984 143.783 140.86 142.154 141.828 140.579ZM137.02 144.388C137.634 143.133 138.247 141.849 140.002 141.535C138.932 143.489 137.934 145.387 136.835 147.241C136.646 147.465 136.413 147.648 136.151 147.778C135.888 147.907 135.602 147.982 135.309 147.997C135.88 146.813 136.436 145.6 137.02 144.388ZM135.466 144.502C134.84 146.121 134.101 147.694 133.255 149.21C132.784 149.966 131.685 150.336 130.872 150.879C131.078 149.528 131.603 148.246 132.401 147.137C133.2 146.029 134.251 145.125 135.466 144.502ZM149.089 115.814L149.445 115.986C149.004 116.956 148.632 117.955 148.119 118.839C147.605 119.723 147.734 121.022 145.979 121.563C147.234 119.538 147.805 117.484 149.089 115.814ZM146.522 123.105C149.06 121.032 151.444 118.777 153.654 116.357C154.838 115.201 155.979 113.989 157.135 112.79C157.52 112.377 157.876 111.934 158.561 111.222C157.876 111.222 157.463 111.222 157.277 111.308C156.262 112.129 155.307 113.025 154.424 113.989C153.211 115.449 151.793 116.727 150.216 117.784C150.772 116.428 151.314 115.073 151.899 113.732C152.079 113.427 152.321 113.164 152.613 112.961C154.868 111.027 156.945 108.893 158.817 106.586C161.015 104.188 163.311 101.864 165.579 99.4531C166.806 98.169 168.047 96.9135 169.303 95.658C169.588 95.3733 169.916 95.145 170.501 94.6452C170.162 96.5266 169.401 98.3066 168.276 99.8525C166.592 102.706 164.766 105.559 162.912 108.254C161.97 109.681 160.83 110.851 159.774 112.148C159.559 112.352 159.353 112.567 159.16 112.79C157.092 115.643 155.023 118.496 153.012 121.349C151.596 123.4 149.923 125.26 148.033 126.884C144.98 129.523 142.142 132.391 139.146 135.087C138.462 135.628 137.715 136.083 136.921 136.442C135.894 136.894 134.894 137.403 133.925 137.969C132.014 139.281 130.188 140.721 128.319 142.092C127.62 142.605 126.893 143.076 126.179 143.518L125.822 143.133C126.578 142.02 127.249 140.85 128.091 139.78C130.27 136.74 132.993 134.129 136.122 132.077C139.232 129.978 142.103 127.543 144.681 124.816C145.248 124.198 145.863 123.624 146.522 123.105ZM145.237 120.009C144.097 122.006 144.139 124.787 141.386 125.715C142.413 123.675 142.827 121.164 145.237 120.009ZM139.888 124.816C139.503 125.972 139.189 126.927 138.861 127.869C138.776 128.14 138.733 128.511 138.533 128.654C136.999 129.986 135.32 131.139 133.525 132.092C135.209 129.025 136.892 126.456 139.888 124.816ZM126.022 107.698H126.407C126.907 110.123 127.42 112.534 127.834 114.959C128.076 116.092 128.243 117.241 128.333 118.397C128.469 119.351 128.406 120.322 128.148 121.25C127.324 123.417 126.322 125.511 125.152 127.512C125.088 126.848 125.088 126.179 125.152 125.515C125.428 124.104 125.457 122.657 125.238 121.236C125.009 119.182 124.966 117.099 124.824 115.03C124.827 114.622 124.779 114.214 124.682 113.818C124.054 111.493 125.266 109.695 126.022 107.769V107.698ZM125.48 104.76C125.822 106.186 124.867 106.856 124.367 107.755C124.421 106.666 124.81 105.62 125.48 104.76ZM125.081 100.993C125.523 102.234 125.081 103.105 123.811 103.846L125.081 100.993ZM121.201 124.974C120.802 121.563 120.431 118.14 120.273 114.717C120.174 110.328 120.431 105.939 121.044 101.592C121.138 99.5859 121.104 97.5756 120.944 95.573C120.944 93.1337 120.944 90.6944 121.044 88.2685C121.072 87.9752 121.072 87.679 121.044 87.3847C120.602 85.2301 121.543 83.4329 122.471 81.607C122.955 80.6372 123.369 79.6244 123.811 78.626H124.182C124.496 80.8082 124.824 82.9905 125.095 85.1881C125.459 87.4124 125.697 89.6549 125.808 91.9069C126.015 94.3261 125.684 96.7626 124.838 99.0394C124.789 99.2114 124.711 99.3757 124.61 99.5238C122.484 101.864 122.471 104.659 122.784 107.57C122.955 109.225 122.87 110.894 122.969 112.548C123.07 114.203 123.255 115.729 123.398 117.313C123.54 118.896 123.725 120.365 123.783 121.906C123.783 123.204 123.669 124.502 123.698 125.814C123.698 127.584 123.883 129.352 123.939 131.135C123.976 131.654 123.903 132.174 123.725 132.662C122.627 135.03 121.458 137.37 120.302 139.709C120.237 139.835 120.144 139.944 120.03 140.028C119.917 140.112 119.785 140.168 119.645 140.194C119.729 139.712 119.843 139.235 119.988 138.768C121.482 134.33 121.897 129.603 121.201 124.974ZM98.2908 146.927C99.4039 144.431 100.473 141.921 101.629 139.438C102.285 138.012 103.056 136.699 103.783 135.358C105.209 132.89 106.636 130.437 108.062 127.983C108.443 127.224 108.922 126.518 109.489 125.886C109.424 126.368 109.328 126.843 109.204 127.312C106.936 134.83 104.61 142.32 102.313 149.78C101.387 152.79 100.658 155.886 99.6743 158.881C98.4332 162.662 97.021 166.385 95.6519 170.136C94.9104 172.148 94.1117 174.131 93.3406 176.128C93.2422 176.477 93.0836 176.804 92.8705 177.098C91.2013 179.01 90.716 181.534 89.5035 183.689C88.291 185.842 87.2352 187.968 86.08 190.136C85.7332 190.767 85.245 191.309 84.6536 191.719C85.0319 190.333 85.5087 188.974 86.08 187.654C86.8836 186.135 87.5476 184.545 88.0626 182.904C88.6187 181.093 89.4891 179.366 90.1742 177.597C91.0016 175.558 91.8434 173.532 92.6708 171.492C93.4763 169.161 94.4298 166.884 95.5238 164.673C95.8907 163.683 96.1401 162.654 96.2652 161.606C96.8213 159.48 97.3354 157.326 97.9631 155.243C98.8183 152.391 99.7317 149.452 100.701 146.585C101.144 145.258 101.772 143.988 102.313 142.691L101.714 142.448L98.5192 149.795C98.2373 149.377 98.0682 148.894 98.0281 148.391C97.988 147.888 98.0787 147.384 98.2908 146.927ZM89.9888 185.728L91.6293 182.789C91.4583 184.601 91.2443 184.986 89.9888 185.757V185.728ZM96.722 150.208C96.8643 152.034 97.7634 153.589 96.4793 155.286C96.3512 153.574 95.2668 152.034 96.722 150.237V150.208ZM94.9248 154.06C95.5659 155.358 94.9247 156.585 95.0814 157.754C95.3595 159.039 95.2601 160.376 94.7958 161.606C94.34 160.101 94.0152 158.559 93.826 156.999C94.0161 155.962 94.3878 154.966 94.9248 154.06ZM80.5594 193.003C82.2716 189.28 84.1825 185.642 85.738 181.863C86.4374 179.906 86.9161 177.877 87.1645 175.814C87.968 172.094 89.085 168.448 90.5019 164.916C91.0446 163.347 91.7144 161.82 92.3564 160.28C92.5456 159.92 92.7654 159.576 93.0129 159.253C93.4266 161.064 93.8117 162.647 94.1537 164.231C94.1384 164.526 94.0552 164.814 93.9119 165.072C92.3278 169.166 90.8019 173.289 89.1614 177.369C88.1343 179.951 86.9505 182.476 85.866 185.043C85.1953 186.627 84.5676 188.239 83.9398 189.837C82.6853 193.174 80.8986 196.286 78.6475 199.052C78.6246 198.574 78.6628 198.094 78.7622 197.626C79.3182 196.027 79.8323 194.459 80.5594 192.946V193.003ZM68.2053 192.077C67.4925 190.65 68.2053 189.224 70.1888 187.668C70.7162 189.722 69.005 190.607 68.2053 192.019V192.077ZM70.6025 183.717C70.6025 184.373 70.6025 185.029 70.6025 185.728L68.5053 186.912L68.2626 186.698L70.1888 183.646L70.6025 183.717ZM51.6729 255.342L50.2464 253.431C50.9878 252.261 51.9433 252.146 53.3411 252.418L51.6729 255.342ZM115.338 172.034C116.72 169.747 118.884 168.039 121.429 167.226C122.139 166.927 122.83 166.584 123.498 166.2C125.201 165.339 127.039 164.774 128.932 164.531C131.201 164.131 133.455 163.632 135.68 163.104C140.388 161.849 145.066 160.479 149.788 159.253C150.578 159.189 151.372 159.252 152.142 159.438L152.228 159.951C151.92 160.197 151.596 160.421 151.257 160.622C146.279 163.189 141.271 165.729 136.336 168.325C135.452 168.796 134.681 169.494 133.84 170.023C132.271 170.992 130.701 171.919 129.118 172.876C127.848 173.631 126.493 174.302 125.281 175.13C120.619 178.317 115.625 180.99 110.388 183.104C108.751 183.791 107.156 184.572 105.609 185.443C102.57 187.184 99.66 189.152 96.5653 190.792C93.4696 192.433 90.4589 193.645 87.0641 195.2C87.3212 194.63 87.3919 194.145 87.6776 193.917C90.5306 191.62 93.5116 189.294 96.5366 187.141C98.0625 186.042 99.832 185.286 101.458 184.288L111.444 178.439C112.214 177.997 113.013 177.597 113.797 177.169C116.726 175.581 119.645 173.993 122.556 172.405C122.942 172.165 123.312 171.902 123.669 171.62L123.498 171.292L113.426 175.7C114.153 174.245 114.753 173.146 115.338 172.034ZM87.5352 206.584C85.4237 208.738 82.9987 210.592 80.7448 212.618C79.1186 214.045 77.5067 215.571 75.9521 217.112C74.7817 218.267 73.6839 219.508 72.5564 220.72C72.3998 220.906 72.2717 221.134 72.1284 221.334C71.986 221.148 71.858 220.949 71.729 220.763C73.8109 216.564 76.1948 212.521 78.8615 208.666C79.0545 208.444 79.2361 208.21 79.4042 207.968C80.8221 205.358 82.7646 203.07 85.1102 201.249C88.805 198.089 92.7454 195.227 96.893 192.69C99.3189 191.456 101.815 190.365 104.368 189.423C106.436 188.51 108.476 187.554 110.516 186.57C111.5 186.114 112.485 185.614 113.469 185.144L113.655 185.457L108.519 189.395L96.0656 198.938C93.0415 201.278 90.1905 203.833 87.5352 206.584ZM87.2782 211.363C87.1358 210.706 87.0068 210.164 86.8501 209.423L90.6453 205.714C90.7733 208.538 88.719 209.693 87.2782 211.363ZM85.6806 210.92C84.8389 212.532 84.4539 214.458 82.6136 215.428C83.6264 213.973 83.6407 211.748 85.6806 210.92ZM106.936 176.042C107.15 175.757 107.521 175.515 107.591 175.215C107.934 173.46 109.404 173.018 110.744 172.362C112.085 171.706 113.241 171.307 114.496 170.778L114.752 171.035C112.842 173.374 111.429 176.099 109.046 178.082C109.589 176.157 111.144 174.716 111.714 172.833C111.62 172.749 111.52 172.673 111.415 172.604C111.191 172.722 110.984 172.871 110.802 173.047C109.474 174.787 108.148 176.542 106.85 178.296C106.561 178.673 106.331 179.092 106.165 179.537C105.866 180.322 105.267 180.55 104.353 180.764C104.95 179.059 105.823 177.465 106.936 176.042ZM101.658 180.735C102.212 179.881 102.69 178.979 103.084 178.039C103.597 176.299 104.995 175.657 106.578 175.087L101.158 182.904L100.773 182.69C101.03 182.034 101.329 181.377 101.658 180.735ZM102.099 178.31L99.5463 182.12C99.2186 182.618 98.9186 183.132 98.5765 183.546C98.3816 183.905 98.115 184.222 97.7921 184.473C93.3922 187.18 89.3926 190.488 85.909 194.302C85.4666 194.773 85.181 195.372 84.7959 195.871C83.9971 196.898 83.184 197.925 82.3566 198.923C81.5292 199.922 80.7447 200.279 80.9301 201.591C80.9301 202.048 80.3454 202.575 80.032 203.018L78.7335 204.929C77.6634 206.57 76.7079 208.281 75.5098 209.822C74.282 211.576 73.2348 213.449 72.3854 215.414C70.7535 218.83 68.8454 222.109 66.6794 225.214C66.4233 225.549 66.2169 225.919 66.066 226.313C65.98 226.541 66.066 226.998 66.1653 227.083C66.4587 227.254 66.8026 227.314 67.1361 227.254C67.3921 227.254 67.5928 226.897 67.8202 226.683C69.0642 225.518 70.227 224.269 71.3009 222.946C72.9835 221.021 74.8152 219.233 76.7786 217.597C78.4335 216.099 80.2173 214.744 82.2716 213.046C82.2333 213.448 82.1522 213.846 82.0289 214.23C81.3926 215.217 80.8441 216.257 80.3883 217.34C79.9756 218.588 79.1826 219.675 78.1201 220.45C75.7945 222.276 73.4412 224.059 71.1013 225.87C70.9427 226.033 70.7993 226.209 70.6732 226.399C71.729 226.541 72.2994 225.899 72.9272 225.457C75.5098 223.674 78.0628 221.833 80.6167 220.022C80.7161 220.022 80.8584 219.922 80.9157 219.837C82.3423 217.383 84.7252 215.971 86.6218 214.002C88.0483 212.575 89.4748 210.992 90.9873 209.594C92.4988 208.196 93.8403 207.268 95.2668 206.042C97.1214 204.372 98.9043 202.632 100.658 200.878C101.19 200.279 101.667 199.634 102.085 198.952C101.016 198.681 100.658 199.294 100.217 199.722L92.5131 207.155C92.3421 207.326 92.1568 207.482 91.8434 207.754C91.8434 206.641 91.8434 205.842 91.7287 204.773C99.1422 198.26 106.883 192.132 114.924 186.413C114.363 188.003 113.376 189.41 112.071 190.479C110.228 192.172 108.676 194.158 107.478 196.356C106.279 198.125 104.928 199.786 103.441 201.32C102.099 202.746 100.588 203.931 99.1613 205.286C96.9073 207.397 94.7251 209.565 92.4425 211.677C89.0468 214.73 85.7093 217.867 82.1283 220.692C79.2561 223.184 76.0372 225.246 72.5707 226.811C71.8025 227.146 71.0755 227.567 70.4028 228.067C68.0486 229.577 65.5376 230.825 62.913 231.79C62.5279 232.29 62.1429 232.789 61.6861 233.417L62.3282 234.6C59.5899 239.822 56.8792 245.014 54.0692 250.392H51.5869C51.7207 249.982 51.8831 249.582 52.0723 249.194C54.0119 246.141 56.0661 243.159 57.8777 240.036C58.7376 238.272 59.4991 236.463 60.1603 234.615C60.3552 233.953 60.7068 233.347 61.1864 232.85C61.6661 232.353 62.2585 231.98 62.913 231.762C62.7477 231.776 62.5805 231.776 62.4142 231.762C62.2289 231.681 62.0473 231.591 61.8725 231.491C62.0855 230.664 62.3569 229.779 62.5566 228.894C62.7458 228.105 62.8833 227.304 62.9703 226.498C63.127 224.744 63.256 222.974 63.341 221.206C63.341 220.15 63.341 219.08 63.341 218.025C63.3936 217.689 63.4795 217.359 63.598 217.04V216.926C62.4572 215.5 62.7706 213.702 62.6425 212.076C62.4715 209.779 62.5422 207.454 62.6425 205.143C62.6425 200.992 62.6426 196.84 62.9703 192.704C63.1021 190.147 63.533 187.615 64.2544 185.158C66.3794 178.339 68.748 171.591 71.0869 164.644C71.5885 165.716 71.7625 166.913 71.5866 168.082C71.4586 172.362 71.2446 176.499 71.0726 180.707C71.0726 181.506 70.9589 182.133 70.0455 182.575C69.6327 182.746 69.3757 183.303 69.047 183.689L68.705 183.56C68.876 182.618 69.09 181.677 69.219 180.707C69.347 179.737 69.39 178.839 69.4751 177.854C68.5483 177.626 68.3199 178.154 68.2339 178.796C67.9205 181.05 67.5498 183.275 67.3215 185.529C66.8361 190.08 66.494 194.644 65.9657 199.18C65.6236 202.133 65.0532 205.043 64.6395 207.982C64.0557 210.906 63.727 213.874 63.6553 216.855V216.926L65.0819 215.628C64.9223 212.896 65.2262 210.156 65.98 207.525C66.8323 203.576 67.352 199.564 67.5355 195.529C67.5355 193.831 68.6189 193.189 70.0177 192.233C69.9958 193.411 69.9146 194.587 69.7751 195.757C69.4894 197.454 68.9907 199.109 68.7193 200.807C68.2913 203.446 68.0199 206.099 67.6062 208.738C67.3788 210.164 66.9651 211.591 66.6507 213.017C66.4224 214.059 66.2227 215.1 66.0086 216.142C65.5949 218.239 65.1105 220.321 64.7675 222.433C64.5821 223.588 64.8965 223.773 65.8949 223.674C67.2068 221.12 68.4059 218.666 69.7321 216.284C71.3153 213.431 73.0131 210.578 74.668 207.725C75.1514 206.627 75.9512 205.699 76.9649 205.057C77.1378 204.95 77.286 204.806 77.3997 204.637C77.5124 204.467 77.5879 204.275 77.6204 204.073C77.8774 201.22 79.3899 198.853 81.0304 196.27C81.5292 197.526 80.374 198.211 80.6731 199.38C86.5167 191.148 93.7705 184.015 102.099 178.31ZM103.126 166.185C103.126 166.427 103.298 166.742 103.126 166.884C102.461 167.881 101.732 168.834 100.944 169.737C98.3252 172.714 96.0302 175.962 94.0973 179.423C93.6005 180.206 93.0272 180.937 92.3851 181.606C94.6095 176.632 97.4156 171.939 100.744 167.626C101.686 167.797 101.928 167.041 102.299 166.456H100.872L102.813 164.202C103.106 163.914 103.379 163.604 103.626 163.275C106.479 158.996 109.546 154.986 112.599 150.921C113.141 150.194 114.025 149.709 114.624 149.024C115.216 148.296 115.763 147.534 116.265 146.742C115.923 148.181 115.249 149.519 114.297 150.651C113.338 151.796 112.475 153.017 111.714 154.302C112.542 154.815 113.141 154.616 113.469 154.103C114.226 152.76 115.336 151.65 116.679 150.893C116.822 150.786 116.927 150.636 116.978 150.465C117.49 149.469 117.897 148.422 118.191 147.341C118.647 144.916 120.217 143.061 121.258 140.95C122.299 138.839 123.768 137.041 124.353 134.745C124.496 134.202 125.095 133.774 125.437 133.319C125.444 132.4 125.554 131.487 125.765 130.594C126.508 128.611 127.42 126.67 128.29 124.731C128.353 124.609 128.441 124.502 128.549 124.417C128.658 124.333 128.784 124.275 128.918 124.245C129.845 124.245 130.088 123.632 130.059 122.961C129.888 119.453 131.586 116.514 133.07 113.575C135.565 108.583 138.276 103.69 140.915 98.7681C141.123 98.34 141.367 97.9292 141.643 97.5412C144.404 93.6076 146.934 89.5163 149.217 85.2874C150.494 83.0115 152.11 80.943 154.01 79.1534C153.739 80.2092 153.511 81.265 153.212 82.3064C152.912 83.3479 152.555 83.9746 152.384 84.8307C151.61 88.0124 150.511 91.1053 149.103 94.0605C147.867 96.4386 146.909 98.9515 146.25 101.549C145.98 102.584 145.572 103.577 145.038 104.503C143.284 108.212 141.5 111.892 139.731 115.6C137.85 119.843 135.681 123.951 133.241 127.897C131.015 131.335 128.69 134.702 126.322 138.04C125.651 138.996 124.367 139.581 123.912 140.579C123.551 141.661 123.102 142.71 122.57 143.718C120.872 146.228 119.318 148.853 117.42 151.207C114.881 154.373 112.542 157.783 109.004 159.994C108.788 160.1 108.606 160.263 108.476 160.465C107.286 162.85 105.426 164.837 103.126 166.185ZM175.964 129.809C172.897 132.034 169.802 134.231 166.707 136.442C163.191 138.778 159.482 140.81 155.622 142.52C154.296 143.161 153.026 143.946 151.714 144.616C147.735 146.886 143.896 149.392 140.216 152.12C137.363 154.057 134.251 155.584 130.972 156.656C129.004 157.298 126.907 157.54 124.881 157.983C121.693 158.71 118.593 159.781 115.637 161.178C113.198 162.277 110.83 163.532 108.505 164.702C108.205 164.844 107.891 164.959 107.221 165.229C107.431 164.826 107.664 164.435 107.92 164.06C108.148 163.774 108.519 163.603 108.676 163.304C110.273 160.336 113.312 159.167 115.923 157.454C119.004 155.443 122.057 153.375 125.11 151.307C127.049 149.98 128.961 148.625 131.186 147.027C131.065 147.471 130.898 147.902 130.687 148.311C130.06 149.095 129.492 149.924 128.99 150.793C128.119 152.436 126.679 153.705 124.938 154.36C122.085 155.786 119.232 157.041 116.379 158.382C116.208 158.467 116.094 158.71 115.765 159.095C116.153 159.15 116.548 159.15 116.936 159.095C119.132 158.211 121.329 157.298 123.526 156.385C124.496 155.986 125.48 155.587 126.479 155.215C129.161 154.216 131.115 152.02 133.611 150.75C135.638 149.637 137.604 148.418 139.503 147.098C139.865 146.908 140.242 146.746 140.63 146.614C140.944 146.47 141.386 146.427 141.543 146.186C142.598 144.587 144.396 144.045 145.923 143.333C147.734 142.448 149.503 141.478 151.314 140.593C152.256 140.137 153.24 139.809 154.239 139.395C153.91 138.268 153.811 138.125 152.726 138.611C151.001 139.367 149.332 140.308 147.648 141.178L144.025 142.89C144.043 142.405 144.129 141.924 144.282 141.464C144.914 139.892 146.116 138.618 147.648 137.897C150.359 136.814 153.069 135.758 155.851 134.887C157.634 134.331 159.545 134.089 161.371 133.589C162.68 133.239 163.963 132.796 165.209 132.263C166.792 131.592 168.319 130.836 169.887 130.08C170.502 129.851 171.13 129.666 171.771 129.523C173.083 129.172 174.395 128.83 175.708 128.496C176.08 128.43 176.457 128.392 176.835 128.383L176.963 128.654C176.663 129.065 176.328 129.452 175.964 129.809ZM125.152 92.548C125.252 92.9053 125.466 93.2187 125.38 93.4041C124.924 94.5459 124.425 95.658 123.954 96.7711C123.711 97.2556 123.583 98.083 122.755 97.6693C121.928 97.2556 122.228 96.6278 122.541 96.1004C123.255 94.8879 123.612 93.3754 125.152 92.548ZM78.0771 149.48C80.2288 147.52 82.1703 145.34 83.8691 142.975C84.5962 141.892 85.2956 140.764 86.08 139.752C88.2059 137.054 90.114 134.193 91.786 131.193C94.7413 126.291 97.0201 121.013 98.5622 115.501C98.7322 114.879 98.7762 114.228 98.6902 113.589C98.5402 113.112 98.3032 112.668 97.9918 112.277C97.5637 112.534 97.0067 112.677 96.7363 113.047C94.8388 115.558 92.8848 118.041 91.2013 120.694C90.4197 122.023 89.4758 123.25 88.3913 124.346C86.4221 126.129 85.0386 128.383 82.6853 129.809C82.5419 129.894 82.4569 130.08 82.3423 130.208C80.7878 132.077 79.2896 134.003 77.6347 135.786C75.3665 138.211 72.9558 140.507 70.6312 142.919C69.5037 144.06 68.3486 145.187 67.3358 146.413C66.0813 148.071 64.6462 149.582 63.0563 150.921C61.8973 151.852 60.7966 152.852 59.7609 153.917C57.9923 155.657 56.2514 157.44 54.5116 159.238C53.4204 160.325 52.3866 161.467 51.4159 162.662C49.846 164.659 48.3918 166.727 46.865 168.753C46.865 168.753 46.651 168.753 46.4083 168.753C46.4246 168.407 46.4723 168.063 46.5516 167.726C47.5931 164.373 48.6623 161.021 49.718 157.74C50.8694 153.719 53.1816 150.126 56.3661 147.413C58.5484 145.587 60.574 143.56 62.785 141.707C64.9959 139.852 67.6348 138.154 69.9174 136.2C72.2 134.245 74.5963 131.835 76.9076 129.624C78.0627 128.525 79.1472 127.327 80.374 126.314C83.2701 123.912 85.952 121.262 88.3913 118.397C89.0993 117.502 89.7289 116.547 90.2735 115.544C91.0016 114.332 91.5864 113.033 92.3135 111.806C94.1537 108.682 96.0226 105.573 97.8915 102.477C98.4475 101.564 99.061 100.68 99.5607 99.7379C100.716 97.5269 101.829 95.2873 102.941 93.062C104.054 90.8368 105.139 88.6965 106.179 86.4856C106.536 85.7155 106.965 84.8594 106.351 84.0176C104.625 83.8466 104.61 83.8323 103.711 84.9454C103.184 85.5875 102.727 86.2859 102.285 86.928C100.858 88.6965 99.532 90.4947 98.0911 92.2203C96.9446 93.6592 95.7006 95.0169 94.3677 96.2858C91.3294 99.0394 88.1343 101.607 85.0959 104.346C81.5292 107.57 78.0484 110.894 74.5533 114.188C72.8708 115.772 71.1729 117.341 69.604 119.053C67.1504 121.725 64.7723 124.455 62.4716 127.241C60.7307 129.352 59.1475 131.52 57.5213 133.774C56.7512 134.801 56.0231 135.886 55.2817 136.942L54.911 136.785C55.0963 136.014 55.3247 135.258 55.467 134.474C56.3231 129.779 57.8662 125.237 60.0456 120.993C60.3619 120.353 60.6428 119.696 60.8874 119.025C62.1429 115.801 63.341 112.576 64.6108 109.367C65.8089 106.386 67.0645 103.433 68.3343 100.48C68.791 99.4245 68.962 98.169 70.2595 97.6272C70.4735 97.5269 70.5738 97.1419 70.7162 96.8848C71.2723 95.573 71.943 94.2888 72.6988 92.9904C73.21 91.9766 73.8262 91.0212 74.539 90.1374C77.3777 86.9261 80.9024 84.396 84.8532 82.7345C86.7928 81.8784 88.6474 80.7939 90.5592 79.8814C91.5109 79.2747 92.5724 78.8629 93.6836 78.668C95.6232 78.4549 97.5494 78.0689 99.4746 77.6839C101.704 77.0246 104.03 76.759 106.351 76.8995C106.581 76.9501 106.819 76.9501 107.05 76.8995C109.746 76.158 112.471 75.4729 115.11 74.6169C118.976 73.305 122.813 71.8498 126.65 70.4233C129.703 69.2816 132.741 68.0691 135.779 66.8996C136.393 66.6712 137.021 66.4859 137.62 66.2155C140.231 65.0594 142.769 63.7619 145.437 62.7768C146.95 62.2207 148.404 61.1649 150.202 61.6503C150.444 61.6503 150.772 61.4936 151.044 61.3789C152.399 60.7942 153.768 60.2094 155.109 59.5674C155.607 59.4059 156.051 59.1097 156.392 58.7113C156.773 58.1112 157.355 57.666 158.033 57.4558C158.39 57.2848 158.618 56.8424 158.918 56.529C158.607 56.2003 158.252 55.9166 157.862 55.6872C157.513 55.6213 157.155 55.6213 156.806 55.6872C154.424 55.6872 152.057 55.6872 149.674 55.6872C148.446 55.4942 147.208 55.371 145.965 55.3165C143.602 55.4866 141.27 55.9662 139.032 56.743C134.072 58.416 128.899 59.3772 123.669 59.596C123.369 59.596 123.07 59.596 122.77 59.51C120.174 59.4107 117.549 59.1393 114.952 59.2397C108.479 59.6381 102.139 61.2547 96.2652 64.0036L95.7655 64.2033C92.0832 65.7291 88.5738 67.642 85.2956 69.9093C84.9669 70.1233 84.6392 70.3087 84.0545 70.6517C84.1185 70.2791 84.2092 69.9122 84.3248 69.5529C85.5239 67.0286 86.7078 64.489 87.9489 61.9923C89.1901 59.4957 90.8019 56.7574 91.9284 54.0037C93.1906 50.7418 93.9225 47.2983 94.0973 43.8042C94.125 43.0943 94.2397 42.3901 94.4393 41.7079C95.3948 38.7546 96.3226 35.7878 97.4204 32.8918C98.5976 29.6557 99.2759 26.26 99.4317 22.8203C99.4269 22.1066 99.4938 21.3948 99.6313 20.6954C100.62 16.7742 101.972 12.9533 103.669 9.28334C104.781 6.87175 105.566 4.29009 106.522 1.7648C106.591 1.60715 106.626 1.43709 106.626 1.2651C106.626 1.09408 106.592 0.923045 106.523 0.765394C106.455 0.607743 106.355 0.465375 106.23 0.347853C106.105 0.230331 105.957 0.139563 105.794 0.082235C105.11 -0.21778 104.738 0.366964 104.368 0.809343C103.583 1.70843 102.813 2.60658 101.971 3.43401C99.9887 5.40321 97.8198 7.20042 96.0082 9.29671C93.8833 11.7647 92.043 14.4753 90.1025 17.1143C88.3817 19.3128 86.854 21.6566 85.5383 24.1188C84.3392 26.6431 83.4115 29.2869 82.7703 32.0071C81.3438 37.4284 79.775 42.8057 78.2195 48.184C77.6921 50.0242 77.007 51.8071 76.3659 53.7477C76.1519 52.8056 75.9655 51.9495 75.7801 51.1087C74.8639 47.9069 74.3842 44.5953 74.3537 41.2655C74.3747 39.5342 74.2314 37.8048 73.9256 36.1012C73.874 35.8251 73.7622 35.5643 73.5998 35.3349C73.4374 35.1066 73.2272 34.9155 72.9845 34.775C72.3424 34.518 71.943 35.1601 71.6726 35.7018C71.4395 36.1232 71.2532 36.5675 71.1156 37.029C70.3885 40.3378 69.6041 43.6331 68.9907 47.0145C68.6477 48.8825 68.7049 50.823 68.4479 52.7205C68.0629 55.5736 67.5498 58.3406 67.0214 61.1506C67.0214 61.3646 66.9221 61.5643 66.8074 62.0497L66.2083 61.1506C65.2806 59.3562 64.1665 57.6631 62.8853 56.101C62.591 55.7341 62.3722 55.3118 62.2432 54.8598C61.9432 54.0897 61.7865 53.248 61.4301 52.5209C60.144 49.5713 59.1637 46.4976 58.5054 43.3484C57.9255 41.0658 57.2977 38.788 56.6222 36.5149C55.468 32.3845 54.9243 28.1069 55.0103 23.8188C55.0103 22.3923 54.8393 20.8377 55.9381 19.6683C55.082 18.3268 54.6253 18.0841 54.0979 18.7978C52.6293 20.6782 51.5258 22.8165 50.8455 25.1029C50.1575 28.061 49.9789 31.1147 50.3171 34.133C50.4557 36.0382 50.1786 37.951 49.504 39.7387C48.3833 42.5697 48.0622 45.6539 48.5772 48.655C49.29 52.0785 50.0037 55.5019 50.9878 58.8689C51.7436 61.636 52.7851 64.3179 53.7406 67.2139C51.5583 65.6728 49.5613 64.3609 47.6208 62.9344C43.8696 60.1521 39.4468 59.1823 35.0106 58.2832C31.3044 57.7042 27.6669 56.7478 24.1547 55.4302C21.9007 54.5034 19.5617 53.7754 17.2505 53.0196C16.7938 52.8629 15.9243 52.8342 15.824 53.0196C15.5928 53.589 15.5278 54.213 15.6386 54.8168C15.7456 55.2812 15.9549 55.715 16.252 56.0866C17.0393 57.2103 18.0865 58.1256 19.3047 58.7543C21.573 60.0527 23.9129 61.3359 26.1525 62.7624C30.0269 65.304 34.1516 67.4404 38.4627 69.1392C42.4871 70.6727 46.2058 72.9094 49.4467 75.7443C52.465 78.519 55.1718 81.6137 57.5213 84.9741C58.8293 86.5162 59.9147 88.236 60.745 90.081C61.045 90.9084 61.6011 91.6355 61.9718 92.4486C62.1973 92.9216 62.3187 93.4366 62.3282 93.9611C62.1859 99.4808 60.0036 104.417 57.7926 109.781C57.5499 108.982 57.4066 108.554 57.3073 108.126C56.7082 105.53 56.1378 102.92 55.5101 100.323C54.825 97.4696 54.0835 94.6166 53.3841 91.8639C53.2274 91.2218 53.1558 90.5654 52.9418 89.952C52.5567 88.8112 51.9863 88.6965 51.1589 89.524C50.8875 89.7953 50.5312 89.9663 50.2598 90.252C49.9894 90.5368 49.5326 90.9218 49.4753 91.3078C49.247 92.7343 49.1333 94.2459 49.033 95.7297C48.9336 97.2135 49.033 98.3257 48.8476 99.6098C48.1062 105.159 47.3074 110.68 46.523 116.214C46.523 116.714 46.2516 117.185 46.0233 118.054L45.6669 117.056C44.4544 113.475 44.3541 109.709 43.627 106.043C43.2438 103.629 42.6906 101.247 41.9721 98.9104C41.2918 97.0138 40.7577 95.0685 40.3746 93.0907C40.0889 91.0202 39.3962 89.0281 38.3347 87.228C37.2359 85.6018 36.1667 83.9613 35.0536 82.3628C33.2277 79.7095 31.4019 77.0705 29.533 74.4602C27.901 72.0304 25.6375 70.0927 22.9852 68.8545C22.4358 68.6414 21.9466 68.2993 21.5587 67.855C21.1316 67.3544 20.5793 66.9751 19.9573 66.7572C19.3363 66.5394 18.6675 66.4897 18.0206 66.6149C16.8081 66.6149 16.2807 67.6983 16.9514 68.7685C17.475 69.5548 18.0827 70.2819 18.763 70.9364C19.9401 71.931 20.9099 73.1473 21.616 74.5175C22.1434 75.7156 22.6718 76.9138 23.0425 78.1549C23.5145 79.3913 23.9005 80.6592 24.1976 81.9491C24.8684 85.4585 25.4101 88.9822 26.0952 92.4773C26.7803 95.9724 27.5217 99.0814 28.1924 102.463C29.2062 107.79 31.1372 112.901 33.8984 117.57C34.8252 119.167 35.667 120.808 36.6081 122.391C37.1508 123.304 37.8636 124.117 38.4627 124.987C39.7879 126.593 40.7596 128.459 41.3157 130.465C41.5641 131.814 41.9367 133.137 42.4288 134.416C43.1186 135.998 43.5525 137.678 43.713 139.395C43.9786 140.959 44.098 142.544 44.0694 144.131C43.7693 147.451 43.669 150.785 43.7693 154.117C43.6977 155.051 43.5199 155.975 43.2419 156.87C43.1129 157.44 42.8282 157.983 42.6572 158.553C41.8154 161.406 41.0023 164.259 40.1749 167.112C40.0794 167.315 39.9694 167.51 39.8462 167.697C39.6102 167.33 39.4048 166.943 39.2328 166.542C38.392 164.146 37.4929 161.748 36.7658 159.309C35.539 155.201 34.4402 151.064 33.2707 146.956C33.029 146.098 32.7137 145.263 32.3286 144.459C30.8027 141.235 29.0619 138.111 27.7501 134.801C26.9016 132.436 25.7044 130.209 24.1976 128.197C21.0456 124.26 17.7502 120.437 14.5122 116.571C13.8701 115.801 13.2997 114.945 12.586 114.246C10.503 112.22 8.3064 110.237 6.23782 108.268C4.92597 107.056 3.58451 105.886 2.244 104.731C1.63059 104.203 0.931214 104.274 0.817514 104.916C0.531831 106.471 -0.39495 107.926 0.189793 109.61C0.364642 110.424 0.488853 111.247 0.560512 112.078C0.960851 114.696 1.53694 117.283 2.28698 119.824C3.40678 122.627 4.71197 125.353 6.19484 127.983C7.49332 130.451 9.04787 132.761 10.332 135.258C12.4149 139.538 14.3975 143.817 16.2664 148.226C17.326 151.082 18.5451 153.878 19.9181 156.599C20.9166 158.354 21.6867 160.237 22.6574 161.991C23.5804 163.923 24.7088 165.751 26.0235 167.44C28.5679 170.434 30.8228 173.664 32.7567 177.083C35.0995 180.926 35.9756 185.485 35.2246 189.922C35.1014 190.625 35.0202 191.335 34.982 192.048C34.8539 196.669 34.7679 201.305 34.6255 205.928C34.5396 209.08 34.3542 212.219 34.2405 215.372C34.2195 216.116 34.4632 216.844 34.9275 217.427C35.3928 218.009 36.0492 218.408 36.7801 218.552C39.8892 218.552 42.9705 216.298 42.4861 212.989C42.2721 211.562 42.1288 210.036 42.0007 208.553C41.8077 207.135 41.7361 205.703 41.7867 204.273C42.0007 201.677 42.4575 199.094 42.7852 196.513C42.9276 195.385 43.0279 194.273 43.1559 193.146C43.6127 189.266 43.6126 185.286 46.0089 181.848C46.9558 180.006 48.0689 178.254 49.333 176.612C52.1535 173.737 55.1556 171.045 58.32 168.553C61.5151 165.986 64.6156 163.299 67.6205 160.493C70.5633 157.989 73.2835 155.235 75.7524 152.262C76.4566 151.275 77.2391 150.345 78.0914 149.48H78.0771ZM69.3184 146.1L69.4044 145.886C71.0592 144.188 72.7418 142.534 74.3393 140.807C77.3786 137.498 80.759 134.517 83.5834 131.007C85.1666 129.039 87.1215 127.384 88.89 125.587L89.2608 125.886C88.0483 127.584 86.8645 129.295 85.652 130.979C84.4395 132.662 83.5691 134.089 82.4283 135.515C81.0017 137.227 79.5752 138.839 78.1487 140.522C76.7222 142.205 75.5518 143.732 74.2399 145.33C73.6839 146.014 73.1125 146.756 72.029 145.972C71.6726 146.913 70.4172 147.398 71.1156 148.525C70.5165 149.095 70.1888 150.052 68.9476 150.052C69.3184 149.309 69.6041 148.625 69.9461 148.054C70.0551 147.889 70.1295 147.705 70.1639 147.51C70.1974 147.316 70.1907 147.116 70.1439 146.924C70.0971 146.733 70.0111 146.553 69.8907 146.396C69.7712 146.239 69.6194 146.109 69.4464 146.014L69.3327 146.143C68.8053 147.44 68.2769 148.724 67.7352 150.009C67.7352 150.108 67.4351 150.108 67.2784 150.165L67.2068 150.308C67.0358 150.993 66.8647 151.734 66.708 152.376L66.28 152.205C66.5934 151.577 66.8934 150.935 67.2068 150.308C67.2068 150.308 67.2068 150.165 67.2068 150.108C66.9928 148.253 68.2626 147.241 69.3327 146.1H69.3184ZM64.2974 151.635C64.5258 151.121 65.1249 150.764 65.5529 150.351L65.9236 150.608L63.5837 155.486L63.042 155.315C63.4557 154.06 63.7977 152.804 64.3117 151.635H64.2974ZM62.2995 153.061C62.0626 155.166 61.259 157.168 59.9749 158.853C60.1603 158.296 60.3313 157.726 60.5453 157.17C60.7593 156.614 61.045 155.943 60.2463 155.372L62.2995 153.061ZM80.4027 110.466C84.5675 107.127 88.377 103.333 92.4854 99.9519C94.9372 97.8967 97.2265 95.6552 99.3323 93.2474C100.174 92.2919 100.901 91.2218 101.8 90.295C101.174 92.3703 100.042 94.2583 98.5048 95.787C97.0783 97.2135 95.4951 98.64 94.0113 100.067C93.1552 100.894 92.3278 101.735 91.5147 102.591C88.0626 106.243 84.6248 109.923 81.1871 113.575C80.9578 113.773 80.7142 113.954 80.4591 114.118C80.4591 113.447 80.4591 113.019 80.4591 112.263C78.4058 113.904 78.4058 116.656 76.2512 118.397C77.136 115.215 77.8487 112.506 80.4027 110.466ZM70.6455 119.695C71.2073 119.175 71.8083 118.697 72.4427 118.268C72.4427 118.268 72.4427 118.169 72.4427 118.111C73.3122 116.905 74.4072 115.878 75.6665 115.087C75.2403 118.027 73.8329 120.737 71.6726 122.776C72.0433 121.649 72.3997 120.622 72.7418 119.581C72.9128 119.025 73.1555 118.44 72.4427 118.154L72.3567 118.226C71.4156 120.551 70.4879 122.862 69.5037 125.188C69.1808 126.028 68.596 126.744 67.8345 127.227C67.8498 126.223 68.125 125.24 68.6333 124.374C68.8903 123.846 69.3901 123.204 69.2467 122.762C68.9333 121.25 69.8458 120.522 70.6455 119.695ZM69.219 128.539C71.1442 126.585 72.8135 124.445 74.582 122.377C75.4381 121.392 75.9378 119.966 77.6921 120.166C77.9061 120.166 78.3055 119.638 78.4192 119.281C78.7679 118.194 79.3861 117.212 80.2173 116.428C82.5706 113.989 84.9249 111.549 87.2066 109.054C89.4892 106.557 91.6714 103.932 94.0973 101.421C95.2525 100.18 96.6073 99.1244 98.0625 97.7983C97.9775 98.254 98.0625 98.468 97.9058 98.5684C95.1388 101.835 93.5403 105.801 91.401 109.424C89.3439 113.248 86.8291 116.807 83.9121 120.023C82.6853 121.25 81.2588 122.334 80.0176 123.504C76.9792 126.357 73.9972 129.21 70.9159 132.063C69.0193 133.718 66.9928 135.258 65.0102 136.942C62.4715 139.067 59.9606 141.221 57.2643 143.232C58.9621 140.836 60.8024 138.525 62.3426 136.1C64.1398 133.047 66.8074 130.936 69.1617 128.539H69.219ZM52.5424 143.803C53.6412 141.849 55.039 140.066 56.3088 138.197C58.4882 134.876 60.8406 131.671 63.3554 128.597C64.7819 126.927 66.2084 125.287 67.6349 123.632L67.8345 123.803C67.1361 125.686 66.408 127.569 65.7382 129.509C65.6112 129.772 65.4258 130.001 65.1955 130.18C62.8566 131.963 61.5151 134.517 59.8603 136.841C58.0955 139.788 56.1368 142.614 53.9976 145.301C52.7707 146.727 51.7293 148.154 50.6315 149.68C48.9823 151.882 48.024 154.523 47.8778 157.269C47.8138 157.754 47.7039 158.231 47.5501 158.696C46.5794 162.505 45.5952 166.313 44.6971 170.108C44.1228 172.517 43.2305 174.839 42.0438 177.013C41.9444 176.688 41.8823 176.352 41.8584 176.013C42.1575 173.304 42.4575 170.593 42.8139 167.882C42.9419 166.884 43.2562 165.914 43.4703 164.916C43.969 162.59 44.4257 160.265 44.8968 157.94C45.1251 156.941 45.0678 155.786 46.3233 155.243C46.6367 155.115 46.8221 154.601 47.0074 154.231C48.8476 150.736 50.5741 147.213 52.486 143.803H52.5424ZM98.8182 68.4685C99.5893 67.042 100.402 65.6154 101.201 64.1889C101.629 63.4045 102.356 63.3481 103.255 63.2765C101.829 65.5017 100.402 67.556 98.9759 69.6953L98.6052 69.5242C98.631 69.165 98.7036 68.8105 98.8182 68.4685ZM86.1517 72.2062C87.3212 71.3215 88.6187 70.6374 89.8178 69.895L90.2029 69.3389L92.9842 68.0691L93.0702 67.941H93.1552C95.2888 66.4171 97.6411 65.2247 100.131 64.403C99.7317 65.1454 99.5176 65.6441 99.2186 66.0865C97.8312 67.7165 96.5949 69.4688 95.5238 71.3215C95.4521 71.5078 95.0528 71.5498 94.6247 71.7352C94.8818 69.7669 96.7506 68.7398 96.7783 66.8709C94.5817 68.5545 93.5403 71.1504 91.7717 73.1483L91.4153 72.962C91.8004 72.2206 92.1568 71.5355 92.5418 70.7367C92.9269 69.938 93.2986 69.4105 93.6263 68.7111C93.954 68.0127 93.5546 68.0127 93.1696 67.855H93.0558C92.4138 68.9108 91.7574 69.9666 91.101 71.0081C90.4456 72.0495 89.8178 73.1617 89.147 74.1754C89.0047 74.3885 88.7333 74.5032 88.2336 74.4745C88.805 73.4617 89.3181 72.4346 89.9315 71.4648C90.1847 71.1762 90.3481 70.8199 90.4006 70.4396C90.4541 70.0593 90.3949 69.6714 90.2315 69.3245C90.2315 69.4822 90.1312 69.6953 90.0175 69.7669L89.8178 69.895C89.0181 71.0224 88.2193 72.1355 87.4492 73.2907C86.9505 74.0178 86.5511 74.8166 86.0227 75.5446C85.7628 75.7768 85.4695 75.9688 85.1523 76.115L84.8962 75.858C85.2239 75.1596 85.566 74.4315 85.8947 73.7751C85.8259 73.6929 85.7495 73.6165 85.6664 73.5477C85.3415 73.6948 85.0395 73.8869 84.7672 74.1181C84.1681 74.8309 83.6264 75.5446 83.056 76.372C82.6595 76.8431 82.1664 77.2234 81.6104 77.4871C81.0543 77.7508 80.4476 77.8903 79.8323 77.8979C79.989 77.5272 80.0033 77.2558 80.16 77.1421C82.0853 75.4873 84.1118 73.8038 86.1517 72.2349V72.2062ZM85.5383 27.3855C87.4702 23.0391 90.0529 19.0138 93.1982 15.4451C94.6248 13.6479 96.0513 11.737 97.4778 10.0104C99.275 7.97053 101.23 6.10165 103.184 4.14773L103.612 4.4038C103.265 5.6717 102.837 6.9157 102.328 8.12722C99.8129 13.3278 97.8991 18.7988 96.6217 24.4322C96.4077 25.3599 96.4363 26.3441 96.1793 27.2852C95.5802 29.4541 94.9524 31.5647 94.168 33.7336C92.795 37.4809 91.8004 41.3563 91.2013 45.3023C90.8363 47.0384 90.3596 48.7487 89.7748 50.4236C89.6334 50.8765 89.4614 51.3198 89.2608 51.7498C88.4477 53.6617 87.5782 55.5592 86.8071 57.4558C86.037 59.3534 85.1666 61.3359 84.5388 63.3195C83.7945 65.775 82.6891 68.1073 81.2588 70.238C80.3167 71.5928 79.6183 73.091 78.7765 74.5175C78.5329 74.8815 78.2615 75.2245 77.9634 75.5446C77.7991 75.1328 77.7236 74.6923 77.7408 74.25C77.7579 73.8076 77.8679 73.3738 78.0628 72.9763C79.3469 68.4685 80.7734 63.9893 81.9142 59.4393C82.7273 56.1583 83.056 52.7626 83.7974 49.4538C84.2255 47.5563 85.0242 45.7447 85.6377 43.8902C86.1956 42.3958 86.6724 40.8719 87.0641 39.325C87.926 35.6006 89.1881 31.9794 90.8306 28.5263C91.7574 26.5867 92.6708 24.6605 93.6836 22.8203C94.6964 20.9801 95.5238 19.4686 96.379 17.7994C96.7506 17.1143 97.0784 16.3729 97.4204 15.7165C98.1485 14.29 98.8469 12.7497 99.6036 11.2516C99.79 10.7863 99.9476 10.3095 100.074 9.82508C99.6486 9.84897 99.2396 9.99706 98.8975 10.2503C98.5555 10.5035 98.2947 10.8522 98.1485 11.2516C96.722 14.1046 95.2955 16.9576 93.8689 19.8106C92.2848 23.1347 90.8583 26.5438 89.2608 29.8678C86.4078 35.6875 84.9812 42.0069 82.799 48.0273C82.2716 49.8551 81.9037 51.7268 81.7002 53.6187C81.2588 55.9443 80.8728 58.2832 80.3597 60.6088C79.7606 63.3338 79.0326 66.0435 78.3485 68.7541C78.2615 69.0131 78.1573 69.2663 78.0341 69.5099L77.7637 69.3962C77.9462 68.0586 78.036 66.7095 78.0341 65.3594C77.9385 63.8822 77.715 62.4175 77.3643 60.9795C77.05 59.5272 77.05 58.0243 77.3643 56.572C79.0603 48.8958 81.1451 41.3114 83.6121 33.8473C84.1118 31.708 84.6249 29.4828 85.5383 27.3855ZM72.3567 81.5927C72.3567 81.0796 73.4125 80.4662 74.0546 79.9808C74.8142 79.4276 75.6043 78.9174 76.4222 78.4549C77.0671 78.111 77.7284 77.8014 78.4058 77.5272C78.2118 78.4492 77.8277 79.3196 77.2774 80.084C76.727 80.8474 76.0228 81.4885 75.2097 81.9634L74.3823 81.393C73.3122 81.7494 73.0561 82.7345 72.5278 83.5046C72.0003 84.2747 71.9 85.1881 70.6025 85.4585C70.8022 84.9884 70.9589 84.7314 71.0449 84.4457C71.3726 83.4759 72.3424 82.8625 72.2851 81.6213L72.3567 81.5927ZM69.6461 53.2193C70.0178 50.2956 70.2032 47.3422 70.4735 44.4032C70.5911 41.9124 71.2532 39.4778 72.414 37.2707C72.5354 37.5803 72.6262 37.9004 72.6854 38.2271C72.8278 40.4237 72.9271 42.606 73.0705 44.8026C73.0934 45.6893 73.188 46.5721 73.3552 47.4426C74.4588 52.5447 75.0607 57.7424 75.1524 62.9621C75.1161 63.1991 75.1161 63.4399 75.1524 63.6759C76.2512 66.8709 75.7381 70.0956 75.4954 73.348C75.4897 74.4458 75.2671 75.5322 74.839 76.5431C74.5533 76.9663 74.2122 77.3495 73.8262 77.6839L73.5405 77.4842C73.5405 76.8995 73.6265 76.329 73.7125 75.7586C73.9256 73.0365 73.6552 70.2982 72.9128 67.6697C72.6138 66.2432 72.7132 64.7173 72.4991 63.2478C72.0845 60.132 71.8886 56.9905 71.9144 53.847C71.9144 53.7477 71.8006 53.6617 71.6153 53.4046C71.4815 53.7018 71.3669 54.0066 71.2723 54.3181C70.3885 57.8552 71.2723 61.4506 71.2723 64.9457C71.3526 67.0171 71.6344 69.0761 72.1141 71.0941C72.4771 72.2836 72.4771 73.5553 72.1141 74.7458C71.7147 73.2047 71.3726 71.6501 70.8729 70.1376C70.5146 68.9605 70.0369 67.8226 69.4464 66.7429C68.4967 65.2151 68.1126 63.4026 68.3629 61.6216C68.7049 58.8403 69.2897 56.0436 69.6461 53.2193ZM62.0998 58.6119C63.9401 62.0497 65.7526 65.5161 67.6349 68.9538C69.5878 72.0705 70.4974 75.7281 70.2318 79.3961L68.2053 81.222C67.8623 79.5604 67.4342 77.918 66.9221 76.3004C66.194 74.3035 65.2529 72.3773 64.3825 70.4233C63.4318 68.1981 62.4381 65.9823 61.4014 63.7752C61.1711 63.2946 61.0431 62.772 61.023 62.2398C61.0039 61.7076 61.0937 61.1764 61.2867 60.6805C61.4874 59.9601 61.6297 59.2253 61.7148 58.4829C61.8858 58.4829 62.0578 58.4829 62.0998 58.6119ZM60.6734 55.0452C60.959 55.7016 61.1731 56.1869 61.2448 56.3866L59.8182 60.6662C58.7911 59.4393 59.6892 58.5832 59.8182 57.7128C59.8163 56.7449 60.1431 55.8038 60.745 55.0452H60.6734ZM59.2325 51.3504C59.6042 52.0928 59.9893 52.7769 60.36 53.59C58.4194 54.4461 59.3759 56.6427 58.0057 57.8695C58.0602 55.7236 58.3229 53.5881 58.7911 51.4937L59.2325 51.3504ZM54.4973 60.5228C53.4415 57.8733 52.7918 55.0796 52.5711 52.2352C52.486 50.7093 52.0579 49.1968 51.8439 47.67C51.5869 46.2071 51.4159 44.731 51.3299 43.2481C51.2888 42.1321 51.4188 41.0161 51.715 39.9384C52.7211 36.0191 53.0201 31.9517 52.5997 27.9273C52.4392 26.5915 52.6723 25.2376 53.2705 24.0328L53.6268 24.1045C53.7166 24.6844 53.7501 25.272 53.7262 25.8587C53.3268 29.4961 54.3539 32.9912 55.1527 36.429C55.9524 39.8677 56.9366 43.5624 57.8634 47.1139C58.1204 48.098 58.4768 49.0401 58.7768 49.9669C57.3503 51.3934 57.5786 53.248 56.8649 55.0022C56.3661 54.5178 56.0948 54.1757 56.2801 53.462C56.6652 52.0355 56.9079 50.609 57.207 49.1825C57.2232 48.8786 57.2232 48.5738 57.207 48.269C56.9222 48.269 56.6652 48.269 56.6222 48.4267C55.4671 50.8517 54.3682 53.248 55.681 56.0293C56.5562 57.9775 57.6015 59.8435 58.8054 61.6073C59.8259 63.1886 60.7001 64.8597 61.4157 66.6005C62.8422 69.8672 64.2687 73.1483 65.5386 76.4571C65.9293 77.5616 66.2628 78.6852 66.537 79.8241L66.2514 80.0668C65.938 79.9091 65.4812 79.8384 65.3245 79.5814C64.7073 78.561 64.1455 77.509 63.641 76.4284C62.5709 74.3809 61.2638 72.4651 59.7465 70.7224C58.7815 69.4382 57.9455 68.0624 57.2499 66.6149C56.2123 64.66 55.2922 62.6449 54.4973 60.5802V60.5228ZM43.3843 64.8023C42.3141 64.0609 42.8139 62.9621 42.4431 61.7783C43.8553 62.4777 43.9126 62.7624 43.3843 64.831V64.8023ZM63.641 89.7237C63.2589 88.3621 62.9493 86.9815 62.7133 85.5875C62.5566 85.6725 62.2145 85.8149 61.6728 86.0575C60.4316 84.631 59.1188 83.0479 57.8634 81.479C56.4369 79.6674 55.1107 77.7555 53.5839 76.0013C51.3691 73.6652 48.7368 71.7638 45.8236 70.3947C41.1304 67.8417 36.3664 65.4158 31.5585 62.9621C30.7598 62.5484 29.9037 62.2924 29.0762 61.9493C25.1732 60.198 21.4908 57.9909 18.1066 55.3739C17.9546 55.264 17.8286 55.1207 17.7397 54.9544C17.6508 54.7891 17.6011 54.6057 17.5935 54.4174C18.8203 54.9171 20.0748 55.3739 21.3016 55.8439C25.9633 57.6813 30.8075 59.0151 35.753 59.8244L36.8078 60.0241C38.648 60.4235 38.5773 60.4378 38.7484 62.2923C38.82 63.0625 38.5917 64.1469 40.0602 64.575C40.0602 63.3759 40.0602 62.321 40.0602 61.3082C40.7596 60.9795 41.2727 61.1936 41.159 61.7783C40.7166 64.1469 42.2865 65.2017 44.012 66.2155C46.7017 67.8321 49.2336 69.7001 51.5726 71.7925C51.7713 71.9234 51.9615 72.0667 52.143 72.2206C55.7098 76.115 59.6328 79.6951 62.5852 84.118C63.1107 84.9205 63.5875 85.7537 64.0118 86.6146C64.2974 87.1707 64.6108 87.313 65.1669 86.7569C63.9162 83.5198 61.968 80.598 59.4609 78.1979C57.8347 76.5431 56.2945 74.8165 54.5966 73.2477C52.6284 71.4648 50.5168 69.8099 48.4625 68.1121C47.8663 67.6162 47.2319 67.1671 46.566 66.7716C45.9497 66.4629 45.4653 65.9422 45.2035 65.3049C44.9408 64.6686 44.9178 63.9577 45.1395 63.3051C46.4695 63.9596 47.7641 64.6829 49.0196 65.4731C50.7595 66.6999 52.4143 68.0557 54.0549 69.4249C54.6874 69.9523 55.253 70.5561 55.7384 71.2221C56.3088 71.9779 57.1649 72.1632 57.8634 72.6486C59.0539 73.5343 60.1106 74.5863 61.002 75.773C62.6282 77.8836 64.1397 80.0525 65.6236 82.3064C65.9026 82.895 66.0994 83.5189 66.2083 84.161C65.6522 84.76 64.9252 85.3161 65.5806 86.2716C66.237 87.228 66.6507 87.142 67.3788 86.5429C67.7075 86.2056 68.0037 85.8378 68.2626 85.4441C68.9563 84.4954 69.777 83.645 70.7019 82.9198C70.2232 83.5542 69.8611 84.2689 69.6327 85.0304C69.4264 86.5257 68.7222 87.9073 67.6349 88.9536C67.2068 89.4389 66.9651 89.9807 67.9206 90.3801C68.962 89.3243 70.0034 88.2265 71.1013 87.185C72.308 85.9897 73.575 84.8565 74.8964 83.7893C76.8828 82.1946 78.9542 80.7089 81.1011 79.3387C82.9404 78.2667 84.8465 77.3141 86.8071 76.4857C90.0452 75.0592 93.3263 73.6327 96.5509 72.1355C98.7332 71.1084 100.83 69.895 103.013 68.7971C104.026 68.2831 105.081 67.8837 106.08 67.3706C108.505 66.1295 110.973 66.8289 113.426 67.1709C114.482 67.3133 115.524 67.6984 116.407 66.6569L117.834 67.941C118.105 67.7843 118.377 67.7127 118.49 67.5417C118.726 67.0878 119.098 66.718 119.552 66.483C120.007 66.248 120.523 66.1601 121.03 66.2289C121.143 66.2508 121.259 66.2508 121.372 66.2289C125.651 64.8024 130.202 64.3036 134.367 62.4347C136.522 61.4649 138.79 60.7092 140.972 59.8101C141.687 59.4728 142.379 59.0868 143.041 58.6549C143.041 58.5403 143.041 58.4122 142.926 58.2832C142.627 58.2832 142.271 58.0415 142.014 58.1265C138.504 59.3963 134.881 60.2524 131.543 62.0927C130.733 62.4682 129.873 62.728 128.99 62.8628C126.717 63.3481 124.448 63.823 122.185 64.2893C121.857 64.3609 121.514 64.2893 120.958 64.403L122.57 61.7926C122.471 61.6933 122.385 61.5786 122.284 61.4649C121.944 61.5595 121.621 61.7086 121.329 61.9073C120.559 62.6487 119.902 63.4905 119.118 64.2319C118.634 64.6246 118.118 64.9772 117.578 65.2877C117.578 63.6329 119.503 63.2765 119.175 61.6216C118.808 61.6981 118.46 61.8433 118.148 62.0497C117.306 62.8771 116.522 63.7752 115.695 64.6313C115.124 65.2304 114.553 65.9011 113.383 65.2591L115.195 62.8914C114.639 62.278 114.239 62.5484 113.883 62.8914C113.225 63.4867 112.624 64.1402 112.085 64.8453C111.714 65.3737 111.358 65.6584 110.773 65.4874C108.433 64.789 106.493 65.8018 104.525 66.9139C103.64 67.385 102.784 67.8837 101.914 68.3404L101.671 68.0414L104.753 62.4634C106.178 61.9971 107.631 61.6207 109.104 61.3359C112.868 60.6518 116.709 60.499 120.516 60.8802C122.93 61.1668 125.365 61.2337 127.791 61.0799C127.904 61.0932 128.02 61.0932 128.134 61.0799C131.885 60.1235 135.651 59.2683 139.346 58.2269C142.199 57.3994 144.852 56.4717 147.905 56.9427C149.702 57.2284 151.543 57.2284 153.469 57.6421C153.056 57.8905 152.621 58.1007 152.17 58.2689C148.839 59.3514 145.588 60.6671 142.442 62.2064C139.589 63.4618 136.592 64.5463 133.654 65.6871C133.326 65.8295 132.969 65.9011 132.656 66.0722C129.964 67.5216 127.062 68.5372 124.054 69.0819C121.965 69.7593 119.918 70.5552 117.92 71.4648C114.211 72.7059 110.487 73.9471 106.707 74.9169C104.945 75.1729 103.168 75.3057 101.387 75.3162C99.9601 75.4729 98.5336 75.8437 97.2064 76.115L92.5131 77.0284C88.5671 77.9342 84.7749 79.4142 81.2588 81.4216C78.8491 82.7029 76.598 84.2641 74.5533 86.0719C73.3074 87.057 72.2449 88.2551 71.4156 89.61C71.0248 90.2568 70.8079 90.9944 70.7879 91.7492C70.8204 92.3942 70.6608 93.0343 70.3311 93.5894C67.8336 97.7209 65.7593 102.094 64.1398 106.642C63.3267 108.61 62.3731 110.517 61.2867 112.348C60.9256 113.097 60.616 113.869 60.36 114.659C59.3959 117.794 58.1003 120.816 56.4942 123.675C56.0107 121.392 56.3652 119.012 57.4926 116.971C57.85 116.525 58.1653 116.048 58.4338 115.544C58.6621 114.987 58.7338 114.402 59.5612 114.402C60.1603 114.402 60.4316 113.989 60.488 113.319C60.6017 112.438 60.7928 111.569 61.0594 110.722C61.6861 108.311 62.3282 105.901 62.9417 103.49C62.9417 103.161 62.8566 102.776 62.9417 102.434C62.9073 101.423 63.1862 100.427 63.7404 99.5812C64.0548 99.0155 64.2038 98.3725 64.1685 97.7266C64.113 96.8667 64.1035 96.0049 64.1398 95.145C64.4331 93.3344 64.2611 91.4788 63.641 89.7523V89.7237ZM40.9737 101.279C41.7294 105.001 42.4001 108.739 43.0852 112.463C43.0852 112.819 43.0852 113.175 43.2276 113.518L45.6669 124.26C45.7147 124.429 45.7233 124.608 45.6917 124.781C45.6592 124.954 45.5876 125.118 45.4815 125.258C44.6397 123.019 43.8266 120.765 42.9706 118.511C42.4995 117.298 42.0008 116.1 41.459 114.916C40.688 113.247 39.8749 111.592 39.0761 109.937C38.9185 109.621 38.8353 109.271 38.8353 108.918C38.8353 108.563 38.9185 108.215 39.0761 107.897C39.4334 106.985 39.6609 106.029 40.0039 104.931C38.5774 104.931 38.7914 106.543 37.5789 106.842C37.4069 106.243 36.9798 105.615 37.0935 105.102C37.7069 102.463 38.4484 99.8668 39.2328 96.9135C40.1042 98.2349 40.6966 99.7206 40.9737 101.279ZM38.1206 92.2919L38.606 92.377C39.0474 95.744 37.1795 98.597 36.3664 101.949C35.9881 101.733 35.7023 101.385 35.5638 100.972C35.4243 100.561 35.4406 100.11 35.6097 99.7092C36.4658 97.246 37.3028 94.7694 38.1206 92.2776V92.2919ZM45.9526 144.587C45.9163 143.937 45.9163 143.284 45.9526 142.633C45.9612 140.436 45.6975 138.247 45.1672 136.114C44.7582 133.912 44.1266 131.756 43.2849 129.68C42.3428 127.613 41.3157 125.53 40.2886 123.589C38.2066 119.867 35.9383 116.243 33.8841 112.491C31.5853 108.322 30.068 103.768 29.4049 99.0537C29.0762 96.6422 28.3778 94.3032 27.9784 91.9212C27.4071 88.9392 26.9369 85.9582 26.3799 82.9762C25.6136 78.3174 23.8996 73.8659 21.3447 69.895C21.2099 69.6074 21.1048 69.3064 21.0313 68.9968C23.1897 69.873 25.1139 71.2403 26.6513 72.9907C28.5488 75.43 30.2744 78.0126 31.9866 80.5799C33.6988 83.1482 35.2676 85.6725 36.8795 88.2264C37.2416 88.772 37.5512 89.3491 37.8063 89.952C37.9305 90.2788 37.9305 90.639 37.8063 90.9648C36.7515 93.2904 35.6097 95.573 34.5396 97.9406C34.3055 97.7371 34.144 97.4629 34.0791 97.1591C34.015 96.8552 34.0513 96.539 34.1832 96.2571C34.6112 95.0303 34.9819 93.7614 35.3249 92.506C35.3832 91.9652 35.3832 91.4196 35.3249 90.8798C33.8984 91.8639 34.2262 93.4901 32.9421 94.2889L31.2308 90.0093C30.3604 90.6801 30.7455 91.4359 30.9165 91.9069C31.4305 93.5618 32.0439 95.1736 32.6429 96.7855C33.3844 98.7824 34.2835 100.736 34.8683 102.776C35.8161 105.906 37.0677 108.935 38.606 111.821C40.7023 116.1 42.2148 120.48 43.8983 124.873C44.5394 126.585 44.8251 128.426 45.3248 130.208C45.6239 131.349 45.9803 132.477 46.266 133.632C46.415 134.201 46.501 134.784 46.523 135.373C46.437 136.717 46.437 138.065 46.523 139.41C46.8612 141.762 46.7255 144.157 46.1236 146.456C46.0806 145.828 45.9946 145.201 45.9526 144.574V144.587ZM50.8598 132.833C51.0452 131.25 51.3586 129.68 51.5439 128.083C51.8296 125.615 52.058 123.148 52.3284 120.68C52.3866 120.155 52.4822 119.635 52.614 119.124C53.2533 116.088 53.2294 112.949 52.5424 109.923C52.3771 110.167 52.2567 110.437 52.186 110.722C52.0436 112.562 51.9576 114.388 51.8583 116.228C51.8583 116.885 51.8583 117.541 51.758 118.183C51.0729 122.463 50.3314 126.856 49.6893 131.193C49.5183 132.333 49.4467 133.49 49.333 134.645C49.333 135.472 49.333 136.3 49.2327 137.113H48.7482C48.6775 136.69 48.6938 136.258 48.7941 135.841C48.8944 135.424 49.0779 135.032 49.333 134.688V134.587C49.2193 134.445 49.0052 134.303 49.0196 134.174C49.376 129.624 49.8184 125.087 50.1031 120.536C50.2885 117.869 50.1891 115.201 50.3028 112.534C50.4174 110.108 50.6592 107.683 50.8455 105.244C50.9448 103.818 51.0729 102.548 51.1445 101.193C51.2726 98.9391 51.3299 96.6708 51.4589 94.4312C51.5076 93.9745 51.7083 93.5484 52.0293 93.2187C52.443 94.7876 52.8854 96.3431 53.2705 97.9263C54.1829 101.721 55.0963 105.516 55.9381 109.338C56.6289 111.945 56.5448 114.697 55.6954 117.255C54.7963 119.653 54.9817 122.148 54.6826 124.616C54.6826 125.201 54.5536 125.787 54.4399 126.371C53.9832 128.881 53.5408 131.392 53.0134 133.889C52.6857 135.458 52.2146 136.999 51.7866 138.667C53.0277 139.424 52.5997 140.494 52.0436 141.52C50.9162 143.532 49.7324 145.529 48.4339 147.783C48.2084 145.951 48.4692 144.09 49.1906 142.391C49.7935 140.903 50.2053 139.346 50.4174 137.755C50.6878 136.143 50.6735 134.459 50.8598 132.819V132.833ZM22.2008 128.383C22.4062 128.759 22.5409 129.17 22.6001 129.595C22.4109 131.604 21.7927 133.551 20.7886 135.301C20.4322 132.876 21.7297 130.793 21.7727 128.454L22.2008 128.383ZM20.9309 127.812C20.4322 129.523 19.9038 131.221 19.3764 132.919C19.3764 133.104 19.0764 133.233 18.8337 133.49C18.677 133.175 18.463 132.961 18.4916 132.804C18.9197 130.48 19.3621 128.183 19.8465 125.672C20.7456 126.242 21.2166 126.841 20.9309 127.769V127.812ZM27.7357 163.703C25.5955 160.222 23.9263 156.442 22.0297 152.79C21.6991 151.966 21.3131 151.166 20.8736 150.394C18.5489 147.084 17.6069 143.175 16.0953 139.509C14.729 136.362 13.0713 133.348 11.1451 130.508C9.57619 127.969 7.92134 125.53 6.35247 122.976C5.83844 122.066 5.40944 121.111 5.06834 120.123C4.28391 118.012 3.64186 115.843 2.78576 113.761C2.09305 111.451 1.83218 109.033 2.01563 106.628C9.14815 111.607 13.8701 118.34 19.1337 124.474L17.1654 131.236C16.9094 129.99 16.9725 128.699 17.3508 127.484C17.4932 126.328 17.6498 125.173 17.8209 123.932C17.0651 123.747 16.8368 124.074 16.7088 124.702C16.4938 125.957 16.1641 127.188 15.7246 128.383C15.3377 127.205 15.3673 125.931 15.8096 124.774C16.038 124.174 16.167 123.646 15.2536 123.233C14.8972 124.274 14.5828 125.23 14.1271 126.6C12.7856 124.688 11.7585 123.161 10.6034 121.549C9.93262 121.921 10.0329 122.605 10.4036 123.218C10.9884 124.174 11.7012 125.044 12.3432 125.972C13.2423 127.284 14.1271 128.625 15.0252 129.937C15.9243 131.25 16.7231 132.491 17.6785 133.675C18.634 134.859 20.0748 136.257 21.1736 137.627C21.7268 138.32 22.1606 139.101 22.4578 139.937C23.6272 142.99 24.726 146.071 25.8239 149.138C26.6943 151.284 27.2332 153.549 27.4214 155.857C27.6488 157.61 28.1953 159.307 29.0333 160.864C30.3317 163.717 31.7869 166.656 33.2277 169.523C33.9089 170.582 34.3915 171.758 34.6542 172.989C32.1719 169.751 29.6896 166.898 27.7357 163.66V163.703ZM40.0182 214.915C39.8529 215.414 39.5185 215.839 39.0732 216.118C38.628 216.397 38.0996 216.511 37.5789 216.441C37.3782 216.383 37.1938 216.282 37.0371 216.146C36.8804 216.008 36.7553 215.839 36.6712 215.649C36.5871 215.459 36.5451 215.252 36.5489 215.044C36.5527 214.836 36.6024 214.631 36.6942 214.444C36.8757 214.001 37.2158 213.641 37.6486 213.436C38.0814 213.23 38.5755 213.192 39.0331 213.332C39.8892 213.602 40.2599 214.201 40.0182 214.872V214.915ZM40.7596 196.185C40.3459 199.123 39.8749 202.076 39.6465 205.029C39.4898 207.198 39.6465 209.38 39.7325 211.663L36.8795 211.962C36.8145 211.542 36.7859 211.117 36.7935 210.692C36.9655 208.909 37.2216 207.14 37.3935 205.357C37.7929 201.278 38.1923 197.198 38.52 193.118C38.606 192.19 38.306 191.22 38.3633 190.265C38.4627 188.467 38.7054 186.67 38.8477 184.858C38.9156 184.281 38.8812 183.697 38.7484 183.132C38.434 182.005 37.9783 180.893 37.6209 179.78C37.0715 178.464 36.7811 177.055 36.7658 175.628C36.7409 174.68 36.548 173.742 36.1944 172.861C35.7893 171.552 35.3135 170.266 34.7679 169.01C34.0551 167.398 33.2277 165.842 32.4289 164.259L30.047 159.623L31.6445 154.844C30.218 154.759 30.4597 156.186 29.7613 156.684C28.9052 155.372 28.8202 155.258 29.6753 152.975C30.132 151.82 30.1177 150.365 31.4735 149.494L30.8457 148.311C29.0906 148.996 29.7757 151.036 28.5202 152.091C28.3186 151.852 28.1819 151.565 28.1217 151.258C28.0615 150.952 28.0806 150.634 28.1781 150.336C28.6482 148.996 29.1909 147.697 29.6046 146.357C29.7479 145.994 29.7871 145.599 29.7183 145.215C29.5568 144.649 29.3514 144.096 29.1049 143.56C28.5489 145.159 27.9927 146.756 27.45 148.354L26.9513 148.226C25.6815 146.042 27.4644 144.288 27.9928 142.306C27.7501 141.82 27.3507 141.82 27.0507 142.234C26.4803 143.047 25.9948 143.932 25.3251 145.087C24.5397 142.961 23.8986 141.007 23.0998 138.996C24.1843 137.576 24.725 135.815 24.6257 134.031C23.1992 133.547 23.7132 135.144 22.9565 135.458C22.8218 134.018 23.0473 132.567 23.6129 131.236C24.7824 131.777 24.9678 132.933 25.3108 133.832C26.3284 136.676 27.5733 139.433 29.0333 142.077C29.1785 142.454 29.2788 142.846 29.3332 143.247C30.4693 144.281 31.269 145.633 31.6302 147.127C32.0458 148.419 32.3888 149.733 32.6573 151.064L33.8555 155.814C35.282 159.823 36.7085 163.817 37.9066 167.882C38.2277 169.455 38.3758 171.057 38.349 172.662C38.436 175.742 38.8621 178.803 39.6188 181.791C39.7755 182.347 40.2322 182.832 40.3173 183.389C40.5313 184.986 41.4733 186.612 41.2593 188.067C40.8733 190.735 41.1304 193.46 40.7596 196.142V196.185ZM49.7324 171.32C47.8635 173.631 46.1093 176.028 44.3264 178.453C43.9126 179.01 43.5697 179.637 42.9992 180.536C42.9467 180.143 42.9467 179.744 42.9992 179.352C43.6595 176.759 44.849 174.33 46.4943 172.219C47.4583 170.984 48.3355 169.682 49.1189 168.325C52.1544 164.142 55.4623 160.163 59.0194 156.413C59.18 156.241 59.351 156.079 59.5325 155.929L59.8889 156.042C59.8383 156.415 59.7571 156.782 59.6462 157.141C58.9048 158.753 58.2197 160.365 57.3646 161.948C57.0951 162.462 56.7645 162.941 56.3795 163.374C54.1542 166.028 51.9003 168.61 49.7324 171.278V171.32ZM57.464 165.928C56.3938 166.721 55.2693 167.435 54.0979 168.068L53.8409 167.74C54.2546 167.369 54.6253 166.97 55.0533 166.627C55.4814 166.285 55.8664 166.242 56.0661 165.928C58.9191 161.221 63.1986 157.74 66.9794 153.874C68.8053 152.02 70.8729 150.408 72.6854 148.596C74.497 146.785 76.2226 144.93 77.9778 143.09C78.7479 142.277 79.5466 141.464 80.2594 140.608C80.5585 140.159 80.8116 139.681 81.0161 139.181C81.2005 138.664 81.4709 138.183 81.8149 137.755C83.0761 136.448 84.1166 134.945 84.8962 133.304C85.7666 132.111 86.7193 130.981 87.7492 129.923C88.5174 129.017 89.2092 128.048 89.8178 127.028C90.0614 126.405 90.1063 125.722 89.9458 125.073C92.1042 121.916 94.2635 118.773 96.4219 115.643L96.722 115.829C95.8372 117.555 94.9525 119.281 94.0543 120.993L88.1056 132.405C86.681 135.011 84.9726 137.45 83.013 139.68C79.5179 143.803 76.0515 147.926 72.4714 151.977C67.8011 156.96 62.7859 161.607 57.464 165.885V165.928ZM123.084 139.966C123.174 139.681 123.289 139.404 123.426 139.138C124.41 137.712 125.437 136.2 126.379 134.673C126.992 133.675 127.463 132.576 128.005 131.52L129.104 129.495C129.342 129.136 129.562 128.765 129.76 128.383C132.527 122.121 135.923 116.143 138.105 109.624C138.672 108.253 139.325 106.919 140.059 105.629C141.485 102.776 142.726 100.038 144.111 97.2842C144.639 96.2409 145.317 95.2806 146.122 94.4312L146.678 94.7456C146.536 95.1593 146.436 95.573 146.265 95.958C145.132 98.3257 144.001 100.703 142.87 103.091C142.156 104.517 141.357 106.057 140.687 107.584C139.845 109.481 139.161 111.45 138.305 113.29C137.177 115.787 135.979 118.24 134.767 120.68C133.14 123.961 131.329 127.17 129.831 130.508C128.382 133.693 126.495 136.661 124.225 139.324C124.084 139.498 123.91 139.642 123.71 139.745C123.511 139.848 123.293 139.909 123.07 139.923L123.084 139.966ZM33.2134 155.101L33.8841 155.772C33.7981 155.986 33.6988 156.2 33.4418 156.799C33.2277 156.028 33.0997 155.629 32.985 155.215L33.2134 155.101Z" fill="#D3D3D3"/>
</svg>

