<svg width="238" height="266" viewBox="0 0 238 266" fill="none" xmlns="http://www.w3.org/2000/svg">
<path d="M201.254 150.369C198.223 152.682 194.614 151.942 191.815 153.978C191.954 150.369 194.661 149.374 201.254 150.369ZM337.738 192.887C337.738 192.887 337.807 192.98 337.807 192.934L337.738 192.887ZM216.799 120.597C218.534 121.106 219.876 121.985 220.917 121.731C226.006 120.435 230.17 122.401 234.218 124.992C234.913 125.551 235.739 125.921 236.619 126.067C237.498 126.213 238.4 126.13 239.238 125.825C232.529 118.353 223.762 117.243 216.799 120.597ZM151.078 193.813C148.996 194.484 148.996 194.484 148.58 196.635L160.146 194.137C158.342 192.402 155.473 192.402 151.078 193.813ZM127.298 120.296C124.776 122.17 122.509 123.766 120.358 125.547C119.576 125.999 118.97 126.702 118.638 127.542C118.306 128.382 118.268 129.31 118.53 130.174C121.815 126.843 126.557 125.663 127.298 120.296ZM230.864 76.0659C233.432 75.9502 234.611 77.5464 236.022 78.5642C237.434 79.5821 238.336 80.7156 239.724 81.6409C242.285 83.3176 244.424 85.5641 245.973 88.2047C247.522 90.8453 248.439 93.8084 248.653 96.8624C248.96 100.726 248.275 104.604 246.664 108.128C245.721 110.676 245.427 113.419 245.808 116.109C246.007 118.953 246.471 121.772 247.196 124.53C247.936 127.953 248.028 127.953 252.123 128.416C252.817 123.489 255.801 119.602 258.253 115.438C258.878 114.397 259.896 113.125 259.664 112.107C259.063 109.401 260.752 107.966 262.163 106.278C263.042 105.237 263.805 104.08 264.73 103.062C265.455 102.382 266.228 101.756 267.044 101.188C270.058 106.375 272.31 111.969 273.729 117.798C274.27 119.668 274.298 121.649 273.809 123.534C273.321 125.418 272.334 127.136 270.953 128.508C270.134 129.279 269.362 130.098 268.64 130.961C267.575 132.184 266.601 133.482 265.725 134.847C264.727 136.159 264.259 137.798 264.413 139.439C264.567 141.081 265.333 142.604 266.558 143.707C269.982 147.616 273.498 151.387 276.991 155.273C279.651 158.35 282.15 161.589 284.717 164.735C285.666 165.891 286.614 167.048 287.748 168.343L289.645 166.886C287.206 163.145 285.626 158.911 285.018 154.487C284.829 153.896 284.736 153.279 284.74 152.659C285.619 148.472 285.828 144.031 289.228 140.769C290.477 139.566 291.542 138.039 292.675 136.836C296.535 133.296 300.961 130.426 305.768 128.347C306.786 131.331 308.429 133.621 306.485 136.674C305.838 137.692 306.485 139.774 306.971 141.301C307.857 143.831 308.175 146.525 307.903 149.191C307.631 151.857 306.776 154.432 305.398 156.731C305.144 157.147 304.959 157.749 304.588 157.98C300.101 160.617 301.211 165.105 300.841 169.13C300.6 172.603 300.183 176.062 299.592 179.494C299.368 180.446 299.389 181.439 299.651 182.382C299.914 183.324 300.411 184.184 301.095 184.883C304.426 188.397 307.459 192.181 310.164 196.196C311.576 198.794 313.121 201.319 314.79 203.76C317.936 207.901 321.152 211.995 324.275 216.182C325.709 218.102 326.958 220.161 328.624 222.636C329.111 221.065 329.171 219.392 328.797 217.79C328.423 216.188 327.628 214.715 326.495 213.522C320.435 206.582 316.201 198.879 316.363 189.418C316.301 182.904 318.038 176.5 321.383 170.911C321.568 170.634 321.984 170.472 322.54 170.078C325.454 171.698 325.269 175.445 327.536 177.55C329.803 179.655 331.747 182.015 334.106 184.49C334.661 183.611 335.24 182.732 335.772 181.83C336.333 180.727 336.951 179.654 337.622 178.614C339.589 176.047 340.768 174.612 344.562 177.157C344.686 181.789 344.524 186.425 344.076 191.037C343.521 196.959 340.953 201.493 338.339 206.467C337.322 208.154 336.828 210.104 336.918 212.072C337.009 214.04 337.681 215.937 338.848 217.524C339.194 218.186 339.406 218.909 339.473 219.652C340.121 222.567 340.699 225.482 341.439 228.373C341.786 229.785 342.018 231.589 342.989 232.399C344.527 233.855 346.487 234.786 348.587 235.059C353.398 235.355 358.108 236.564 362.467 238.621C363.712 238.963 364.994 239.149 366.284 239.177L359.876 227.957C358.668 225.784 357.911 223.39 357.648 220.918C357.386 218.446 357.624 215.946 358.349 213.568C359.339 210.581 359.475 207.376 358.743 204.315C358.176 202.779 357.495 201.286 356.707 199.851C358.211 199.642 359.483 199.064 360.177 199.457C361.889 200.498 363.948 200.961 365.22 202.95C366.427 204.52 367.928 205.84 369.638 206.837C372.484 208.803 375.468 210.584 378.406 212.435C381.668 208.34 384.559 204.57 389.972 203.644C390.18 208.271 392.471 211.764 394.021 215.627C395.061 218.607 395.181 221.831 394.367 224.88C393.835 227.425 392.771 229.831 392.054 232.329L388.214 244.728C393.897 246.876 399.814 248.343 405.841 249.101C416.117 250.574 426.201 253.165 435.914 256.827C436.863 257.174 437.834 257.382 438.783 257.66C439.626 257.871 440.413 258.265 441.088 258.812C441.763 259.36 442.311 260.048 442.692 260.829C443.544 262.172 444.487 263.455 445.514 264.669C445.954 265.247 446.625 265.849 446.694 266.473C447.041 269.527 449.123 271.563 450.696 273.922C451.668 275.403 453.31 276.768 451.807 278.896C451.064 279.711 450.117 280.313 449.063 280.638C448.01 280.963 446.888 281.001 445.815 280.746C437.688 278.037 429.771 274.736 422.127 270.869C420.23 269.92 418.264 269.111 416.344 268.255C408.432 264.669 400.521 261.06 392.586 257.521C391.129 256.873 389.44 256.734 387.96 256.087C385.253 254.884 382.639 253.45 379.979 252.131C379.474 251.804 378.94 251.525 378.383 251.298C376.37 250.674 374.357 250.072 372.322 249.586C371.616 249.483 370.899 249.483 370.194 249.586C369.685 251.715 369.129 253.612 368.782 255.532C368.557 256.435 368.651 257.389 369.047 258.231C369.443 259.074 370.118 259.755 370.957 260.158C377.706 264.62 385.194 267.847 393.072 269.689C394.275 269.99 395.547 270.059 396.727 270.383C399.079 270.97 401.395 271.689 403.667 272.534C403.981 272.797 404.228 273.132 404.385 273.511C404.542 273.89 404.605 274.3 404.569 274.709C404.24 277.697 402.949 280.498 400.891 282.69C400.263 283.402 399.431 283.904 398.509 284.128C397.586 284.351 396.616 284.285 395.732 283.939C391.106 282.551 386.479 281.371 381.853 279.729C379.698 278.797 377.694 277.55 375.907 276.027C373.432 274.13 371.142 272.025 368.759 270.036C367.256 268.787 365.729 267.584 363.809 269.573L359.46 262.934C359.09 266.82 358.673 269.712 358.581 272.604C358.458 273.288 358.563 273.994 358.881 274.613C359.198 275.232 359.711 275.729 360.339 276.027C360.561 276.135 360.758 276.29 360.913 276.482C361.069 276.674 361.181 276.898 361.241 277.138C361.704 280.307 364.248 281.556 366.515 283.06C369.823 285.373 373.085 287.548 376.463 289.653C386.215 295.963 397.42 299.674 409.011 300.433C414.308 300.756 419.629 300.918 424.926 301.335C431.139 301.867 437.197 303.562 442.785 306.331C445.561 307.673 445.514 308.645 443.247 310.958C440.98 313.271 439.176 315.585 437.094 317.898C436.137 319.133 434.815 320.035 433.315 320.476C431.816 320.916 430.216 320.872 428.743 320.35C424.949 319.147 421.132 318.037 417.292 317.042C414.031 316.279 410.653 315.978 407.368 315.4C400.594 314.323 394.085 311.968 388.191 308.46C383.217 305.36 378.082 302.538 373.317 299.207C368.551 295.875 364.387 292.105 359.784 288.427C358.095 289.676 358.349 291.804 357.864 293.678C357.008 297.032 356.129 300.386 355.088 303.694C354.648 305.105 353.954 306.655 352.08 306.517C350.207 306.378 350.16 304.897 349.536 303.648C348.31 301.335 346.829 299.021 345.441 296.708C343.533 293.843 341.78 290.878 340.19 287.825C338.525 284.24 338.224 283.893 334.176 285.512C334.546 280.885 334.916 276.629 335.286 272.28C331.885 271.956 328.739 271.817 325.663 271.285C322.528 270.73 319.436 269.957 316.409 268.972C313.402 268 310.511 266.659 306.994 265.247L320.55 251.668C317.913 248.592 315.6 245.839 313.24 243.179C313.031 242.959 312.78 242.782 312.502 242.659C312.224 242.536 311.925 242.469 311.621 242.461C307.665 242.461 303.663 242.461 299.754 242.993C296.908 243.34 295.405 245.677 294.433 248.245C293.809 249.864 293.253 251.506 292.675 253.149C292.048 255.512 290.716 257.628 288.856 259.215C286.997 260.802 284.697 261.785 282.265 262.032C282.066 265.281 282.874 268.512 284.579 271.285C287.378 275.912 287.748 280.932 288.419 285.951C288.57 287.449 288.342 288.961 287.756 290.347C287.169 291.734 286.244 292.951 285.064 293.886C284.146 294.493 283.397 295.322 282.888 296.297C282.378 297.272 282.124 298.361 282.15 299.461L277.939 299.947C274.493 296.292 271.439 293.007 268.247 289.699C266.556 288.02 265.439 285.85 265.054 283.499C264.453 279.937 264.036 276.351 263.504 272.789C263.277 270.921 263.765 269.037 264.869 267.514C266.396 265.201 267.645 262.587 269.149 259.904C266.965 258.154 264.185 257.324 261.399 257.59C257.999 258.076 257.49 257.59 256.333 255.069C255.616 253.542 256.079 252.409 257.49 252.224C259.988 251.9 260.913 250.049 262.116 248.36C265.586 243.734 269.403 239.5 275.256 237.858C276.566 237.539 277.895 237.299 279.235 237.141C280.391 236.979 281.548 236.886 283.445 236.678C280.722 234.749 277.696 233.288 274.493 232.352C268.409 230.039 264.152 233.255 259.641 236.377C255.13 239.5 253.511 244.405 253.21 249.91C253.21 251.761 251.36 253.565 250.319 255.346C249.278 257.128 248.19 258.377 247.427 259.973C246.498 262.431 244.782 264.514 242.546 265.895C240.811 266.844 239.377 268.208 237.642 269.226C235.167 270.591 233.316 269.828 233.154 267.075C232.992 264.322 230.841 261.916 231.442 258.793C231.879 255.93 232.111 253.038 232.136 250.142C229.036 248.985 225.983 247.689 222.883 246.764C221.465 246.336 219.952 246.336 218.534 246.764C217.404 247.147 216.179 247.147 215.049 246.762C213.92 246.377 212.949 245.63 212.288 244.636C210.599 242.646 209.049 240.541 207.546 238.413C206.042 236.285 206.343 235.105 208.795 234.11C211.779 232.884 214.879 231.959 217.863 230.756C221.057 229.673 224.153 228.318 227.116 226.708C229.681 225.203 232.535 224.257 235.49 223.932C237.111 223.704 238.759 224.083 240.117 224.996C242.638 226.569 245.391 227.841 248.237 224.996C249.293 224.36 250.497 224.009 251.73 223.978C252.939 223.924 254.126 223.633 255.223 223.122C253.372 222.451 251.498 221.873 249.671 221.133C247.843 220.393 245.646 219.282 243.61 218.449C241.985 217.631 240.258 217.032 238.475 216.668C232.067 215.838 225.773 214.285 219.714 212.042C218.505 211.746 217.275 211.544 216.036 211.44C214.092 211.047 212.126 210.769 210.183 210.353C208.24 209.936 205.695 209.242 203.451 208.664C202.725 209.885 202.259 211.242 202.084 212.652C201.909 214.062 202.028 215.492 202.433 216.853C202.734 219.167 203.197 221.249 203.544 223.469C203.83 224.744 203.812 226.068 203.49 227.334C203.169 228.6 202.553 229.773 201.693 230.756C200.994 231.766 200.383 232.834 199.866 233.948C198.569 236.203 197.132 238.374 195.563 240.449C193.689 242.762 191.515 242.323 190.404 239.547C189.494 236.882 188.722 234.172 188.091 231.427C187.929 230.849 187.744 230.293 187.605 229.831C183.557 231.288 179.671 232.491 176.039 234.087C173.889 235.206 171.824 236.481 169.862 237.904C165.49 235.591 164.75 232.028 165.629 227.749C166.108 225.818 166.441 223.854 166.624 221.873C166.809 217.247 169.747 214.424 173.147 212.042C175.282 210.77 177.189 209.152 178.792 207.253C179.557 206.275 180.665 205.622 181.891 205.426C184.436 205.194 186.796 203.667 189.548 204.616C190.589 204.986 192.116 204.616 192.209 202.303C190.335 201.331 188.345 200.128 186.24 199.226C182.866 197.633 179.398 196.251 175.854 195.085C173.078 194.275 170.047 192.309 166.994 195.27C167.202 196.543 167.318 197.907 167.641 199.203C168.042 200.45 168.178 201.766 168.04 203.069C167.902 204.371 167.493 205.63 166.84 206.765C166.186 207.9 165.302 208.886 164.245 209.659C163.188 210.432 161.981 210.976 160.702 211.255L138.656 217.455C138.183 217.558 137.704 217.628 137.222 217.663C135.07 213.568 135.07 213.568 135.394 205.888L125.539 203.228C124.105 202.835 122.625 202.534 121.19 202.118C120.873 202.087 120.568 201.973 120.308 201.788C120.048 201.602 119.841 201.352 119.707 201.062C119.574 200.772 119.519 200.452 119.548 200.134C119.577 199.815 119.688 199.511 119.872 199.249C120.629 197.86 121.688 196.658 122.972 195.733C125.031 194.414 127.413 193.581 129.611 192.448C132.965 190.69 136.551 189.603 139.859 187.474C141.783 185.991 144.044 185.004 146.44 184.6C148.836 184.197 151.295 184.389 153.6 185.161C154.189 185.317 154.795 185.402 155.404 185.416C155.404 184.999 155.404 184.56 155.543 184.12C152.674 182.316 149.829 180.488 146.961 178.73C144.647 177.226 142.126 175.7 139.627 174.335C138.148 173.425 136.542 172.739 134.862 172.299C132.782 171.931 130.805 171.122 129.065 169.924C127.325 168.727 125.863 167.17 124.776 165.359C124.037 164.065 122.902 163.043 121.537 162.445C117.085 161.128 113.325 158.122 111.058 154.07H108.19C104.859 154.07 103.771 154.626 103.355 157.91C102.487 162.81 100.465 167.433 97.4559 171.397C96.8324 172.408 95.9841 173.262 94.9771 173.891C93.9701 174.521 92.8314 174.911 91.6496 175.029C90.1922 175.214 88.8505 175.33 88.249 177.342C87.9251 178.476 86.4446 179.285 85.4499 180.211C83.1366 182.339 81.1241 181.691 80.4532 178.545C80.0599 176.602 79.9211 174.589 79.6667 172.623C79.6667 171.767 79.4585 170.911 79.366 170.078C70.5414 168.679 61.8672 166.456 53.457 163.439C53.3931 162.499 53.7019 161.571 54.3166 160.857C54.9314 160.143 55.8026 159.699 56.7419 159.622C58.2758 159.367 59.7431 158.807 61.058 157.977C62.3728 157.147 63.5086 156.062 64.3989 154.788C66.825 151.794 69.9242 149.416 73.4439 147.848C79.0421 145.049 84.5477 143.684 90.516 146.483C91.3141 146.81 92.1778 146.944 93.0375 146.876C95.3508 146.876 97.8261 146.483 100.926 146.182C98.0095 143.653 94.9173 141.334 91.6727 139.242C87.2387 136.734 83.4521 133.225 80.6151 128.994C77.4922 124.506 73.1663 124.021 68.5166 123.998C67.7532 123.998 66.6428 125.154 66.2033 126.033C65.0929 128.347 64.2833 130.868 63.3579 133.32C62.7038 135.402 61.4204 137.229 59.6845 138.55C57.9486 139.872 55.8456 140.623 53.6652 140.7C47.3919 141.235 41.1618 139.264 36.3387 135.217C33.5396 132.904 33.7709 131.146 37.102 129.873C38.5884 129.394 39.9555 128.604 41.1123 127.555C42.2691 126.506 43.1889 125.222 43.8106 123.789C42.5457 122.618 41.3918 121.333 40.3638 119.949C39.6642 118.615 39.1283 117.202 38.7676 115.739C39.2534 115.161 39.4153 114.768 39.7161 114.652C44.0651 113.033 47.4193 109.354 52.231 108.684C53.0685 108.443 53.9476 108.385 54.8095 108.513C55.6713 108.641 56.4958 108.951 57.2277 109.424C59.4253 111.205 61.5767 113.056 63.7512 114.883L67.013 117.59L71.1306 115.67L62.6871 107.457C61.623 106.44 60.6051 105.376 59.5179 104.358C59.0181 103.82 58.4411 103.36 57.806 102.993C55.4927 101.906 53.3182 100.934 50.7505 99.7771C49.2571 101.014 47.8287 102.326 46.4709 103.71C45.0585 105.384 43.1835 106.604 41.0806 107.217C38.9778 107.831 36.7408 107.81 34.65 107.157C32.5911 106.648 30.5554 106.093 28.5197 105.537C28.0339 105.537 27.4093 105.537 27.1086 105.098C26.8079 104.658 25.79 103.756 25.8132 103.085C25.8363 102.415 26.8079 101.952 27.4787 101.582C28.5891 101.027 29.792 100.61 31.0643 100.078L29.954 98.3892L34.5806 94.017C33.5247 93.7631 32.4489 93.6006 31.3651 93.5312C25.79 93.8551 21.2328 91.403 16.8607 88.4189C16.0123 87.9087 15.2984 87.2027 14.7787 86.36C11.9797 80.438 6.63597 76.8293 2.37951 72.2489C1.6384 71.4817 1.16226 70.4975 1.02074 69.4403C0.87922 68.383 1.07975 67.3082 1.59298 66.3732C1.83527 65.9682 2.15559 65.6155 2.53534 65.3354C2.91509 65.0552 3.34671 64.8534 3.80513 64.7415C4.26355 64.6295 4.73963 64.6098 5.20574 64.6834C5.67184 64.757 6.11868 64.9225 6.5203 65.1702C9.60158 66.4424 12.9321 66.9962 16.2592 66.7896C18.483 66.7847 20.6933 67.1361 22.8059 67.8305C26.6615 69.1363 30.4317 70.6815 34.0948 72.4571C37.7729 74.2615 41.0346 76.6673 40.8264 81.5484C42.3764 82.0804 43.7643 82.6356 45.1754 83.0752C46.2164 83.3759 47.2805 83.5609 48.923 83.9311C48.923 80.9238 48.761 78.3098 48.6685 75.0712C45.8463 76.6211 44.1576 75.2331 41.9831 74.1921C36.8948 71.5011 32.7173 67.3637 29.9771 62.3018C27.1153 58.008 25.9147 52.8192 26.5997 47.7049C27.6962 42.4671 28.308 37.1394 28.4272 31.7894C28.4791 31.2008 28.6593 30.6308 28.955 30.1192C29.2508 29.6077 29.6549 29.1671 30.139 28.8284C30.7621 28.5018 31.4891 28.4353 32.1611 28.6434C32.833 28.8515 33.3952 29.3172 33.7246 29.9388C35.5521 32.599 37.2177 35.375 38.9527 38.1047L43.2323 45.0446L46.494 41.1814C49.0155 45.3684 51.4213 49.0466 53.4339 52.9098C54.356 55.0714 55.0912 57.3081 55.6315 59.5952C58.3565 58.0407 60.4025 55.5244 61.3685 52.5396C61.6461 51.5912 62.8259 50.8972 63.9594 50.2264C63.9594 54.6447 65.9488 58.2535 66.9898 62.1167C67.7866 64.7357 67.9923 67.4989 67.5923 70.207C67.1923 72.9152 66.1964 75.5009 64.6765 77.7777C62.8028 80.5305 60.7439 83.1908 58.7082 85.8742C58.2816 86.4056 58.032 87.0573 57.9947 87.7377C57.9574 88.4181 58.1341 89.0932 58.5 89.668C60.1887 93.1149 61.6692 96.6079 63.3348 100.124C63.7206 100.881 64.336 101.497 65.0929 101.882C66.9436 102.831 68.8636 103.571 71.0612 104.52C65.5787 93.1843 69.627 83.6997 76.7751 74.9555C79.9674 76.6442 78.5563 80.4611 80.4301 82.4506C82.3038 84.44 82.327 87.6786 83.0904 90.2695C83.5068 90.2695 83.8537 90.2695 83.9694 90.2695C85.3449 88.7563 87.2097 87.7761 89.2361 87.5011C91.2625 87.2261 93.321 87.6739 95.0501 88.7659L99.4916 91.0792C99.0252 95.5754 97.4933 99.8956 95.0231 103.682C92.5529 107.467 89.2156 110.61 85.288 112.847C84.941 115.161 86.2827 117.705 84.1776 119.787C84.7142 121.113 85.4303 122.358 86.3058 123.489C88.4341 125.594 90.9324 127.329 93.0838 129.341C95.2352 131.354 97.9186 133.968 100.324 136.281C100.764 136.698 101.18 137.183 101.666 137.577C105.044 140.283 108.421 143.013 111.822 145.696C112.567 146.222 113.339 146.708 114.135 147.154C114.301 146.222 114.34 145.273 114.251 144.331C113.086 140.525 110.95 137.089 108.051 134.361C104.951 131.192 103.193 127.676 104.697 122.98C105.194 120.804 105.389 118.57 105.275 116.341C105.295 114.654 105.668 112.991 106.369 111.457C107.07 109.923 108.084 108.553 109.346 107.434C111.868 105.044 114.041 102.311 115.8 99.3145C115.962 99.0369 116.333 98.875 116.865 98.4586C117.258 99.1757 117.605 99.7771 117.859 100.379C118.158 101.325 118.513 102.252 118.923 103.155C121.075 106.902 123.319 110.58 125.724 114.606L133.15 114.397C133.564 115.047 133.784 115.802 133.784 116.572C133.784 117.342 133.564 118.097 133.15 118.746C132.484 120.158 132.039 121.664 131.832 123.211C131.709 125.689 131.169 128.129 130.235 130.429C129.803 131.886 128.917 133.167 127.706 134.086C126.496 135.006 125.024 135.515 123.504 135.541C122.162 135.541 120.843 135.98 119.525 136.189C119.71 139.867 119.71 139.89 122.995 143.846C123.368 142.618 123.654 141.366 123.851 140.098C123.851 138.687 124.383 137.785 125.748 137.368L130.767 141.116C133.081 138.363 134.908 135.98 136.875 133.598C137.227 133.288 137.514 132.912 137.72 132.492C137.927 132.071 138.048 131.613 138.077 131.146C138.368 129.749 139.065 128.469 140.082 127.469C141.099 126.468 142.39 125.792 143.791 125.524C144.202 125.423 144.63 125.411 145.046 125.489C145.462 125.566 145.857 125.733 146.203 125.976C146.55 126.219 146.84 126.534 147.054 126.899C147.269 127.264 147.402 127.671 147.446 128.092C148.441 131.77 149.644 135.402 150.87 139.011C151.68 141.463 152.698 143.869 153.507 146.321C153.794 147.153 153.794 148.057 153.507 148.889C151.379 153.515 149.551 158.281 144.647 161.265C144.462 162.653 144.231 164.365 144 165.891C148.043 169.997 152.731 173.412 157.879 176C159.406 176.81 160.725 178.036 162.228 178.869C163.733 179.658 165.277 180.368 166.855 180.997C167.341 181.108 167.819 181.247 168.289 181.414C171.898 183.31 175.46 185.277 179.069 187.127C181.012 188.122 183.002 188.955 185.685 190.204C185.006 187.525 183.357 185.192 181.059 183.657C178.051 181.737 175.483 179.031 171.805 178.291C170.556 178.036 169.654 176.347 168.497 175.468C164.159 172.073 160.936 167.456 159.244 162.213C157.37 156.708 156.075 151.04 154.618 145.534C156.422 144.193 157.81 143.406 159.244 145.025C162.691 148.819 167.341 150.531 171.852 152.544C173.704 153.474 175.63 154.248 177.612 154.857C176.27 153.654 174.882 152.544 173.587 151.225C172.291 149.906 172.522 149.074 173.841 147.801C176.59 145.422 180.026 143.98 183.649 143.684C183.17 143.141 182.626 142.66 182.03 142.249C179.109 140.802 176.727 138.46 175.229 135.564C173.679 133.043 173.633 132.996 175.368 130.706C176 129.893 176.406 128.927 176.548 127.907C175.969 128.185 175.368 128.416 174.813 128.717C174.266 129.02 173.76 129.394 173.309 129.827C169.168 133.991 164.38 133.158 159.637 131.423C156.565 130.403 153.753 128.721 151.402 126.496C149.297 124.414 146.775 122.633 144.601 120.69C143.667 120.044 142.833 119.265 142.126 118.376C140.946 116.456 139.812 114.814 137.314 115.832C136.134 113.912 136.828 112.686 138.17 112.084C139.983 111.341 141.866 110.783 143.791 110.419C145.781 110.025 147.84 109.886 149.922 109.632C146.267 105.422 142.82 101.605 139.535 97.6258C138.428 96.0084 137.409 94.3327 136.481 92.6059C135.417 90.9404 134.816 88.8584 132.155 88.7196C131.3 88.7196 130.374 87.5861 129.634 86.8227C126.002 83.0289 123.134 78.3329 117.35 77.1994C116.045 76.7346 114.808 76.0966 113.672 75.3025C112.539 76.1815 111.544 77.1068 110.41 77.824C108.171 79.4248 105.506 80.3235 102.754 80.4059C100.003 80.4883 97.2888 79.7506 94.9576 78.2866C91.2587 76.5054 87.9245 74.0499 85.1261 71.046C83.9416 69.9856 82.4826 69.2802 80.9159 69.0103C76.5669 67.8305 75.4565 65.1934 77.5153 61.1451C77.9024 60.0327 78.6683 59.0918 79.679 58.4871C80.6897 57.8824 81.8809 57.6523 83.0441 57.8371C86.3758 58.2899 89.768 57.8838 92.8987 56.6573C94.4802 56.3912 96.0876 56.3136 97.6873 56.426C103.401 55.8014 107.38 59.3176 111.567 62.1167C112.668 62.9639 113.904 63.6207 115.222 64.0599C114.528 62.8107 113.904 61.5152 113.14 60.3123C111.269 57.1169 109.223 54.0278 107.01 51.0591C106.226 49.8426 105.094 48.8899 103.762 48.3248C102.429 47.7596 100.958 47.6081 99.5379 47.8899C98.2759 48.2243 96.9376 48.1182 95.7441 47.5892C91.1175 44.4431 86.0282 41.6903 84.1776 35.5601C82.5737 31.0306 80.7281 26.5904 78.6488 22.2586C80.7771 20.2692 83.4142 22.1198 85.7507 22.2586C88.3195 22.657 90.8146 23.4367 93.1532 24.5719C95.4665 25.4741 97.9417 26.5382 100.463 27.5561C101.389 26.2375 100.718 24.8958 100.463 23.4615C99.376 18.1641 98.9133 12.9129 103.031 8.5176C104.627 6.82889 105.344 4.35366 107.796 3.38208C108.19 3.24328 108.12 2.0635 108.398 1.41578C109.069 -0.22666 110.711 -0.527388 111.521 0.976254C114.311 5.07715 116.771 9.39349 118.877 13.8845C119.605 16.5029 119.605 19.2701 118.877 21.8885C118.053 26.9488 116.048 31.7436 113.025 35.8839C112.119 36.9238 111.572 38.2271 111.464 39.6016C111.355 40.9761 111.692 42.349 112.423 43.5178C113.765 45.993 115.523 48.2601 117.489 51.2211C118.391 49.2779 118.993 47.8899 119.802 46.5945C121.352 43.5409 123.643 40.7418 122.602 36.8786C122.231 35.4907 123.619 35.0511 124.73 34.7504C125.314 34.5144 125.967 34.5125 126.553 34.7451C127.139 34.9777 127.613 35.4269 127.876 35.9996C129.403 38.8449 131.022 41.644 132.502 44.4662C132.873 45.114 133.104 45.8542 133.52 46.4557C137.638 52.7941 137.337 59.4101 134.561 66.0493C133.278 68.7386 132.494 71.6388 132.248 74.6085C132.118 75.5982 132.266 76.6046 132.674 77.5155C133.082 78.4263 133.736 79.2058 134.561 79.7671C135.186 80.1604 135.672 80.785 136.319 81.132C137.845 82.0003 139.149 83.2104 140.128 84.6674C141.108 86.1244 141.736 87.7886 141.964 89.5292C142.237 90.903 142.839 92.1904 143.717 93.2819C144.595 94.3734 145.724 95.2366 147.007 95.7983C147.215 92.7447 147.331 90.1307 147.539 87.5167C147.747 84.9027 148.071 82.4043 148.349 79.744C152.975 78.7724 156.283 81.4558 159.915 83.9542C159.267 82.2424 158.781 80.9469 158.18 79.3276L170.07 75.3719C168.942 74.7851 167.775 74.275 166.577 73.8451C161.987 72.5469 157.775 70.1671 154.294 66.9052C149.898 62.9263 145.272 58.9937 143.375 53.0254C142.656 50.9361 142.182 48.7701 141.964 46.5713C141.802 44.4662 142.889 43.5641 145.041 43.9111C147.107 44.317 149.124 44.9453 151.055 45.7848C155.067 47.7493 159.299 49.2249 163.663 50.1801C166.09 50.6497 168.262 51.9908 169.77 53.9508C171.736 56.2641 174.165 58.2998 176.177 60.6593C178.687 63.5919 180.647 66.954 181.961 70.5834C183.279 74.1921 186.402 75.9733 190.15 78.0553C189.956 77.0854 189.825 76.1041 189.757 75.1174C189.757 72.8041 189.757 70.4908 189.757 68.1775C189.757 65.8642 190.127 64.2218 190.289 62.2555C190.37 60.1323 191.07 58.0792 192.303 56.3488C193.536 54.6185 195.248 53.2864 197.228 52.5165L199.542 56.7499C200.837 59.0631 202.063 61.5384 203.474 63.8517C205.279 66.8127 207.153 69.7274 209.165 72.5497C211.014 75.2666 211.901 78.5236 211.687 81.8028C211.527 83.772 210.849 85.6638 209.72 87.2853C208.909 88.2387 208.497 89.4687 208.57 90.7186C208.643 91.9685 209.196 93.1419 210.114 93.9939C211.548 95.567 212.82 97.2325 214.208 98.8518C215.596 100.471 216.915 102.068 218.326 103.594C219.02 104.358 219.853 105.005 221.264 106.278C220.708 102.6 220.223 99.8697 219.899 97.0243C219.565 94.7257 219.387 92.4071 219.367 90.0844C219.432 88.6997 219.787 87.3441 220.409 86.105C221.031 84.8659 221.905 83.7707 222.975 82.8901C223.315 84.4429 224.004 85.898 224.99 87.1446C225.976 88.3913 227.233 89.3967 228.666 90.0844C229.76 90.4786 230.906 90.7124 232.067 90.7784C231.438 88.1287 231.741 85.3434 232.923 82.8901C233.27 82.3812 232.923 81.2708 232.552 80.5768C232.229 79.05 231.581 77.7314 230.864 76.0659ZM78.9496 164.434C80.1085 163.977 81.1401 163.247 81.9568 162.306C84.2684 159.772 85.5762 156.482 85.635 153.053C82.4889 153.978 79.2272 154.047 77.2377 156.869C75.2483 159.692 71.6858 160.039 68.2853 161.01C68.7479 158.859 70.4135 159.021 71.547 158.443C72.6805 157.864 74.8782 157.332 75.6647 156.129C76.3525 155.104 77.243 154.23 78.2814 153.561C79.3198 152.893 80.484 152.444 81.7024 152.243C83.0331 152.023 84.2922 151.489 85.3746 150.684C86.457 149.879 87.3314 148.827 87.9251 147.616C84.5739 147.831 81.2466 148.326 77.978 149.097C71.5923 151.244 66.1585 155.556 62.6177 161.288C65.8332 164.064 75.1789 166.03 78.9496 164.434ZM85.2417 168.575C86.9373 166.43 88.3883 164.102 89.5676 161.635C90.7639 157.896 92.5525 154.374 94.865 151.202C94.3515 151.708 93.7671 152.137 93.1301 152.474C91.6308 152.882 90.3187 153.796 89.4164 155.061C88.5141 156.326 88.0771 157.864 88.1796 159.414C88.1591 160.66 87.8646 161.886 87.3169 163.006C86.7691 164.125 85.9817 165.11 85.0104 165.891C81.5867 168.806 82.2113 172.253 83.6224 176.417C85.3574 173.502 87.7401 171.582 85.2417 168.575ZM103.008 150.369C99.6998 148.842 97.1552 148.542 94.865 151.063L98.7514 152.243C97.5716 153.469 96.7851 154.209 96.0911 154.996C95.2195 155.858 94.4439 156.812 93.7778 157.841C91.8809 161.496 90.1228 165.22 88.2953 168.922C88.9199 169.384 89.5213 168.737 90.1922 168.667C91.2343 168.627 92.2285 168.219 92.999 167.517C93.7696 166.814 94.2666 165.861 94.4024 164.827C95.353 162.288 96.5786 159.86 98.0574 157.587C98.335 157.055 99.0058 156.569 99.0058 156.06C98.9942 154.812 99.3741 153.592 100.092 152.571C100.81 151.55 101.83 150.78 103.008 150.369ZM337.738 192.934C338.085 195.663 338.432 198.393 338.848 201.609C342.457 197.977 341.324 193.72 342.18 190.042C342.92 186.177 342.616 182.185 341.3 178.476C339.099 180.08 337.535 182.41 336.883 185.055C336.232 187.7 336.534 190.49 337.738 192.934ZM334.684 221.665C334.985 215.234 335.24 209.543 335.517 203.876C335.757 202.415 335.873 200.937 335.864 199.457C335.384 194.265 333.289 189.355 329.873 185.416L322.239 176.926C315.715 184.583 320.296 206.999 329.179 212.944C329.943 211.265 330.362 209.449 330.409 207.605C330.457 205.761 330.133 203.926 329.456 202.21C328.986 200.786 328.341 199.427 327.536 198.162C325.384 194.795 323.82 191.087 322.91 187.197C322.55 186.514 322.448 185.725 322.622 184.973C322.797 184.221 323.235 183.557 323.858 183.102C324.444 184.012 324.977 184.954 325.454 185.924C327.074 189.811 328.508 193.79 330.289 197.491C332.297 201.345 333.103 205.712 332.603 210.029C332.427 213.12 332.574 216.221 333.042 219.282C333.32 219.999 334.014 220.578 334.684 221.665ZM162.691 68.4551C163.853 68.8972 164.989 69.407 166.092 69.9819C168.572 71.336 171.321 72.1259 174.142 72.2952C171.828 67.6686 171.551 67.2985 167.595 65.8642C165.371 65.154 163.098 64.6051 160.794 64.2218C159.059 63.8517 157.093 63.8979 156.422 61.9085C157.047 60.081 160.1 62.3943 159.475 59.2482C161.257 60.2429 162.737 61.1451 164.287 61.8854C165.962 62.6965 167.694 63.3846 169.469 63.9442C171.388 64.5563 173.087 65.7132 174.361 67.2739C175.634 68.8347 176.426 70.7319 176.64 72.7347L178.144 72.4803C177.592 69.2882 176.212 66.2969 174.142 63.8054C171.908 61.14 169.513 58.6138 166.971 56.2409C165.512 54.8902 163.712 53.9625 161.766 53.5575C159.517 53.0468 157.352 52.2213 155.335 51.1054C152.096 49.6018 148.857 48.0981 145.156 46.34C145.018 47.1043 144.933 47.8772 144.902 48.6533C144.942 49.2764 145.067 49.8911 145.272 50.4808C146.498 54.6659 148.725 58.4896 151.76 61.6212C154.794 64.7529 158.546 67.0985 162.691 68.4551ZM175.206 94.4797C178.375 98.1347 182.47 98.5974 186.772 98.3429C188.86 98.0709 190.798 97.1104 192.278 95.6132C192.804 94.9121 193.517 94.3747 194.336 94.0635C195.155 93.7523 196.046 93.68 196.905 93.8551C196.905 93.5775 196.905 93.3231 196.905 93.0686C195.673 92.2556 194.323 91.6391 192.903 91.2411C188.986 90.7138 185.029 90.5435 181.082 90.7322C179.474 90.7862 177.872 90.5171 176.37 89.941C174.868 89.3648 173.497 88.4933 172.337 87.3779C171.296 86.5451 171.782 85.666 172.777 85.0646C180.018 88.5114 182.169 88.8815 188.16 87.7249C180.596 78.8418 169.654 76.1584 161.835 81.7334C163.547 83.399 165.189 85.0646 166.901 86.6608C169.631 89.2979 172.708 91.6343 175.206 94.4797ZM167.456 93.4156C168.354 94.0746 169.012 95.0087 169.33 96.0759C169.955 100.703 171.412 105.329 170.14 109.956C170.008 110.907 170.195 111.875 170.672 112.709C171.32 114.027 172.407 115.022 172.985 116.433C173.791 118.191 175.24 119.573 177.033 120.296C179.027 121.039 180.729 122.401 181.891 124.183C182.158 124.754 182.617 125.212 183.188 125.479C183.759 125.745 184.405 125.802 185.014 125.64C191.723 124.021 196.997 127.467 202.225 130.752C203.638 131.769 204.825 133.066 205.713 134.563C206.601 136.059 207.17 137.723 207.384 139.45C207.638 140.63 207.939 142.273 208.749 142.735C212.11 144.542 215.719 145.844 219.459 146.598C218.598 145.727 217.824 144.774 217.146 143.753C214.833 139.127 212.704 134.361 210.507 129.642C210.253 129.212 210.103 128.729 210.067 128.231C210.169 127.365 210.331 126.507 210.553 125.663L215.85 126.334C212.228 123.864 208.076 122.279 203.729 121.707C202.749 121.568 201.811 121.221 200.976 120.69C199.611 119.88 198.038 119.186 198.408 117.058C198.778 114.929 199.403 113.171 201.786 112.732C203.127 112.5 204.492 112.454 205.811 112.2C208.61 111.621 211.825 112.57 214.509 109.886C210.044 105.954 205.811 101.975 201.277 98.3198C199.715 97.3097 197.885 96.7938 196.026 96.8393C195.054 96.8393 194.013 98.019 192.995 98.6668L192.07 99.3145C190.668 100.39 189.057 101.163 187.341 101.582C185.625 102.002 183.839 102.061 182.099 101.754C180.359 101.447 178.702 100.782 177.232 99.8006C175.763 98.8191 174.513 97.5428 173.563 96.0527C172.14 94.0207 170.313 92.3039 168.197 91.0098C165.865 89.3365 163.633 87.5291 161.511 85.5966C162.835 88.6435 164.874 91.3258 167.456 93.4156ZM241.065 140.538C243.055 143.198 244.767 146.066 246.525 148.889C247.866 151.168 248.396 153.834 248.028 156.453C247.658 159.877 247.196 163.393 246.756 166.794C248.544 169.581 251.144 171.752 254.205 173.016C253.812 169.685 253.349 166.539 253.095 163.37C252.993 161.886 253.126 160.395 253.488 158.951C254.228 156.222 256.032 155.782 258.114 157.656C258.67 158.165 259.179 158.72 259.687 159.252C262.866 162.885 266.523 166.068 270.56 168.714C272.327 169.654 273.831 171.021 274.938 172.689C276.045 174.357 276.718 176.274 276.898 178.267C277.468 181.947 278.24 185.592 279.212 189.186C279.312 189.999 279.693 190.75 280.288 191.312C280.884 191.874 281.657 192.21 282.473 192.263C287.447 192.772 292.444 193.188 297.417 193.651C297.417 193.373 297.602 193.073 297.718 192.795C297.117 192.147 296.585 191.453 295.96 190.875C290.986 186.248 285.689 181.83 282.936 175.306C282.724 174.857 282.443 174.443 282.103 174.08C276.736 167.572 271.339 161.087 265.91 154.626C264.222 152.636 262.394 150.786 260.567 148.935C259.43 147.665 258.149 146.531 256.75 145.557C253.842 144.104 251.482 141.751 250.018 138.849C249.792 138.287 249.416 137.799 248.931 137.438C246.802 136.004 244.628 134.592 242.407 133.251C241.76 132.901 241.038 132.711 240.302 132.696C236.393 132.418 232.483 132.187 228.157 131.932C231.234 134.431 233.732 136.929 237.41 137.924C238.889 138.37 240.18 139.288 241.089 140.538H241.065ZM282.705 199.943C281.439 198.949 280.391 197.705 279.628 196.288C276.389 191.847 276.32 186.48 275.395 181.39C274.678 177.55 274.122 173.548 270.259 171.582C265.572 168.755 261.252 165.359 257.397 161.473L256.032 160.316C255.628 164.495 255.989 168.712 257.097 172.762C257.54 174.52 257.811 176.318 257.906 178.129C257.881 179.55 258.146 180.961 258.682 182.277C259.219 183.594 260.018 184.787 261.029 185.786C264.083 188.515 267.136 191.199 270.814 194.437C268.871 188.862 267.136 184.166 265.609 179.378C264.964 177.098 264.462 174.78 264.106 172.438C263.921 171.397 264.106 170.425 265.933 170.125C266.281 171.061 266.567 172.019 266.789 172.993C266.826 174.194 266.934 175.391 267.113 176.579C267.923 179.424 268.964 182.223 269.843 185.045C270.352 186.642 270.259 188.7 271.254 189.834C274.631 193.79 277.037 198.532 281.294 201.794C281.995 202.271 282.59 202.886 283.044 203.602C283.497 204.319 283.799 205.12 283.931 205.958C283.843 206.83 283.975 207.71 284.314 208.518C284.653 209.326 285.19 210.036 285.874 210.584C287.91 212.389 289.76 214.424 291.727 216.298C296.353 220.647 300.98 225.019 305.606 229.276C306.347 229.947 307.55 230.039 308.475 230.502C309.4 230.964 310.302 232.005 311.251 230.108C306.879 226.315 302.738 222.151 298.019 218.82C295.329 216.969 292.935 214.723 290.917 212.157C289.32 210.438 288.113 208.394 287.378 206.166C287.063 204.853 286.476 203.621 285.655 202.549C284.835 201.477 283.798 200.589 282.612 199.943H282.705ZM303.756 217.501C302.992 217.316 302.183 217.293 300.702 217.085C306.046 221.711 311.089 225.829 315.507 230.432C318.838 233.902 322.655 234.272 327.398 234.249C326.542 232.676 325.917 231.381 325.084 230.155C323.118 227.032 320.851 224.048 319.139 220.902C318.785 220.045 318.259 219.27 317.593 218.625C316.927 217.98 316.135 217.48 315.267 217.154C314.399 216.829 313.473 216.685 312.548 216.733C311.622 216.781 310.716 217.019 309.886 217.432C307.874 218.141 305.681 218.149 303.663 217.455L303.756 217.501ZM279.79 204.963C279.689 204.612 279.525 204.282 279.304 203.991C271.925 197.583 263.805 192.911 253.627 193.003C251.898 192.944 250.196 193.439 248.769 194.414C247.628 195.387 246.267 196.068 244.804 196.399C243.341 196.729 241.82 196.699 240.371 196.311C240.34 197.214 240.536 198.111 240.94 198.919C241.344 199.727 241.944 200.421 242.685 200.938C248.481 205.217 254.763 208.796 261.399 211.602C264.721 213.146 268.517 213.314 271.962 212.07C275.407 210.827 278.221 208.272 279.79 204.963ZM247.404 173.271L254.922 179.054C254.991 176.88 250.388 173.502 247.52 173.271H247.404ZM237.873 162.144C237.997 162.729 238.259 163.276 238.636 163.74C239.476 165.119 240.427 166.427 241.482 167.649C242.628 168.763 243.841 169.806 245.114 170.772L245.461 170.31L242.5 163.763C245.252 162.884 245.461 160.941 245.183 158.743C245.133 157.973 245.133 157.2 245.183 156.43C245.183 149.768 241.297 145.118 236.832 140.838C236.227 140.411 235.575 140.054 234.889 139.774C233.316 138.826 231.673 137.947 230.262 136.883C226.515 134.245 223.068 131.122 218.696 129.619C217.11 128.95 215.326 128.925 213.722 129.549C215.434 133.019 217.146 136.258 218.65 139.589C220.227 142.854 222.616 145.658 225.589 147.732C226.955 148.731 228.402 149.613 229.915 150.369C232.172 151.456 234.105 153.115 235.521 155.181C236.938 157.246 237.788 159.647 237.989 162.144H237.873ZM103.031 24.4562L107.658 17.1231C106.154 16.7992 105.946 15.8277 106.594 14.4165C107.658 12.1032 108.676 9.78991 109.948 7.06022C108.453 7.63563 107.044 8.41403 105.761 9.37352C104.383 10.5811 103.36 12.1403 102.8 13.8845C102.459 16.6932 102.374 19.527 102.545 22.3511C102.64 23.0667 102.802 23.7716 103.031 24.4562ZM106.871 38.336C107.413 37.5922 107.915 36.82 108.375 36.0227C109.717 32.7001 111.262 29.4631 113.001 26.33C114.486 24.0119 115.07 21.2305 114.644 18.5111C114.363 15.4351 113.144 12.5197 111.151 10.1601C110.804 11.7562 110.48 12.936 110.295 14.1158C110.191 14.6537 110.281 15.2112 110.549 15.6889C112.076 17.3082 111.428 18.3723 109.786 19.1588C108.822 19.6086 107.988 20.2974 107.365 21.1597C106.741 22.022 106.348 23.0294 106.223 24.0861C105.56 28.82 105.78 33.6358 106.871 38.2897V38.336ZM117.489 61.0757C117.489 60.8444 117.836 60.5899 117.767 60.4511C116.453 56.8322 114.859 53.3209 113.001 49.9488C111.382 47.4041 109.855 44.3043 106.061 43.7954C105.229 43.6797 104.65 42.1992 103.864 41.4821C102.704 40.2425 101.425 39.1191 100.047 38.1278C97.0164 36.2078 93.8472 34.5422 90.7936 32.6684C90.5509 32.566 90.3388 32.4025 90.178 32.1939C90.0171 31.9852 89.913 31.7385 89.8758 31.4777C89.8385 31.2169 89.8694 30.9509 89.9654 30.7055C90.0613 30.4602 90.2192 30.2438 90.4235 30.0776C95.6978 30.9566 98.682 36.1615 104.303 36.601C104.072 35.8377 103.91 34.6347 103.679 34.6116C101.365 34.4497 100.625 32.2983 99.1909 31.1417C95.744 28.6466 91.7983 26.9263 87.6244 26.0987C86.0632 25.3972 84.2938 25.3145 82.674 25.8674C83.9552 28.0947 85.0687 30.4144 86.0051 32.8072C87.4522 37.196 90.4889 40.8846 94.518 43.1477C96.5004 44.6722 98.96 45.4429 101.458 45.3222C102.679 45.2757 103.894 45.4968 105.021 45.9699C106.578 46.5979 107.973 47.572 109.099 48.8183C110.226 50.0647 111.054 51.5508 111.521 53.1642C112.892 56.2153 114.932 58.919 117.489 61.0757ZM112.169 71.8788C105.229 66.8821 97.0858 68.2007 89.3825 66.8127C89.9377 64.4994 91.6958 64.1755 93.4077 64.3375C95.721 64.5457 97.8492 65.0083 100.07 65.0546C105.308 65.219 110.38 66.9338 114.644 69.9819C115.315 70.4446 116.24 71.1385 116.286 71.7863C116.346 72.4079 116.603 72.9943 117.019 73.4602C117.435 73.9261 117.989 74.2473 118.6 74.3772C121.445 75.3719 124.337 76.2741 127.298 77.2456C126.867 75.2611 126.634 73.2385 126.604 71.2079C126.773 69.0961 126.297 66.9825 125.239 65.1471C123.388 61.8622 123.943 58.3923 124.429 54.9455C124.614 53.6038 125.401 52.6322 127.506 53.118C127.066 57.7446 126.025 62.8569 130.027 67.1365C130.606 66.1319 131.131 65.0971 131.6 64.0367C132.789 61.0092 132.935 57.6722 132.017 54.5522C130.921 49.7838 128.806 45.3092 125.817 41.4358C123.261 44.7312 121.453 48.5441 120.52 52.609C120.103 54.4828 119.571 57.0737 120.52 58.346C122.833 61.4921 122.694 65.124 123.619 68.5245C123.9 69.1566 123.919 69.8743 123.672 70.5203C123.425 71.1664 122.932 71.6882 122.301 71.9713L119.294 69.0334L117.42 70.7684C115.986 69.5886 114.482 68.4551 113.186 67.2059C110.81 64.7621 107.964 62.824 104.82 61.5082C101.675 60.1923 98.2968 59.5259 94.8882 59.5489C94.0091 59.5489 92.9681 59.2945 92.3204 59.6877C89.29 61.5152 86.0745 61.0526 82.859 60.8213C81.1703 60.6825 79.9211 61.122 79.6204 63.0189C79.3197 64.9158 80.2219 65.7023 81.9337 66.3269C83.836 66.9195 85.6041 67.8782 87.1386 69.1491C90.3818 72.0567 94.0878 74.4023 98.1037 76.089C100.567 77.1651 103.332 77.3327 105.908 76.5617C108.483 75.7908 110.702 74.1315 112.169 71.8788ZM137.615 90.2232C138.355 86.8458 137.939 86.1287 134.862 84.8795L137.615 90.2232ZM148.256 100.309L140.946 94.2946C144.115 99.6846 144.67 100.124 148.256 100.286V100.309ZM153.577 108.452L154.086 107.851L150.685 105.005L150.13 105.676L153.577 108.452ZM173.864 125.339C173.17 124.83 172.615 124.368 171.99 123.974C168.683 122.251 164.984 121.414 161.257 121.545C159.635 121.577 158.013 121.515 156.399 121.36C154.363 121.037 152.351 120.389 151.957 117.428C153.322 117.869 154.712 118.224 156.121 118.492C160.378 118.978 164.634 119.371 168.706 119.764C168.243 119.186 167.549 118.307 166.6 117.058L170.07 116.433L164.218 108.73C163.213 107.017 161.967 105.459 160.516 104.103C156.653 101.281 155.404 96.8393 153.183 93.0223C152.536 91.9351 153.183 91.1948 154.849 91.1948C155.936 93.1843 156.931 95.3125 158.18 97.2788C158.958 98.6532 160.014 99.8507 161.28 100.795C163.212 101.946 164.739 103.667 165.652 105.723C166.066 106.475 166.571 107.174 167.156 107.804C167.571 104.672 167.571 101.499 167.156 98.366C166.936 97.2665 166.415 96.2495 165.652 95.4282C162.992 92.3052 160.193 89.3211 157.509 86.175C156.641 85.1864 155.574 84.3913 154.378 83.8414C153.183 83.2914 151.885 82.9988 150.569 82.9826C149.76 88.8815 147.678 94.5491 151.888 99.6152C151.963 99.7825 152.002 99.9638 152.002 100.147C152.002 100.331 151.963 100.512 151.888 100.68C151.286 102.368 152.281 103.247 153.484 104.034L165.051 111.806L162.992 116.017L159.013 113.495L157.278 115.253C156.167 114.536 155.15 113.865 154.086 113.264C153.504 112.802 152.809 112.507 152.073 112.408C148.58 112.686 145.133 113.102 141.339 113.518C145.665 119.463 151.356 123.026 156.954 126.704C158.465 127.922 160.29 128.687 162.218 128.912C164.146 129.138 166.098 128.813 167.85 127.976C168.308 127.829 168.802 127.829 169.261 127.976C171.805 128.601 172.869 127.236 173.795 125.339H173.864ZM198.108 141.37C195.563 137.16 190.936 136.929 187.212 134.847C187.883 134.361 188.207 133.922 188.438 133.968C192.625 134.801 197.09 134.916 200.004 138.918C200.95 140.076 202.038 141.11 203.243 141.995C203.859 142.296 204.526 142.476 205.209 142.527C204.446 137.9 203.243 134.916 200.768 133.598C196.442 131.284 192.671 127.213 186.703 128.578C187.906 131.585 184.806 132.14 183.811 134.315C182.493 133.598 181.637 133.089 180.758 132.649C179.509 131.978 177.959 131.261 177.195 132.834C176.848 133.551 177.889 134.939 178.306 136.027C178.355 136.145 178.435 136.249 178.537 136.327C181.162 138.642 184.296 140.305 187.684 141.182C191.073 142.058 194.62 142.122 198.038 141.37H198.108ZM186.981 157.864C191.604 159.209 196.455 159.587 201.231 158.974C206.007 158.361 210.606 156.771 214.74 154.302C214.879 154.302 214.856 153.885 215.018 153.284L204.77 150.531C205.673 149.78 206.743 149.257 207.891 149.008C209.038 148.758 210.229 148.789 211.363 149.097C214.995 150.346 218.557 151.757 222.096 153.261C223.984 154.113 225.822 155.071 227.602 156.129C230.07 157.868 232.723 159.326 235.514 160.478C234.361 158.673 233.085 156.95 231.697 155.32C230.887 154.487 229.383 153.469 228.527 153.77C226.006 154.834 224.572 153.145 222.883 152.104C219.979 150.154 216.728 148.78 213.306 148.056C211.158 147.493 208.98 147.053 206.782 146.737C203.729 146.529 200.722 145.766 197.668 145.28C197.668 145.28 197.414 145.511 197.275 145.604L199.102 147.639C199.102 147.871 198.894 148.102 198.802 148.357C195.17 147.801 192.093 144.493 187.975 146.043C184.367 147.408 179.902 146.043 176.71 149.768C177.817 151.347 179.089 152.805 180.503 154.117C182.37 155.778 184.548 157.051 186.911 157.864H186.981ZM185.963 164.55C184.575 168.991 186.981 172.785 188.276 176.671C190.358 183.611 195.586 188.238 200.675 192.864C202.381 194.5 204.249 195.957 206.25 197.213C208.967 198.925 211.841 200.373 214.833 201.539C217.447 202.465 219.621 204.708 223.137 204.431C222.073 200.984 221.541 197.861 219.02 195.571C218.377 194.812 217.931 193.906 217.724 192.934C216.637 189.649 215.411 186.341 214.601 182.987C213.485 179.644 213.726 175.998 215.272 172.831C217.223 169.479 217.988 165.568 217.447 161.727C217.216 160.829 217.324 159.877 217.75 159.053C218.177 158.229 218.893 157.592 219.76 157.263C220.57 158.443 221.287 159.576 222.073 160.64C223.951 163.405 225.982 166.061 228.157 168.598C229.343 169.823 230.362 171.2 231.188 172.692C232.517 175.479 233.19 178.534 233.154 181.622C233.549 185.686 233.339 189.787 232.529 193.79C232.044 195.849 231.581 197.907 231.049 199.943C230.332 202.673 231.373 206.721 233.223 207.276C237.727 208.572 242.276 209.736 246.872 210.769C249.215 211.098 251.471 211.884 253.511 213.083C255.565 214.386 257.733 215.501 259.988 216.414C265.926 218.943 271.902 221.372 277.916 223.701C279.791 224.299 281.709 224.755 283.653 225.065C284.856 225.32 286.128 225.436 287.308 225.759C291.125 226.847 294.919 228.073 298.736 229.091C299.657 229.095 300.575 228.979 301.466 228.744C293.392 222.683 287.794 214.979 279.489 210.492C278.263 211.255 277.176 211.88 276.135 212.551C270.93 215.882 265.517 217.177 259.618 214.355C257.952 213.522 256.171 212.921 254.575 212.042C250.735 209.728 247.103 207.114 243.194 204.963C241.514 204.15 240.11 202.861 239.156 201.257C238.202 199.654 237.74 197.805 237.827 195.941C237.827 193.096 238.706 192.194 241.32 193.211C242.148 193.662 243.086 193.871 244.027 193.814C244.968 193.757 245.873 193.436 246.64 192.887C249.44 190.343 252.678 190.343 256.056 190.343C257.606 190.271 259.151 190.109 260.682 189.857C260.272 189.433 259.84 189.032 259.387 188.654C256.75 186.78 253.997 185.045 253.349 181.437C253.233 180.72 252.331 180.072 251.637 179.563C244.746 174.493 238.214 168.951 232.09 162.977C228.259 159.428 223.75 156.69 218.835 154.926C217.141 156.023 215.361 156.982 213.514 157.795C209.674 159.137 205.741 160.293 201.786 161.38C200.268 161.744 198.718 161.961 197.159 162.028C192.267 162.385 187.368 161.418 182.979 159.229C184.066 160.779 184.737 161.542 185.292 162.606C185.847 163.671 186.125 163.994 185.963 164.55ZM229.753 181.552C229.106 174.983 225.127 170.634 220.824 166.215C219.899 168.528 219.066 170.217 218.511 172.068C217.72 173.746 217.257 175.56 217.146 177.412C217.186 184.503 219.533 191.388 223.831 197.028L226.145 199.573C230.632 193.905 230.332 187.798 229.73 181.552H229.753ZM144.717 151.48C144.717 152.035 144.347 152.659 144.323 153.284C144.323 154.533 144.323 155.805 144.462 157.61C147.516 155.713 148.395 152.983 149.852 150.855C150.512 149.942 150.906 148.865 150.992 147.743C151.078 146.62 150.851 145.495 150.338 144.493C149.228 142.18 148.233 139.751 147.308 137.345C146.22 134.477 145.249 131.562 144.208 128.67C141.386 128.879 141.386 128.879 141.571 132.927C139.257 135.055 137.222 136.859 135.394 138.941C134.711 139.747 134.363 140.785 134.423 141.84C134.484 142.895 134.947 143.886 135.718 144.609L141.894 151.711C142.024 151.505 142.118 151.278 142.172 151.04C142.334 150.138 142.542 149.097 143.676 149.49C144.185 149.745 144.532 150.832 144.694 151.549L144.717 151.48ZM121.399 150.947C119.201 145.002 117.142 139.381 115.014 133.713C115.752 133.34 116.528 133.046 117.327 132.834C117.744 132.834 118.276 133.251 118.738 133.181C121.097 133.175 123.44 132.793 125.678 132.048C126.815 131.406 127.755 130.466 128.395 129.328C129.035 128.19 129.352 126.899 129.31 125.594C129.31 123.003 129.611 120.412 129.796 117.752C129.397 117.596 128.975 117.51 128.547 117.497C127.753 117.392 126.946 117.494 126.204 117.794C125.462 118.094 124.811 118.582 124.313 119.209C123.411 120.412 121.283 120.69 120.242 121.869C118.438 123.951 116.078 125.894 116.379 129.202C116.379 129.573 115.662 130.29 115.222 130.336C114.937 130.314 114.661 130.222 114.419 130.069C114.177 129.915 113.976 129.705 113.834 129.457C113.559 128.638 113.434 127.776 113.464 126.912C113.325 124.46 113.256 122.008 113.186 119.579C113.036 117.847 113.036 116.106 113.186 114.374C113.194 113.237 113.494 112.12 114.057 111.132C114.62 110.144 115.427 109.316 116.402 108.73C117.79 113.356 113.927 117.659 116.402 122.471L121.931 116.017C120.219 111.645 119.617 107.087 115.592 104.265C113.173 106.101 111.171 108.43 109.719 111.098C108.268 113.766 107.399 116.712 107.172 119.741C106.848 124.368 106.64 128.994 110.364 132.672C113.697 136.077 115.819 140.482 116.402 145.21C116.515 145.819 116.685 146.415 116.911 146.992C117.228 148 117.809 148.905 118.594 149.613C119.38 150.321 120.34 150.805 121.376 151.017L121.399 150.947ZM82.6971 110.002L78.8802 112.593C79.2503 114.906 80.6383 115.901 82.8359 116.572C82.7896 114.444 82.7434 112.639 82.6971 110.002ZM89.1975 106.972C86.0051 106.393 86.0051 106.393 85.1955 109.794L89.1975 106.972ZM95.0964 94.8498L88.1565 99.4764L86.861 103.502C93.1995 103.479 96.253 100.009 95.0964 94.8498ZM74.9244 104.381C75.2483 103.895 75.6647 102.923 75.8498 102.97C79.0884 103.71 79.2734 101.05 79.7361 99.2451C80.2393 96.8305 80.5334 94.377 80.6151 91.9119C80.9621 87.5629 78.6488 84.2318 76.3818 80.8313C70.1128 87.7711 69.4188 98.7593 74.9244 104.381ZM78.4406 110.673C78.9784 110.08 79.584 109.552 80.245 109.1C81.2372 108.761 82.0603 108.052 82.5429 107.121C83.0256 106.191 83.1305 105.109 82.8359 104.103C82.6971 103.432 82.8359 102.276 83.2292 101.998C85.7044 100.333 85.6812 97.6258 86.1439 95.058C86.5226 94.9628 86.9103 94.9086 87.3006 94.8961C87.5319 94.8961 87.7632 95.1043 87.9946 95.1506C89.5907 95.4282 92.3435 94.3872 92.6211 93.2305C92.695 92.9477 92.7063 92.6522 92.6544 92.3646C92.6024 92.077 92.4885 91.8041 92.3204 91.565C91.6145 90.9633 90.749 90.5796 89.8291 90.4605C88.9092 90.3414 87.9745 90.492 87.1386 90.8941C86.7957 91.0434 86.4941 91.2736 86.2596 91.565C84.6804 93.5825 83.3881 95.809 82.4195 98.181C81.8255 101.35 80.414 104.308 78.325 106.764C78.0516 107.012 77.834 107.316 77.6866 107.654C77.5391 107.993 77.4652 108.359 77.4695 108.729C77.4739 109.098 77.5565 109.462 77.712 109.797C77.8674 110.133 78.0921 110.431 78.3712 110.673H78.4406ZM45.1754 46.9183C43.7181 50.6427 42.0988 54.2515 40.9652 58.0222C40.6947 59.8335 40.7812 61.6803 41.2197 63.4584C41.4344 64.6117 41.8 65.7317 42.307 66.7896C43.3017 69.1028 43.3711 71.9713 47.1417 73.1511C46.3552 70.1438 45.8463 67.5761 44.9904 65.124C43.8569 61.9085 44.0882 59.387 46.2627 57.4207C47.1514 62.8588 48.665 68.176 50.7736 73.2668C53.3414 64.5225 52.0459 51.4293 45.1754 46.9183ZM40.5488 68.3163C40.225 67.6917 40.1325 67.1365 39.7855 66.9052C38.8188 66.1077 38.13 65.0241 37.8182 63.8103C37.5064 62.5965 37.5878 61.315 38.0505 60.1504C38.4655 58.7177 38.9676 57.3117 39.5541 55.9402L41.8674 49.0003C38.143 42.8932 34.9275 37.4338 31.3188 31.6043C30.6711 37.0174 30.0696 41.644 29.3756 46.2706C28.678 49.9413 29.2921 53.7404 31.1106 57.0043C33.0769 60.428 35.3439 63.6666 37.5878 66.9283C37.831 67.4671 38.2572 67.9022 38.7909 68.1564C39.3246 68.4105 39.9311 68.4672 40.5026 68.3163H40.5488ZM34.6731 89.8068C38.3001 89.3793 41.9648 89.3793 45.5918 89.8068C48.2035 90.1963 50.599 91.4799 52.3698 93.4387L51.2825 96.0759C51.6983 96.1075 52.1159 96.1075 52.5317 96.0759C53.9246 95.6682 55.4209 95.8104 56.7121 96.4732C58.0033 97.136 58.991 98.2689 59.4716 99.6383C59.7029 100.171 60.3969 100.518 60.8596 100.957C60.3697 97.8703 59.0774 94.9665 57.112 92.5365L55.9554 94.3872L48.0208 88.8353C50.0334 86.7533 52.0459 88.8353 54.2898 88.8353C54.0859 86.6671 54.0241 84.488 54.1048 82.3118C54.4032 79.4833 54.8511 76.6726 55.4465 73.8914C55.7241 72.5034 56.6263 71.5781 58.7082 71.3699C57.968 74.8861 56.0942 78.0322 57.0195 81.8028C60.0037 78.2866 63.7512 75.8808 64.3295 70.8378C64.823 66.1466 63.8706 61.4165 61.5998 57.2819C56.0711 61.1451 54.845 63.4815 54.66 69.7737C54.597 71.2611 54.2018 72.7155 53.5033 74.0302C52.7906 75.7358 52.4438 77.5721 52.4855 79.4201C52.2148 81.4512 51.6457 83.4311 50.7968 85.2959C50.1722 86.7764 48.8073 86.7996 47.2805 86.36C44.1807 85.4579 40.9884 84.8333 37.8886 84.0467C36.2919 83.7206 34.7391 83.2082 33.262 82.52C30.111 80.744 26.5054 79.9392 22.8984 80.2067C21.8343 80.2067 21.0478 80.0679 20.5851 78.356C23.6727 78.2354 26.765 78.3359 29.8383 78.6568C32.7396 79.374 35.5848 80.3017 38.3512 81.4327C37.264 78.3098 36.6394 77.2919 33.956 76.0659C29.1443 73.7526 24.217 71.8325 19.2897 69.8431C18.4547 69.5583 17.5558 69.5182 16.6988 69.7274C13.0029 70.4277 9.17925 69.8826 5.82632 68.1775C5.07073 67.9633 4.2959 67.8238 3.51302 67.7611C4.7649 70.3529 6.55511 72.6478 8.7642 74.4928C11.7483 77.2919 14.7093 80.1373 17.6704 82.9364C19.8773 85.1923 22.5271 86.9673 25.4532 88.1497C28.3793 89.3321 31.5184 89.8963 34.6731 89.8068ZM48.8304 95.752H44.7822L47.1649 92.6753C45.6612 92.8141 44.8516 92.6753 44.1345 92.9529C42.9547 93.2305 41.8212 93.6238 40.6414 94.017C39.4616 94.4103 38.3281 94.6879 37.2871 95.1737C34.3724 96.4923 33.5164 99.1526 32.8687 102.368C36.3557 103.186 40.0183 102.769 43.2323 101.188C44.0882 100.68 45.268 100.009 45.4299 99.2682C45.8926 97.1631 47.6275 97.0012 48.8304 95.752ZM74.2767 114.513C72.4089 112.384 70.7799 110.057 69.4188 107.573C68.0771 104.797 64.9541 104.149 62.2013 103.178C65.541 107.618 69.6175 111.452 74.2536 114.513H74.2767ZM63.3579 121.06C62.1319 121.175 61.0447 120.921 60.5357 121.384C58.2224 123.859 54.7294 125.085 53.9428 129.087C53.3414 132.071 51.6295 132.557 48.4835 131.863C48.7842 129.758 50.7967 130.22 51.5139 129.156C52.5086 127.606 53.0638 125.756 54.151 124.275C55.4311 122.762 56.823 121.347 58.315 120.042C53.1563 118.446 49.8714 119.163 48.0208 122.355C45.7075 126.08 43.8569 129.989 39.6698 132.21C41.3 134.195 43.6406 135.465 46.1933 135.749C49.021 136.085 51.8785 136.085 54.7062 135.749C55.9046 135.72 57.0719 135.362 58.0799 134.713C59.0879 134.064 59.8975 133.15 60.4201 132.071C61.5767 128.555 62.317 124.923 63.3579 121.06ZM57.8523 113.148C56.3869 112.53 54.816 112.2 53.2257 112.177C51.3678 112.145 49.5215 112.475 47.7895 113.148C45.4609 114.326 43.2122 115.655 41.0578 117.127C41.4216 118.125 42.0187 119.022 42.7993 119.742C43.58 120.462 44.5216 120.985 45.5456 121.268L48.9924 115.67C52.3004 117.659 55.6084 114.953 59.9574 115.855C58.9164 114.49 58.5232 113.356 57.8292 113.148H57.8523ZM107.681 148.287C108.277 148.602 108.916 148.828 109.578 148.958L110.04 148.38C109.362 147.437 108.587 146.569 107.727 145.789C102.399 141.736 97.4231 137.24 92.8525 132.349C91.4876 130.914 89.5907 130.035 88.2259 128.74C84.2553 125.58 80.9127 121.704 78.3712 117.312C77.8623 116.364 77.3997 115.438 76.0579 116.549C76.7519 117.659 77.978 118.862 78.0011 119.926C78.0638 120.902 78.3538 121.849 78.8478 122.692C79.3418 123.536 80.0263 124.252 80.8465 124.784C81.6544 125.531 82.3902 126.352 83.0441 127.236C83.8767 128.568 84.8375 129.815 85.9126 130.961C89.1975 133.737 92.6674 136.327 96.0679 138.988C99.9312 142.111 103.771 145.234 107.681 148.287ZM121.561 158.743C121.561 155.088 120.196 153.492 114.759 151.364C115.477 154.348 115.477 154.348 121.584 158.743H121.561ZM143.352 212.273C143.051 210.769 142.797 209.497 142.519 208.063L138.263 206.952C138.031 209.127 137.823 210.977 137.592 213.337L143.352 212.273ZM163.223 198.393C162.339 198.749 161.581 199.361 161.049 200.151C159.387 202.669 156.951 204.578 154.109 205.588C152.096 206.559 150.037 207.461 148.071 208.549C146.87 209.319 145.712 210.153 144.601 211.047L144.994 211.764C147.655 210.885 150.292 209.96 152.975 209.127C155.765 208.06 158.336 206.492 160.563 204.5C161.46 203.781 162.172 202.858 162.639 201.808C163.105 200.757 163.314 199.61 163.246 198.463L163.223 198.393ZM165.745 189.418C163.933 188.811 162.076 188.347 160.193 188.03C156.293 187.561 152.368 187.344 148.441 187.382C145.954 187.279 143.485 187.846 141.293 189.024C138.563 190.757 135.719 192.303 132.78 193.651C129.634 195.27 126.465 196.82 122.416 198.833C124.313 199.457 125.308 199.851 126.326 200.082C127.344 200.313 129.033 200.545 130.351 200.822C134.628 202.02 138.979 202.94 143.375 203.575C150.315 204.176 156.353 202.164 160.123 195.64C161.233 192.996 163.229 190.821 165.768 189.487L165.745 189.418ZM137.384 169.616C136.525 168.138 135.509 166.757 134.353 165.498C132.433 163.185 130.351 161.126 128.639 158.72C127.968 157.795 128.13 156.245 127.899 154.996L128.801 154.602C130.444 156.453 131.485 158.813 133.104 160.686C134.723 162.56 136.713 164.318 138.795 166.377C140.645 156.476 134.769 148.01 125.424 144.169C125.22 144.31 125.041 144.481 124.892 144.678C124.644 145.105 124.457 145.565 124.337 146.043C123.129 151.808 123.946 157.813 126.65 163.046C128.755 167.418 132.757 168.875 137.384 169.616ZM144.786 171.466L144.439 172.022L146.174 173.271L146.614 172.507L144.786 171.466ZM183.372 226.985C183.912 226.582 184.324 226.031 184.558 225.399C184.792 224.767 184.838 224.081 184.69 223.423C184.626 221.476 184.711 219.527 184.945 217.593C184.945 216.553 185.153 215.512 185.246 214.471L184.552 214.17C182.626 219.466 179.242 224.11 174.789 227.564C173.54 226.222 173.98 225.505 174.789 224.695C176.853 222.726 178.778 220.616 180.55 218.38C183.141 214.725 185.384 210.839 187.79 207.045C183.973 207.531 180.341 207.646 178.074 211.116C177.311 212.296 175.761 212.898 174.651 213.939C172.823 215.743 171.111 217.686 169.353 219.56C169.585 223.539 167.04 227.24 168.081 231.288C168.369 232.203 168.733 233.093 169.168 233.948C171.577 232.569 174.1 231.4 176.71 230.455C179.112 229.797 181.355 228.655 183.302 227.101L183.372 226.985ZM220.662 242.068C222.776 241.806 224.919 242.21 226.792 243.225C230.424 244.728 234.195 246.648 237.595 242.67C237.699 242.593 237.817 242.538 237.942 242.508C242.777 240.194 243.98 235.799 244.882 230.941C243.663 231.283 242.417 231.523 241.158 231.658C239.42 231.723 237.713 232.137 236.139 232.876C234.565 233.616 233.156 234.665 231.997 235.961C229.337 238.83 226.098 238.714 222.929 239.454C222.582 239.454 222.12 239.038 221.703 238.806C222.721 236.886 222.744 236.771 224.271 236.886C226.39 236.974 228.467 236.273 230.1 234.92C233.293 232.607 236.74 230.733 239.932 228.744C237.987 227.501 235.703 226.896 233.397 227.012C231.092 227.128 228.881 227.96 227.07 229.391C224.461 230.792 221.727 231.946 218.904 232.838C216.197 233.972 213.491 235.151 210.322 236.516C213.213 240.588 216.036 243.017 220.662 242.068ZM258.23 231.496C257.302 231.501 256.395 231.772 255.616 232.276C254.837 232.781 254.219 233.497 253.835 234.342C251.912 237.443 249.443 240.171 246.548 242.392L245.391 240.079C244.605 241.305 243.24 242.392 243.286 243.595C243.494 247.597 240.973 250.743 240.233 254.375C239.868 255.333 239.387 256.242 238.798 257.081C238.197 256.596 237.48 256.202 237.526 256.017C238.359 252.779 239.284 249.563 240.186 246.417C236.716 247.25 235.56 248.268 235.213 251.344C234.958 253.172 234.935 255.046 234.519 256.85C234.22 258.108 234.278 259.423 234.687 260.65C235.096 261.876 235.839 262.963 236.832 263.79C245.414 258.284 247.265 254.953 248.537 247.204C249.408 242.673 251.578 238.493 254.783 235.175C255.894 233.856 257.097 232.699 258.276 231.496H258.23ZM273.868 225.621C272.249 225.019 271.185 224.51 270.028 224.186C266.743 223.261 263.435 222.382 260.127 221.48C257.814 220.069 254.644 220.416 253.511 217.038C253.187 216.113 251.198 215.581 249.995 215.188C245.97 213.915 241.852 212.874 237.896 211.533C235.86 210.792 234.056 210.006 232.067 211.533C231.107 210.448 229.933 209.574 228.62 208.965C227.306 208.356 225.881 208.025 224.433 207.993C222.856 207.988 221.291 207.714 219.806 207.184C216.406 205.68 213.236 203.598 209.767 202.256C204.69 200.049 200.117 196.83 196.326 192.795C195.077 191.615 192.972 190.713 192.602 189.325C191.677 185.763 187.559 185.115 186.518 181.876C183.904 181.876 184.76 179.794 184.575 179.077C181.799 176.764 179.37 174.728 177.149 172.554C174.928 170.379 172.245 167.326 169.747 164.758C168.914 163.902 167.202 163.254 168.59 161.889C169.978 160.525 170.903 161.889 171.713 162.861L172.222 163.416C175.252 166.724 178.236 170.032 181.313 173.271C182.118 173.966 182.985 174.585 183.904 175.121C183.256 171.86 182.585 169.13 182.169 166.377C182.024 165.198 181.606 164.07 180.947 163.082C180.288 162.093 179.408 161.273 178.375 160.686C175.447 158.798 172.42 157.069 169.307 155.505C165.721 153.793 161.974 152.451 159.267 149.328C159.267 149.328 158.851 149.328 158.411 149.328C158.821 153.658 159.857 157.904 161.488 161.936C162.508 165.103 164.232 167.997 166.532 170.401C168.832 172.805 171.648 174.657 174.766 175.815C176.376 176.496 177.856 177.451 179.139 178.638C184.459 183.634 189.71 188.747 194.915 193.882C195.332 194.299 195.378 195.108 195.609 195.756C194.869 195.756 193.92 196.381 193.296 196.08C187.929 193.165 181.359 193.281 176.386 189.394C176.074 189.189 175.716 189.062 175.345 189.024C171.579 188.225 168 186.717 164.796 184.583C160.401 182.061 156.26 179.077 152.004 176.301C151.39 175.88 150.749 175.501 150.083 175.168C149.872 175.059 149.64 174.997 149.402 174.987C149.165 174.976 148.928 175.018 148.708 175.108C148.488 175.198 148.29 175.335 148.128 175.509C147.966 175.683 147.844 175.89 147.77 176.116C149.053 177.314 150.413 178.427 151.842 179.447C154.758 181.465 157.856 183.208 161.095 184.652C164.445 185.948 167.693 187.495 170.811 189.279C174.882 191.592 179.115 193.72 183.372 195.779C187.142 197.583 191.075 199.11 194.938 200.915C196.974 201.886 197.46 203.228 196.118 205.148C194.853 206.566 193.406 207.81 191.815 208.849C191.168 209.358 190.196 209.682 189.918 210.307C188.962 212.435 188.188 214.64 187.605 216.9C187.189 218.426 186.61 220.878 187.351 221.526C189.155 223.145 188.808 224.672 188.484 226.523C188.461 226.832 188.5 227.143 188.599 227.438C188.699 227.732 188.856 228.003 189.063 228.235C190.479 230.127 191.365 232.363 191.63 234.712C191.98 235.726 192.445 236.697 193.018 237.604C194.985 234.781 196.72 232.422 198.316 229.97C198.64 229.318 198.768 228.587 198.686 227.865C198.686 225.251 198.501 222.66 198.246 220.069C198.246 217.438 197.719 214.835 196.696 212.412C195.995 213.08 195.469 213.911 195.167 214.831C194.864 215.751 194.793 216.732 194.961 217.686C194.961 219.999 195.123 222.313 195.147 224.765C195.147 225.875 194.961 227.078 193.273 227.356C193.018 226.777 192.509 226.153 192.509 225.551C192.509 221.572 192.509 217.593 192.741 213.638C192.944 212.538 193.431 211.509 194.152 210.654C194.985 209.451 196.095 208.34 197.02 207.23C197.507 206.586 198.154 206.081 198.897 205.764C199.639 205.448 200.452 205.331 201.254 205.426C204.071 205.53 206.852 206.093 209.489 207.091C212.82 208.294 216.683 208.155 219.899 209.566C225.473 211.667 231.26 213.156 237.156 214.008C241.366 214.841 245.391 215.396 249.069 218.264C251.776 220.393 255.639 221.063 259.017 222.289C259.271 222.289 259.78 221.711 260.196 221.41C262.163 223.007 261.122 224.603 260.196 226.222H260.034C258.068 226.222 256.102 226.222 254.159 226.222C253.543 226.196 252.94 226.402 252.47 226.8C250.758 229.114 247.658 230.479 248.052 234.064C248.025 234.899 247.877 235.725 247.612 236.516C249.181 235.703 250.5 234.48 251.429 232.977C252.721 230.563 254.828 228.686 257.374 227.679C258.286 227.208 259.174 226.69 260.034 226.13H260.22C260.752 226.592 261.469 226.962 261.723 227.564C261.978 228.165 261.469 228.79 261.099 230.247L267.113 226.43C268.2 226.949 269.412 227.148 270.608 227.004C271.804 226.861 272.934 226.381 273.868 225.621ZM276.76 261.407L271.208 260.482C270.145 262.995 268.892 265.423 267.46 267.746C266.826 268.658 266.392 269.695 266.189 270.788C265.985 271.881 266.017 273.004 266.28 274.084C266.743 277.022 267.275 279.937 267.923 282.852C268.168 284.452 268.74 285.984 269.603 287.354C270.467 288.723 271.604 289.899 272.943 290.809C274.246 291.755 275.468 292.808 276.598 293.955C276.866 294.301 277.215 294.574 277.615 294.751C278.015 294.928 278.453 295.002 278.889 294.968C279.325 294.934 279.745 294.791 280.113 294.554C280.48 294.317 280.782 293.992 280.993 293.608C282.603 291.665 283.428 289.189 283.306 286.669C283.27 283.947 283.093 281.229 282.774 278.526C282.477 276.193 281.611 273.969 280.253 272.048C278.947 270.625 277.96 268.94 277.358 267.105C276.756 265.27 276.552 263.327 276.76 261.407ZM305.953 237.025C308.962 238.167 312.131 238.831 315.345 238.991C321.037 239.284 326.694 240.058 332.256 241.305C335.359 242.369 338.729 242.369 341.833 241.305L340.121 239.2C337.622 236.169 337.576 236.192 333.829 237.257C332.789 237.431 331.733 237.477 330.682 237.395C326.519 237.395 322.401 235.591 318.491 237.025C317.204 236.22 315.83 235.56 314.397 235.059C308.128 233.694 301.789 232.607 295.497 231.219C290.084 230.016 284.74 228.559 278.911 227.101C279.697 231.034 284.162 232.607 297.163 234.041C297.163 234.504 297.163 235.221 297.001 235.36C294.526 236.701 291.981 237.927 289.506 239.269C288.095 240.032 287.54 238.668 286.591 238.298C286.348 238.239 286.094 238.239 285.851 238.298C283.075 238.737 280.276 239.107 277.5 239.593C273.874 240.466 270.51 242.197 267.692 244.641C264.875 247.084 262.685 250.169 261.307 253.635C264.545 254.56 267.83 255.555 271.138 256.434C272.645 256.899 274.195 257.209 275.765 257.359C277.199 257.284 278.628 257.129 280.044 256.896C282.196 256.734 284.44 256.596 285.643 254.583C287.632 251.229 289.367 247.759 291.472 243.849C289.159 244.104 286.846 243.711 286.29 244.567C284.301 247.204 281.155 247.99 278.888 250.072C277.705 250.985 276.353 251.654 274.909 252.038C274.469 252.2 273.752 251.668 272.734 251.298C273.66 250.627 274.122 250.257 274.631 249.957C277.711 248.34 280.644 246.459 283.399 244.335C286.776 241.305 290.871 241.004 294.826 239.963C296.819 239.434 298.767 238.753 300.656 237.927C301.418 237.395 302.288 237.038 303.203 236.882C304.119 236.726 305.058 236.775 305.953 237.025ZM340.236 246.463H340.074H339.889L328.624 245.284C330.179 246.563 332.076 247.357 334.079 247.567C336.082 247.777 338.103 247.393 339.889 246.463H340.236C343.267 248.083 346.482 246.625 349.49 246.949C346.502 245.974 343.31 245.806 340.236 246.463ZM317.797 244.15C319.995 245.746 321.961 247.342 324.09 248.615C324.622 248.939 325.778 248.222 326.866 247.898C323.65 244.381 322.193 243.78 317.821 244.127L317.797 244.15ZM333.643 267.283C334.939 266.986 336.097 266.261 336.928 265.224C340.63 261.338 343.174 256.411 348.333 253.218C346.108 252.698 343.772 252.959 341.717 253.959C337.784 255.948 334.014 258.307 330.15 260.389C329.456 260.896 328.66 261.245 327.817 261.413C326.974 261.581 326.105 261.563 325.269 261.361C326.054 260.489 326.939 259.712 327.907 259.048C333.99 255.994 340.144 253.033 346.644 249.795C345.279 249.62 343.903 249.543 342.527 249.563C337.9 249.956 333.273 250.789 328.462 250.812C325.851 250.86 323.362 251.922 321.522 253.773C320.917 254.217 320.372 254.738 319.903 255.323C317.913 258.076 314.813 259.95 313.402 263.212C316.669 265.408 320.462 266.694 324.39 266.936C327.459 267.324 330.556 267.432 333.643 267.26V267.283ZM433.67 314.891C434.891 314.366 435.941 313.513 436.705 312.427C437.469 311.34 437.916 310.063 437.996 308.737C436.775 309.253 435.722 310.101 434.958 311.185C434.193 312.268 433.747 313.544 433.67 314.868V314.891ZM381.251 296.384C375.283 293.146 369.893 288.843 364.225 285.026C363.346 284.425 362.375 284.008 361.449 283.499C360.501 284.91 361.31 285.558 362.051 286.229C368.299 292.297 375.241 297.608 382.732 302.052C385.915 304.203 389.273 306.084 392.771 307.673C398.624 309.64 404.754 310.773 410.746 312.3C414.47 313.225 418.194 314.127 421.896 315.099C424.209 315.723 426.522 316.417 429.044 317.088L432.907 307.835C432.653 307.835 432.467 307.511 432.236 307.488L404.893 304.666C403.16 304.679 401.433 304.461 399.757 304.018C393.432 301.863 387.25 299.305 381.251 296.361V296.384ZM363.855 262.286C364.086 260.875 364.341 259.464 364.572 258.053L363.693 257.614L361.01 259.626L363.069 262.448L363.855 262.286ZM397.467 274.477C397.102 274.63 396.771 274.856 396.495 275.139C396.219 275.423 396.003 275.76 395.86 276.13C395.718 276.499 395.651 276.894 395.665 277.29C395.679 277.685 395.773 278.074 395.941 278.433C397.259 276.953 398.323 276.166 397.467 274.454V274.477ZM368.112 261.407C367.302 264.068 368.968 264.993 370.425 265.895C376.023 269.55 381.668 273.182 387.358 276.675C390.712 278.734 392.586 277.67 393.327 273.367C384.397 270.66 375.653 267.792 368.112 261.407ZM360.917 253.288C358.257 253.82 358.419 255.832 358.257 257.914C361.519 257.151 361.519 257.151 360.917 253.195V253.288ZM361.472 250.35C360.488 249.848 359.38 249.641 358.281 249.751C357.182 249.862 356.137 250.287 355.273 250.974C352.173 253.843 347.523 255.092 346.02 259.649C345.765 260.366 344.724 260.783 344.215 261.454C342.195 263.787 340.42 266.322 338.918 269.018C338.253 271.27 337.941 273.611 337.992 275.958C340.838 279.659 341.509 284.332 343.475 288.403C343.996 289.535 344.615 290.619 345.326 291.642C347.199 294.395 349.143 297.125 351.086 299.831C351.456 300.34 351.942 300.733 352.844 301.705C353.607 288.565 354.347 276.259 355.157 263.721L354.162 263.35C353.131 265.287 351.931 267.129 350.577 268.856C349.61 269.829 348.938 271.056 348.639 272.394C348.34 273.733 348.427 275.129 348.888 276.421C349.425 278.066 349.827 279.753 350.091 281.464C350.338 283.42 350.4 285.395 350.276 287.362C350.276 287.802 349.305 288.195 348.634 288.75C348.194 285.489 347.87 282.782 347.454 280.099C346.978 278.054 346.615 275.984 346.367 273.899C346.343 272.431 346.718 270.983 347.454 269.712C350.276 264.831 353.399 260.089 356.244 255.231C357.378 252.871 358.211 250.373 361.472 250.257V250.35ZM366.4 249.841C364.642 249.031 363.925 249.378 363.878 251.368L366.4 249.841ZM381.621 217.848C382.385 219.791 383.241 221.688 384.073 223.677C385.831 222.243 384.721 219.051 387.983 218.056C387.566 220.971 387.983 223.839 386.734 225.829C384.952 228.836 385.091 232.237 383.634 235.198C383.428 235.603 383.305 236.044 383.272 236.497C383.239 236.95 383.296 237.405 383.44 237.836C383.584 238.266 383.813 238.664 384.112 239.005C384.411 239.347 384.776 239.625 385.184 239.824C386.41 236.609 387.497 233.44 388.792 230.571C390.913 225.638 390.996 220.066 389.024 215.072C388.424 213.556 387.713 212.087 386.896 210.677C385.737 211.1 384.608 211.603 383.518 212.18C380.58 214.008 380.395 214.563 381.714 217.871L381.621 217.848ZM372.299 238.274C372.114 238.806 371.905 239.338 371.605 240.125L375.537 241.42C375.676 236.401 372.229 233.231 370.633 229.299C369.037 225.366 366.492 221.757 365.636 217.27C366.455 217.213 367.27 217.427 367.955 217.878C368.64 218.33 369.159 218.994 369.43 219.768C372.206 225.528 374.751 231.334 377.434 237.233C377.821 237.827 378.288 238.364 378.822 238.83C380.107 236.219 380.75 233.34 380.698 230.431C380.645 227.522 379.899 224.667 378.521 222.104C378.204 221.573 377.97 220.995 377.827 220.393C377.618 219.355 377.206 218.37 376.614 217.492C376.023 216.615 375.264 215.863 374.381 215.28L362.953 206.305C362.814 206.305 362.513 206.305 362.074 206.305C361.449 210.422 360.94 214.586 360.154 218.704C359.703 221.293 360.187 223.957 361.519 226.222C363.079 229.175 364.825 232.026 366.747 234.758C367.295 235.597 368.028 236.298 368.891 236.808C369.753 237.317 370.721 237.621 371.72 237.696C371.929 237.789 372.114 238.043 372.299 238.274ZM343.544 237.465C343.706 239.2 343.799 240.356 343.891 241.629C349.801 242.035 355.637 243.177 361.264 245.029C367.071 246.625 373.155 247.342 379.077 248.407C382.338 249.054 385.554 249.933 388.769 250.72C389.371 250.905 390.342 251.715 390.273 252.062C389.926 254.12 391.568 254.375 392.702 254.722C394.414 255.439 396.264 255.832 397.976 256.503C403.736 258.816 409.543 261.13 415.21 263.443C420.58 265.405 425.722 267.941 430.547 271.007C431.647 271.628 432.801 272.146 433.994 272.557C433.994 271.91 433.994 271.586 433.994 271.47C431.265 268.625 428.535 265.803 425.736 262.934C426.013 262.471 426.407 261.847 426.823 261.292L435.382 268.486C435.729 267.376 436.053 266.404 436.331 265.525C436.641 265.412 436.973 265.367 437.302 265.392C437.632 265.418 437.952 265.514 438.242 265.674C438.531 265.834 438.783 266.055 438.98 266.32C439.177 266.586 439.315 266.89 439.384 267.214C439.958 268.724 440.695 270.167 441.582 271.516C442.713 273.697 444.645 275.355 446.972 276.143C446.593 274.76 445.991 273.447 445.191 272.257C444.174 270.999 443.261 269.66 442.461 268.255C441.916 266.991 441.043 265.896 439.933 265.082C438.822 264.269 437.515 263.767 436.146 263.628C433 263.027 429.923 262.009 426.892 261.153C424.001 260.019 421.155 258.84 418.218 257.822C415.765 256.989 413.175 256.573 410.699 255.74C405.309 253.912 399.919 251.969 394.506 250.049L384.721 246.579C382.038 245.654 379.377 244.705 376.671 243.803C375.977 243.572 375.075 243.641 374.543 243.225C371.79 241.097 368.621 241.12 365.289 240.912C362.412 241.121 359.563 240.219 357.332 238.39C357.044 238.149 356.688 238.003 356.314 237.974C352.196 237.904 348.055 237.673 343.544 237.395V237.465ZM264.268 146.275C264.326 147.133 264.521 147.976 264.846 148.773C266.974 151.641 269.126 154.51 271.416 157.263C274.03 160.386 276.875 163.324 279.466 166.516C281.908 169.307 284.106 172.302 286.036 175.468C287.874 178.843 290.294 181.866 293.184 184.398C295.773 186.702 298.208 189.175 300.471 191.8C303.756 195.502 306.832 199.365 310.164 203.367C309.608 204.801 308.868 205.31 307.573 204.385C306.754 203.64 305.805 203.052 304.774 202.65C302.693 201.895 300.86 200.583 299.476 198.856C298.454 197.827 297.275 196.968 295.983 196.311C292.074 194.669 288.002 196.311 284.07 195.64C288.234 200.892 292.166 205.958 296.214 210.931C297.14 212.083 298.341 212.982 299.707 213.545C303.709 214.887 307.781 216.02 312.084 214.332C313.753 213.835 315.464 213.494 317.196 213.314C318.237 214.771 319.509 216.229 320.411 217.779C323.511 222.544 326.657 227.309 329.665 232.144C329.968 232.894 330.527 233.512 331.243 233.889C331.958 234.265 332.784 234.377 333.574 234.203C334.615 233.972 335.702 233.856 336.813 233.671C336.651 231.358 337.09 229.044 335.309 227.194C334.314 229.276 335.309 232.052 332.14 232.491C331.792 231.443 331.351 230.429 330.821 229.461C329.341 227.147 327.721 224.996 326.195 222.798C324.075 219.445 321.651 216.293 318.954 213.383C316.551 211.071 314.467 208.449 312.754 205.588C310.233 201.632 307.758 197.63 305.051 193.79C302.345 189.95 299.684 186.642 296.839 183.195C296.332 182.662 295.995 181.99 295.871 181.265C295.748 180.54 295.843 179.794 296.145 179.123C297.534 175.639 297.745 171.797 296.746 168.181C296.303 166.747 296.194 165.23 296.426 163.747C296.659 162.263 297.227 160.852 298.088 159.622C299.8 157.031 301.396 154.371 302.969 151.688C303.757 150.413 304.223 148.966 304.328 147.471C304.433 145.976 304.173 144.478 303.571 143.105C302.738 141.047 302.067 138.895 301.257 136.165C299.638 136.466 297.186 136.165 296.307 137.206C293.23 140.792 289.367 143.707 288.072 148.773C286.938 153.4 288.511 156.893 289.737 161.057C291.842 159.067 291.773 159.067 291.773 157.193C291.837 156.4 292.016 155.621 292.305 154.88C292.791 153.469 293.369 152.104 293.924 150.739C295.173 147.778 296.399 144.817 297.718 141.879C298.026 141.359 298.51 140.965 299.083 140.769C299.286 140.683 299.51 140.659 299.727 140.699C299.944 140.739 300.145 140.841 300.304 140.994C300.464 141.146 300.576 141.342 300.626 141.556C300.676 141.771 300.662 141.996 300.587 142.203C299.938 144.43 299.029 146.573 297.88 148.588C295.363 152.141 294.094 156.428 294.271 160.779C294.503 166.863 295.058 172.947 295.474 178.961C294.55 178.892 293.622 178.892 292.698 178.961C291.056 179.239 289.737 178.591 289.598 177.065C289.048 174.277 287.583 171.753 285.434 169.893C281.617 165.498 278.078 160.871 274.354 156.384C271.74 153.261 269.056 150.184 266.35 147.131C265.933 146.76 265.286 146.691 264.268 146.275ZM258.045 138.641C258.299 138.895 258.785 138.918 259.78 139.288C258.623 136.582 258.207 134.407 260.173 132.626C262.111 130.713 264.158 128.913 266.303 127.236C269.889 124.645 271.092 122.239 269.866 117.983C268.64 113.727 267.298 110.326 265.98 106.417L264.962 106.162C264.314 107.573 263.666 108.961 263.042 110.372C261.931 112.847 260.937 115.369 259.734 117.775C258.531 120.181 256.911 122.725 255.685 125.293C254.905 127.534 254.712 129.938 255.125 132.274C255.538 134.611 256.543 136.803 258.045 138.641ZM228.389 114.351C227.471 114.002 226.502 113.806 225.52 113.773C220.223 113.009 214.995 112.408 209.882 114.86C208.559 115.189 207.197 115.336 205.834 115.3C204.562 115.461 203.266 115.739 201.878 115.994C202.457 118.793 204.585 118.307 206.088 118.885C211.386 120.574 216.845 121.869 220.893 126.126C221.564 126.744 222.35 127.223 223.207 127.537C227.245 129.516 231.758 130.317 236.231 129.85C237.006 129.796 237.746 129.502 238.347 129.009C238.948 128.515 239.38 127.847 239.585 127.097C241.389 128.231 243.402 128.879 244.373 130.243C246.687 133.69 250.527 135.657 253.303 138.664C253.303 138.664 253.696 138.664 254.112 138.664C252.956 136.096 252.377 133.413 250.064 131.724C247.242 129.573 244.489 127.306 241.736 125.108L239.423 126.033C239.336 125.229 239.109 124.446 238.752 123.72C236.092 119.817 232.539 116.605 228.389 114.351ZM210.993 100.286C209.205 98.5682 207.564 96.7033 206.088 94.711C203.775 90.8247 201.115 87.0078 201.115 82.0573C200.848 80.1005 200.303 78.1919 199.495 76.3897C198.871 74.2615 198.084 72.1795 197.599 70.0282C197.344 68.8484 197.946 67.8537 199.773 67.9231C201.508 74.2384 203.243 80.5999 205.047 87.1928C207.916 84.1393 208.286 83.4915 208.217 81.5715C207.896 77.0763 205.995 72.8397 202.85 69.6118C200.097 66.512 197.414 63.4815 196.997 59.1094C196.997 58.6005 196.396 58.1378 195.979 57.5364C195.181 58.277 194.559 59.1873 194.158 60.2001C193.758 61.2129 193.59 62.3026 193.666 63.389C193.699 65.1279 193.544 66.8653 193.203 68.5708C192.288 71.6995 192.543 75.0545 193.92 78.009C194.753 79.7903 195.864 81.4327 196.881 83.1445C197.437 84.093 198.223 85.0415 196.534 86.2906L189.595 81.0857C188.453 80.0646 187.147 79.2435 185.731 78.6568C183.202 78.0264 181.014 76.4434 179.624 74.2384L178.93 75.048C180.015 76.4921 181.265 77.8042 182.655 78.9575C186.084 81.3914 188.935 84.5506 191.006 88.2107C195.794 89.5986 201.092 89.9688 202.942 95.7983C203.104 96.3072 203.775 96.6542 204.238 97.0706C207.985 100.51 211.741 103.949 215.503 107.388C216.336 108.128 217.1 109.262 218.673 108.591C217.67 107.764 216.713 106.883 215.804 105.954C214.139 104.103 212.612 102.137 210.993 100.286ZM235.93 99.8003C235.385 98.5483 234.582 97.4253 233.573 96.5045C232.565 95.5838 231.374 94.886 230.077 94.4566C227.371 93.7857 224.78 92.7447 222.143 91.8657C220.708 101.397 227.001 112.223 236.855 116.618C233.848 110.789 232.622 104.196 226.769 100.425C228.666 98.1116 229.083 98.1116 230.656 99.3839C231.331 99.9364 231.896 100.612 232.321 101.374C234.473 105.676 236.578 110.048 238.683 114.397L241.482 119.903L242.754 119.51C242.407 117.867 242.13 116.225 241.69 114.582C241.173 113.321 240.755 112.022 240.441 110.696C239.763 106.775 238.222 103.053 235.93 99.8003ZM235.93 83.6072C234.995 85.3835 234.624 87.4031 234.868 89.3958C235.112 91.3884 235.959 93.259 237.295 94.7573C239.389 96.7363 241.161 99.0311 242.546 101.559C242.549 101.613 242.549 101.667 242.546 101.721C241.829 103.363 242.731 104.473 243.749 105.792C245.206 103.479 243.379 102.831 242.546 101.721C242.546 101.721 242.546 101.721 242.546 101.605V101.466C243.402 99.3376 241.759 97.8571 241.065 96.1221C240.371 94.3872 239.469 93.1149 240.649 91.4955C241.042 91.4955 241.227 91.4955 241.274 91.4955L244.767 96.5848C244.673 93.8008 243.785 91.1017 242.207 88.8062C240.628 86.5107 238.426 84.7148 235.861 83.6303L235.93 83.6072ZM340.028 192.332C340.653 190.412 341.046 188.4 341.555 186.433L340.583 186.04C340.148 186.586 339.783 187.185 339.496 187.821C338.918 189.51 338.455 191.268 337.969 193.003C338.64 193.466 339.566 193.234 339.866 192.263L340.028 192.332ZM225.682 196.103C226.214 192.425 226.654 188.747 226.885 185.069C226.885 183.75 227.024 182.061 224.942 181.645C225.039 183.643 224.852 185.645 224.387 187.59C223.322 190.62 223.098 193.881 223.739 197.028C224.433 196.751 225.636 196.496 225.682 196.103ZM271.555 268.347C271.696 269.196 271.758 270.055 271.74 270.915C271.378 274.521 272.189 278.147 274.053 281.255C275.395 283.777 276.551 286.391 277.893 288.912C278.171 289.444 278.818 289.815 279.304 290.254L279.998 290C280.079 289.124 280.017 288.241 279.813 287.386C278.957 285.327 277.916 283.361 276.921 281.348C275.042 278.409 274.136 274.953 274.331 271.47C274.558 269.76 274.612 268.032 274.493 266.312C274.493 265.71 273.891 265.155 273.521 264.507C271.717 266.242 271.555 266.566 271.555 268.347ZM308.29 206.536C307.587 205.925 306.729 205.52 305.811 205.365C304.893 205.21 303.949 205.311 303.085 205.657C302.168 206.044 301.158 206.154 300.179 205.973C299.201 205.792 298.297 205.328 297.579 204.639C296.284 203.598 294.919 202.65 293.253 201.4C292.675 204.315 294.803 205.079 295.937 206.258C296.69 207.262 297.764 207.978 298.981 208.285C300.198 208.593 301.483 208.473 302.622 207.947C303.306 207.652 304.067 207.585 304.791 207.756C305.516 207.927 306.167 208.326 306.647 208.896C307.85 209.96 309.215 210.839 310.487 211.81C311.76 212.782 312.939 212.157 313.541 210.977C314.142 209.798 313.402 209.011 312.13 208.664C310.782 208.091 309.514 207.344 308.359 206.443L308.29 206.536ZM43.1397 98.9444C43.5561 98.4586 43.5561 97.6258 43.9031 96.3535L38.2587 100.98C39.1783 101.084 40.1093 100.952 40.9634 100.596C41.8176 100.24 42.5667 99.6711 43.1397 98.9444ZM35.7141 45.0446C33.6552 44.8364 33.1926 46.0624 33.4008 47.3579C34.0501 49.71 34.8223 52.0264 35.7141 54.2978C35.8529 54.6216 36.5006 54.7373 37.5878 55.3156C36.9864 51.5218 36.3618 48.2832 35.7141 45.0446ZM76.0811 100.124C76.3124 95.0118 75.8729 89.9225 75.7572 84.3243C73.3051 87.054 72.8656 95.4744 74.5543 102.229C75.3177 101.188 76.0579 100.656 76.0811 100.124ZM241.227 157.309C238.634 151.836 234.752 147.074 229.915 143.429C229.059 142.782 228.088 142.666 227.163 144.216C232.09 148.565 237.503 152.752 239.215 159.877L241.528 158.813C241.485 158.302 241.384 157.797 241.227 157.309ZM260.613 126.681C261.438 123.44 263.024 120.443 265.239 117.937C265.858 116.913 266.172 115.733 266.142 114.536C266.164 113.383 266.086 112.229 265.91 111.089C263.296 110.812 263.458 112.153 263.828 113.171C264.202 114.101 264.265 115.126 264.006 116.094C263.748 117.062 263.182 117.919 262.394 118.538C261.928 118.946 261.556 119.452 261.307 120.019C260.312 122.517 258.323 124.761 259.155 128.439C259.988 127.606 260.497 127.236 260.613 126.75V126.681ZM268.2 201.308C270.144 204.547 273.984 205.934 276.389 204.246C273.613 201.516 271.185 200.637 268.2 201.377V201.308ZM144.323 143.267C144.624 141.532 145.619 139.797 144.323 137.553C143.42 138.089 142.718 138.907 142.325 139.881C141.932 140.855 141.87 141.931 142.149 142.943C142.243 143.163 142.385 143.358 142.565 143.515C142.746 143.671 142.959 143.784 143.19 143.846C143.537 143.892 144.323 143.429 144.323 143.267ZM254.644 198.555C254.159 198.555 253.627 199.55 253.118 200.059C253.118 200.313 253.349 200.545 253.442 200.776C257.767 200.429 262.024 202.094 266.419 200.776C262.88 197.977 258.623 198.948 254.644 198.555Z" fill="#d3d3d3"/>
</svg>
